<svg width="20" height="19" viewBox="0 0 20 19" fill="none" xmlns="http://www.w3.org/2000/svg">
<path opacity="0.4" d="M19 8.72729C19.0034 9.92716 18.695 11.1108 18.1 12.1818C17.3944 13.4652 16.3097 14.5447 14.9674 15.2993C13.6251 16.054 12.0782 16.454 10.5 16.4545C9.18012 16.4577 7.8781 16.1773 6.69999 15.6364L1 17.3636L2.9 12.1818C2.30493 11.1108 1.99656 9.92716 2 8.72729C2.00061 7.29252 2.44061 5.88625 3.27072 4.66597C4.10082 3.4457 5.28825 2.45963 6.69999 1.81821C7.8781 1.27724 9.18012 0.996897 10.5 1.00003H11C13.0843 1.10456 15.053 1.90435 16.5291 3.24626C18.0052 4.58816 18.885 6.37788 19 8.27274V8.72729Z" stroke="white" stroke-width="1.6" stroke-linecap="round" stroke-linejoin="round"/>
<circle opacity="0.4" cx="6.31809" cy="8.77274" r="1.22727" fill="white"/>
<circle opacity="0.4" cx="10.4089" cy="8.77274" r="1.22727" fill="white"/>
<circle opacity="0.4" cx="14.4997" cy="8.77274" r="1.22727" fill="white"/>
</svg>
