<svg width="19" height="20" viewBox="0 0 19 20" fill="none" xmlns="http://www.w3.org/2000/svg">
<path fill-rule="evenodd" clip-rule="evenodd" d="M4.28438 19.2257L0.619801 19.2293C0.604442 18.4115 0.772883 18.589 2.45383 18.589C4.12921 18.589 4.30448 18.4116 4.28438 19.2257ZM2.04628 15.9989C1.75016 15.8287 1.84162 15.5209 1.84225 15.122C1.84276 14.7854 1.83764 14.4485 1.84573 14.1091L2.45048 14.112C2.46584 14.7335 2.61904 15.8212 2.04634 15.999L2.04628 15.9989ZM1.21981 12.0196C1.27631 12.89 1.14093 15.696 1.31462 16.1022C1.55334 16.6604 2.32653 17.0114 2.85998 16.0809C3.44583 15.059 2.47171 12.8948 3.72975 12.8369C3.87259 13.7142 4.02953 14.58 4.1842 15.4422C4.40112 16.6514 4.26801 17.0261 3.83189 17.9445L1.16785 17.9491C1.0044 16.9671 0.675864 16.0109 0.62688 14.9613C0.583711 14.0371 0.799303 12.6292 1.21987 12.0195L1.21981 12.0196ZM8.5671 16.029C7.34585 16.029 6.1081 16.0496 4.89747 16.0244L4.58131 14.1083L10.3977 14.112C10.4451 16.0331 10.192 16.029 8.56716 16.029L8.5671 16.029ZM9.80074 10.4335C10.505 10.9464 10.4028 11.1992 10.4014 11.6546C10.3995 12.2555 10.4125 12.8653 10.3976 13.4677L9.7893 13.4647L9.80074 10.4334V10.4335ZM8.57784 9.15301C8.71083 9.24902 9.12514 9.6469 9.16477 9.79973L9.17507 13.4677L8.56678 13.4648L8.5779 9.15301H8.57784ZM7.34427 9.30768C7.34427 9.02976 7.45955 8.99443 7.61036 8.83939C7.73052 8.71588 7.81552 8.60888 7.94731 8.51331L7.95243 13.4656L7.34711 13.4649L7.34427 9.30774V9.30768ZM6.12162 10.5879C6.12162 10.302 6.51306 9.94693 6.72467 9.79347L6.72978 13.4656L6.12447 13.4648L6.12162 10.5879ZM5.50196 11.0736L5.50708 13.4656L4.4561 13.4522C4.38702 13.0349 4.30795 12.751 4.2175 12.3923L5.50196 11.0736ZM1.84251 3.22651H10.3501L10.4015 3.23024L10.3796 7.55228L7.94174 5.03317L1.84276 11.3827L1.84257 3.22651H1.84251ZM1.84592 2.58302C1.81558 1.35248 1.78587 0.660823 3.06483 0.665437H9.1788C10.4576 0.660759 10.4281 1.35286 10.3977 2.58302C7.82204 2.64686 4.45364 2.58675 1.84592 2.58302ZM14.9535 2.45667C15.0024 2.4446 15.0851 2.43626 15.1377 2.42893C15.915 2.32053 17.3533 2.06025 17.9723 2.02011L17.5008 5.32764C17.4982 5.32 17.4898 5.3545 17.4723 5.37701L16.5002 4.39309L10.6923 10.4404L7.95571 7.60834C7.67881 7.78942 6.84273 8.74407 6.54403 9.05631L3.76793 11.9638C3.23144 12.5363 2.593 12.2326 2.45718 13.4679L1.84592 13.4648C1.81925 12.3846 1.74858 12.4119 2.13407 12.0134L7.12672 6.78591C7.33719 6.56545 7.73886 6.0928 7.97107 5.93346L10.7218 8.78225L15.7063 3.53236L14.7763 2.53321L14.9535 2.45667ZM18.6949 1.25192L13.4785 2.03086C13.5118 2.22882 13.9744 2.61658 14.1348 2.78445C14.336 2.99518 14.6984 3.32246 14.8469 3.56295L11.0231 7.5421C10.9216 6.12302 11.0122 4.31472 11.0122 2.85335C11.0122 1.63829 11.2194 0.0232719 9.22974 0.0258633C7.73532 0.0277595 6.24077 0.0264327 4.74634 0.0264327C3.27872 0.0264327 1.73531 -0.269937 1.31139 1.12209C1.13701 1.69461 1.23144 4.8854 1.23144 5.73386L1.22727 10.4262C1.19857 10.6778 0.663223 11.6805 0.520316 12.0332C-0.582868 14.756 0.403322 16.4223 0.540351 18.0026C-0.0516289 18.65 -0.00978624 18.3863 0.00860648 19.8692L4.89538 19.8655C4.9395 18.0841 4.79564 18.6356 4.48006 18.0559C4.6851 17.5316 4.78357 17.3585 4.87522 16.6986C5.8463 16.4508 9.42789 16.9815 10.2774 16.4324C10.9939 15.9691 11.0123 15.3663 11.0123 14.2687C11.0123 13.2902 11.0043 12.3088 11.0088 11.3311C11.0105 10.972 11.0487 10.9913 11.2266 10.8125L13.6985 8.22636C14.0982 7.80788 16.2857 5.45936 16.5289 5.29433L17.9596 6.73661L18.695 1.25204L18.6949 1.25192Z" fill="white"/>
<path fill-rule="evenodd" clip-rule="evenodd" d="M17.7337 19.2256L13.4579 19.2292C13.4409 18.37 13.6777 18.5888 15.5975 18.5888C16.056 18.5888 16.5147 18.5907 16.9731 18.5885C17.6004 18.5856 17.7514 18.5121 17.7338 19.2255L17.7337 19.2256ZM12.2799 12.5548C12.7757 12.383 13.2599 12.8248 13.3916 13.2152C13.5191 13.5933 13.4499 14.5913 13.4616 15.0644L14.0652 15.0673L14.0689 10.2677C14.0689 9.8744 13.9153 8.99446 14.3748 8.99478C14.8341 8.99509 14.6806 9.87459 14.6806 10.2677L14.6842 15.0644L15.2886 15.0673L15.2923 11.6478L15.8931 11.7998L15.904 15.0644L16.5112 15.0673L16.515 11.9678L17.1157 12.1201L17.1268 15.0644L17.7339 15.0673L17.7378 12.2878C18.5249 12.4039 18.3487 12.6755 18.3486 13.4681C18.3485 14.0904 18.3485 14.7128 18.3486 15.3351C18.3489 16.5751 18.3583 16.5456 17.6883 17.4175C17.5649 17.5781 17.4267 17.7929 17.2785 17.936L14.1154 17.953C13.8333 17.9405 13.8296 17.8455 13.7105 17.6843C13.507 17.4088 13.3321 17.209 13.1457 16.9416C12.4763 15.9812 13.1886 14.8191 12.599 13.5127C12.4792 13.2472 12.1932 12.8257 12.2798 12.5548H12.2799ZM13.4458 12.2374C12.9112 11.9082 12.1426 11.5866 11.7451 12.2649C11.3753 12.896 12.0199 13.5492 12.1722 14.1182C12.3536 14.7961 12.1293 15.8178 12.3026 16.5455C12.4894 17.3295 13.0107 17.672 13.22 18.1089C12.7496 18.7887 12.8321 18.6621 12.8466 19.8689L18.3447 19.8652C18.3743 18.6731 18.4318 18.7702 17.9752 18.1089C18.1254 17.8001 18.4188 17.5299 18.6133 17.2124C19.1791 16.2892 18.9559 14.4551 18.9599 13.0947C18.9636 11.8317 18.5729 11.8486 17.5621 11.5732C16.8175 11.3703 16.0194 11.1374 15.2927 10.9801C15.29 10.504 15.3615 9.27029 15.208 8.91343C15.0226 8.48224 14.4383 8.13866 13.9 8.49033C13.3715 8.83575 13.458 9.38949 13.4581 10.161C13.4581 10.8105 13.497 11.6057 13.4458 12.2375V12.2374Z" fill="white"/>
<path fill-rule="evenodd" clip-rule="evenodd" d="M2.45471 5.78373L5.5103 5.78727L5.50923 5.15155L2.46008 5.14795L2.45471 5.78373Z" fill="white"/>
<path fill-rule="evenodd" clip-rule="evenodd" d="M2.45471 7.06345L5.5103 7.06705L5.50923 6.43134L2.4664 6.42773L2.45471 7.06345Z" fill="white"/>
<path fill-rule="evenodd" clip-rule="evenodd" d="M2.45471 4.50266L5.49754 4.5062L5.50923 3.87048L2.46008 3.86694L2.45471 4.50266Z" fill="white"/>
<path fill-rule="evenodd" clip-rule="evenodd" d="M7.3455 1.94254L9.78338 1.94608L9.78869 1.31036L7.34442 1.30688L7.3455 1.94254Z" fill="white"/>
<path fill-rule="evenodd" clip-rule="evenodd" d="M5.21094 15.3881L7.03751 15.3846L7.02581 14.749L5.20557 14.7525L5.21094 15.3881Z" fill="white"/>
<path fill-rule="evenodd" clip-rule="evenodd" d="M3.87327 1.34203C3.48481 1.51566 3.73448 2.06775 4.10214 1.91473C4.44895 1.77037 4.23721 1.1794 3.87327 1.34203Z" fill="white"/>
<path fill-rule="evenodd" clip-rule="evenodd" d="M2.65043 1.34203C2.26198 1.51566 2.51164 2.06775 2.8793 1.91473C3.22617 1.77037 3.01437 1.1794 2.65043 1.34203Z" fill="white"/>
</svg>
