<svg width="43" height="50" viewBox="0 0 43 50" fill="none" xmlns="http://www.w3.org/2000/svg">
<path d="M35.4793 26.5806C35.4211 20.2958 40.7769 17.2382 41.0218 17.0958C37.9886 12.8 33.2872 12.213 31.6351 12.1662C27.6866 11.7626 23.8564 14.4614 21.845 14.4614C19.7934 14.4614 16.696 12.2052 13.3577 12.2715C9.06184 12.3359 5.04301 14.7519 2.83887 18.5037C-1.70991 26.1536 1.68261 37.3953 6.04069 43.5788C8.22073 46.6071 10.7681 49.9884 14.1024 49.8695C17.3645 49.7388 18.583 47.8493 22.5195 47.8493C26.4199 47.8493 27.5641 49.8695 30.9647 49.7934C34.4656 49.7388 36.6697 46.7514 38.7735 43.6958C41.2928 40.2248 42.3045 36.8064 42.3447 36.631C42.2623 36.6036 35.5456 34.1135 35.4793 26.5806Z" fill="black"/>
<path d="M29.0556 8.09855C30.8101 5.9672 32.0105 3.06755 31.6773 0.125C29.1379 0.2342 25.9622 1.83125 24.1335 3.9158C22.5155 5.7527 21.0701 8.7635 21.4435 11.5949C24.2961 11.8016 27.2249 10.1967 29.0556 8.09855Z" fill="black"/>
</svg>
