<svg width="271" height="78" viewBox="0 0 271 78" fill="none" xmlns="http://www.w3.org/2000/svg">
<path d="M269.494 69.0055C269.494 73.1622 266.044 76.5293 261.777 76.5293H9.23253C4.9674 76.5293 1.50537 73.1622 1.50537 69.0055V9.00621C1.50537 4.85146 4.9674 1.47266 9.23253 1.47266H261.775C266.044 1.47266 269.492 4.85146 269.492 9.00621L269.494 69.0055Z" fill="white"/>
<path d="M260.963 1.56244C265.61 1.56244 269.392 5.23576 269.392 9.75001V68.25C269.392 72.7643 265.61 76.4376 260.963 76.4376H10.037C5.38989 76.4376 1.60843 72.7643 1.60843 68.25V9.75001C1.60843 5.23576 5.38989 1.56244 10.037 1.56244H260.963ZM260.963 7.62939e-06H10.037C4.51918 7.62939e-06 0 4.38995 0 9.75001V68.25C0 73.6101 4.51918 78 10.037 78H260.963C266.481 78 271 73.6101 271 68.25V9.75001C271 4.38995 266.481 7.62939e-06 260.963 7.62939e-06Z" fill="#A6A6A6"/>
<path d="M60.4793 38.5806C60.4211 32.2958 65.7769 29.2382 66.0218 29.0958C62.9886 24.8 58.2872 24.213 56.6351 24.1662C52.6866 23.7626 48.8564 26.4614 46.845 26.4614C44.7934 26.4614 41.696 24.2052 38.3577 24.2715C34.0618 24.3359 30.043 26.7519 27.8389 30.5037C23.2901 38.1536 26.6826 49.3953 31.0407 55.5788C33.2207 58.6071 35.7681 61.9884 39.1024 61.8695C42.3645 61.7388 43.583 59.8493 47.5195 59.8493C51.4199 59.8493 52.5641 61.8695 55.9647 61.7934C59.4656 61.7388 61.6697 58.7514 63.7735 55.6958C66.2928 52.2248 67.3045 48.8064 67.3447 48.631C67.2623 48.6036 60.5456 46.1135 60.4793 38.5806Z" fill="black"/>
<path d="M54.0556 20.0985C55.8101 17.9672 57.0105 15.0675 56.6773 12.125C54.1379 12.2342 50.9622 13.8313 49.1335 15.9158C47.5155 17.7527 46.0701 20.7635 46.4435 23.5949C49.2961 23.8016 52.2249 22.1967 54.0556 20.0985Z" fill="black"/>
<path d="M98.4636 19.5194C98.4636 21.8146 97.755 23.5423 96.3398 24.7025C95.0289 25.7731 93.166 26.3093 90.7531 26.3093C89.5567 26.3093 88.5329 26.2586 87.6758 26.1572V13.6168C88.7939 13.4413 89.9984 13.3516 91.2992 13.3516C93.5976 13.3516 95.33 13.8371 96.4983 14.8082C97.8072 15.9061 98.4636 17.4758 98.4636 19.5194ZM96.2454 19.576C96.2454 18.0881 95.8399 16.9474 95.0289 16.1518C94.2179 15.3581 93.0336 14.9603 91.4738 14.9603C90.8114 14.9603 90.2473 15.0032 89.7795 15.0929V24.6265C90.0385 24.6655 90.5123 24.683 91.2008 24.683C92.8107 24.683 94.0533 24.2482 94.9286 23.3785C95.8038 22.5088 96.2454 21.2413 96.2454 19.576Z" fill="black"/>
<path d="M110.225 21.5237C110.225 22.9375 109.81 24.0958 108.979 25.0045C108.107 25.9385 106.953 26.4046 105.512 26.4046C104.123 26.4046 103.017 25.958 102.192 25.061C101.369 24.166 100.957 23.0369 100.957 21.6758C100.957 20.2523 101.381 19.0843 102.232 18.1775C103.083 17.2708 104.227 16.8164 105.668 16.8164C107.058 16.8164 108.174 17.263 109.019 18.158C109.822 19.0277 110.225 20.1509 110.225 21.5237ZM108.043 21.59C108.043 20.7418 107.854 20.0144 107.479 19.408C107.037 18.6748 106.409 18.3082 105.592 18.3082C104.747 18.3082 104.105 18.6748 103.663 19.408C103.286 20.0144 103.099 20.7535 103.099 21.6271C103.099 22.4753 103.288 23.2027 103.663 23.8091C104.119 24.5423 104.753 24.9089 105.572 24.9089C106.375 24.9089 107.005 24.5365 107.459 23.7896C107.848 23.1715 108.043 22.4383 108.043 21.59Z" fill="black"/>
<path d="M125.995 17.0039L123.034 26.1962H121.107L119.881 22.2046C119.57 21.2081 119.317 20.2175 119.12 19.2347H119.082C118.899 20.2448 118.646 21.2335 118.321 22.2046L117.018 26.1962H115.069L112.285 17.0039H114.447L115.517 21.3739C115.776 22.4074 115.988 23.3921 116.159 24.3242H116.197C116.354 23.5559 116.613 22.577 116.978 21.3934L118.321 17.0059H120.035L121.322 21.2998C121.633 22.3469 121.886 23.3551 122.081 24.3262H122.139C122.282 23.3804 122.496 22.3723 122.781 21.2998L123.93 17.0059H125.995V17.0039Z" fill="black"/>
<path d="M136.902 26.1939H134.798V20.9289C134.798 19.3065 134.163 18.4953 132.891 18.4953C132.266 18.4953 131.763 18.7176 131.371 19.1642C130.984 19.6107 130.787 20.1372 130.787 20.7398V26.192H128.683V19.6283C128.683 18.821 128.657 17.9454 128.607 16.9977H130.456L130.554 18.4349H130.612C130.857 17.9883 131.223 17.6198 131.702 17.3253C132.272 16.9821 132.911 16.8086 133.609 16.8086C134.493 16.8086 135.227 17.0855 135.812 17.6412C136.538 18.3218 136.902 19.3377 136.902 20.6871V26.1939Z" fill="black"/>
<path d="M142.703 26.1953H140.601V12.7852H142.703V26.1953Z" fill="black"/>
<path d="M155.089 21.5237C155.089 22.9375 154.673 24.0958 153.842 25.0045C152.971 25.9385 151.814 26.4046 150.375 26.4046C148.984 26.4046 147.878 25.958 147.055 25.061C146.232 24.166 145.82 23.0369 145.82 21.6758C145.82 20.2523 146.244 19.0843 147.095 18.1775C147.946 17.2708 149.09 16.8164 150.53 16.8164C151.921 16.8164 153.035 17.263 153.882 18.158C154.685 19.0277 155.089 20.1509 155.089 21.5237ZM152.904 21.59C152.904 20.7418 152.716 20.0144 152.34 19.408C151.901 18.6748 151.27 18.3082 150.455 18.3082C149.608 18.3082 148.966 18.6748 148.526 19.408C148.149 20.0144 147.962 20.7535 147.962 21.6271C147.962 22.4753 148.151 23.2027 148.526 23.8091C148.982 24.5423 149.616 24.9089 150.435 24.9089C151.238 24.9089 151.867 24.5365 152.32 23.7896C152.712 23.1715 152.904 22.4383 152.904 21.59Z" fill="black"/>
<path d="M165.27 26.1959H163.381L163.225 25.1371H163.166C162.52 25.9814 161.599 26.4046 160.402 26.4046C159.509 26.4046 158.786 26.1257 158.242 25.5719C157.748 25.0688 157.501 24.4429 157.501 23.6999C157.501 22.5767 157.983 21.7207 158.953 21.1279C159.92 20.5351 161.281 20.2445 163.034 20.2582V20.0866C163.034 18.8756 162.379 18.2711 161.069 18.2711C160.135 18.2711 159.312 18.4993 158.602 18.9517L158.174 17.6101C159.053 17.0816 160.139 16.8164 161.42 16.8164C163.893 16.8164 165.134 18.0839 165.134 20.6189V24.0041C165.134 24.9226 165.18 25.6538 165.27 26.1959ZM163.086 23.0369V21.6193C160.766 21.5803 159.605 22.1984 159.605 23.4718C159.605 23.9515 159.738 24.3103 160.009 24.5501C160.28 24.79 160.625 24.9089 161.037 24.9089C161.498 24.9089 161.93 24.7666 162.323 24.4838C162.719 24.1991 162.962 23.8384 163.052 23.3957C163.074 23.2963 163.086 23.1754 163.086 23.0369Z" fill="black"/>
<path d="M177.224 26.1953H175.357L175.259 24.7192H175.201C174.605 25.8424 173.589 26.404 172.162 26.404C171.021 26.404 170.072 25.9691 169.319 25.0994C168.566 24.2297 168.191 23.1007 168.191 21.7142C168.191 20.2264 168.598 19.0213 169.417 18.1009C170.21 17.2429 171.182 16.8139 172.338 16.8139C173.609 16.8139 174.498 17.2292 175.004 18.0619H175.044V12.7852H177.15V23.7188C177.15 24.6139 177.174 25.4387 177.224 26.1953ZM175.044 22.3187V20.786C175.044 20.5208 175.024 20.3063 174.986 20.1425C174.868 19.6511 174.613 19.2377 174.225 18.9043C173.834 18.5708 173.362 18.4031 172.818 18.4031C172.033 18.4031 171.419 18.7054 170.967 19.3118C170.519 19.9183 170.293 20.6924 170.293 21.6382C170.293 22.5469 170.507 23.284 170.939 23.8514C171.395 24.4559 172.009 24.7582 172.778 24.7582C173.468 24.7582 174.02 24.5066 174.44 24.0016C174.845 23.5355 175.044 22.9739 175.044 22.3187Z" fill="black"/>
<path d="M195.216 21.5237C195.216 22.9375 194.801 24.0958 193.97 25.0045C193.099 25.9385 191.946 26.4046 190.503 26.4046C189.116 26.4046 188.01 25.958 187.183 25.061C186.36 24.166 185.948 23.0369 185.948 21.6758C185.948 20.2523 186.372 19.0843 187.223 18.1775C188.074 17.2708 189.218 16.8164 190.662 16.8164C192.049 16.8164 193.167 17.263 194.01 18.158C194.813 19.0277 195.216 20.1509 195.216 21.5237ZM193.036 21.59C193.036 20.7418 192.848 20.0144 192.472 19.408C192.029 18.6748 191.402 18.3082 190.583 18.3082C189.74 18.3082 189.098 18.6748 188.654 19.408C188.277 20.0144 188.09 20.7535 188.09 21.6271C188.09 22.4753 188.279 23.2027 188.654 23.8091C189.11 24.5423 189.744 24.9089 190.563 24.9089C191.366 24.9089 191.999 24.5365 192.452 23.7896C192.84 23.1715 193.036 22.4383 193.036 21.59Z" fill="black"/>
<path d="M206.528 26.1939H204.427V20.9289C204.427 19.3065 203.792 18.4953 202.518 18.4953C201.893 18.4953 201.389 18.7176 201 19.1642C200.611 19.6107 200.416 20.1372 200.416 20.7398V26.192H198.31V19.6283C198.31 18.821 198.286 17.9454 198.236 16.9977H200.083L200.181 18.4349H200.239C200.486 17.9883 200.851 17.6198 201.329 17.3253C201.901 16.9821 202.538 16.8086 203.238 16.8086C204.12 16.8086 204.854 17.0855 205.438 17.6412C206.167 18.3218 206.528 19.3377 206.528 20.6871V26.1939Z" fill="black"/>
<path d="M220.687 18.5349H218.37V23.0004C218.37 24.1353 218.782 24.7027 219.597 24.7027C219.974 24.7027 220.287 24.6715 220.534 24.6072L220.588 26.1574C220.173 26.3095 219.627 26.3856 218.954 26.3856C218.123 26.3856 217.477 26.1399 217.009 25.6485C216.539 25.1571 216.306 24.3303 216.306 23.17V18.5349H214.923V17.0041H216.306V15.3193L218.368 14.7148V17.0022H220.685V18.5349H220.687Z" fill="black"/>
<path d="M231.824 26.1953H229.718V20.9693C229.718 19.3216 229.084 18.4967 227.813 18.4967C226.837 18.4967 226.171 18.9745 225.806 19.93C225.743 20.1308 225.707 20.3765 225.707 20.6651V26.1934H223.605V12.7852H225.707V18.3251H225.747C226.41 17.317 227.359 16.8139 228.59 16.8139C229.461 16.8139 230.182 17.0908 230.754 17.6465C231.467 18.3388 231.824 19.3684 231.824 20.7295V26.1953Z" fill="black"/>
<path d="M243.312 21.1629C243.312 21.5295 243.284 21.8376 243.234 22.0892H236.924C236.953 22.9979 237.254 23.6901 237.838 24.1698C238.372 24.5988 239.06 24.8133 239.903 24.8133C240.837 24.8133 241.688 24.669 242.455 24.3785L242.784 25.7981C241.887 26.1764 240.831 26.3655 239.608 26.3655C238.143 26.3655 236.989 25.9463 236.154 25.1078C235.314 24.2693 234.899 23.1441 234.899 21.7323C234.899 20.3459 235.286 19.1915 236.067 18.2711C236.882 17.2883 237.984 16.7969 239.375 16.7969C240.736 16.7969 241.77 17.2883 242.469 18.2711C243.033 19.0511 243.312 20.0163 243.312 21.1629ZM241.305 20.6345C241.321 20.028 241.182 19.5054 240.897 19.0647C240.532 18.4973 239.976 18.2126 239.223 18.2126C238.536 18.2126 237.976 18.4895 237.549 19.0452C237.199 19.4879 236.993 20.0163 236.924 20.6345H241.305Z" fill="black"/>
<path d="M107.687 61.4311H103.129L100.631 53.8085H91.9514L89.5727 61.4311H85.1343L93.734 35.4805H99.0456L107.687 61.4311ZM99.8787 50.6105L97.6203 43.8343C97.3815 43.142 96.9338 41.5118 96.2734 38.9456H96.1931C95.9301 40.0493 95.5065 41.6795 94.9244 43.8343L92.7062 50.6105H99.8787Z" fill="black"/>
<path d="M129.803 51.8461C129.803 55.0285 128.918 57.544 127.147 59.3906C125.561 61.0345 123.592 61.8554 121.241 61.8554C118.704 61.8554 116.881 60.9701 115.771 59.1995H115.691V69.0568H111.411V48.8801C111.411 46.8794 111.357 44.8261 111.252 42.7201H115.016L115.255 45.686H115.336C116.763 43.4513 118.929 42.3359 121.835 42.3359C124.108 42.3359 126.005 43.2076 127.522 44.9528C129.044 46.7 129.803 48.9971 129.803 51.8461ZM125.443 51.9982C125.443 50.1769 125.021 48.6754 124.174 47.4937C123.249 46.2613 122.006 45.6451 120.448 45.6451C119.392 45.6451 118.433 45.9883 117.576 46.6649C116.717 47.3474 116.155 48.2386 115.892 49.3423C115.759 49.8571 115.693 50.2783 115.693 50.6098V53.7298C115.693 55.0909 116.122 56.2394 116.982 57.1774C117.841 58.1153 118.957 58.5833 120.33 58.5833C121.942 58.5833 123.197 57.9788 124.094 56.7737C124.993 55.5667 125.443 53.9755 125.443 51.9982Z" fill="black"/>
<path d="M151.959 51.8461C151.959 55.0285 151.074 57.544 149.301 59.3906C147.717 61.0345 145.748 61.8554 143.397 61.8554C140.86 61.8554 139.037 60.9701 137.929 59.1995H137.849V69.0568H133.569V48.8801C133.569 46.8794 133.515 44.8261 133.411 42.7201H137.175L137.413 45.686H137.494C138.919 43.4513 141.085 42.3359 143.994 42.3359C146.264 42.3359 148.161 43.2076 149.683 44.9528C151.198 46.7 151.959 48.9971 151.959 51.8461ZM147.599 51.9982C147.599 50.1769 147.175 48.6754 146.328 47.4937C145.403 46.2613 144.164 45.6451 142.605 45.6451C141.547 45.6451 140.589 45.9883 139.73 46.6649C138.871 47.3474 138.311 48.2386 138.048 49.3423C137.917 49.8571 137.849 50.2783 137.849 50.6098V53.7298C137.849 55.0909 138.279 56.2394 139.134 57.1774C139.993 58.1134 141.109 58.5833 142.486 58.5833C144.098 58.5833 145.353 57.9788 146.25 56.7737C147.149 55.5667 147.599 53.9755 147.599 51.9982Z" fill="black"/>
<path d="M176.73 54.155C176.73 56.3624 175.941 58.1584 174.358 59.5448C172.617 61.06 170.194 61.8166 167.081 61.8166C164.206 61.8166 161.902 61.2784 160.157 60.2L161.149 56.7349C163.028 57.8386 165.089 58.3924 167.336 58.3924C168.948 58.3924 170.202 58.0375 171.104 57.3316C172.001 56.6257 172.449 55.678 172.449 54.4963C172.449 53.4433 172.079 52.556 171.338 51.8365C170.602 51.1169 169.371 50.4481 167.653 49.8299C162.976 48.1354 160.639 45.653 160.639 42.3887C160.639 40.2554 161.458 38.5063 163.098 37.1452C164.732 35.7821 166.912 35.1016 169.638 35.1016C172.069 35.1016 174.089 35.513 175.701 36.334L174.631 39.7231C173.125 38.9275 171.423 38.5297 169.518 38.5297C168.012 38.5297 166.836 38.8904 165.993 39.608C165.28 40.2496 164.923 41.0315 164.923 41.9578C164.923 42.9835 165.33 43.8317 166.149 44.4986C166.862 45.1148 168.157 45.7817 170.036 46.5013C172.334 47.4002 174.022 48.4513 175.108 49.6564C176.19 50.8576 176.73 52.361 176.73 54.155Z" fill="black"/>
<path d="M190.881 45.841H186.163V54.9261C186.163 57.2368 186.994 58.3912 188.661 58.3912C189.425 58.3912 190.06 58.3269 190.562 58.1982L190.68 61.3552C189.837 61.6614 188.727 61.8154 187.352 61.8154C185.661 61.8154 184.341 61.3143 183.387 60.3139C182.438 59.3116 181.96 57.6307 181.96 55.2693V45.8371H179.149V42.7171H181.96V39.291L186.163 38.0586V42.7171H190.881V45.841Z" fill="black"/>
<path d="M212.165 51.9241C212.165 54.8003 211.318 57.1618 209.628 59.0084C207.855 60.9097 205.502 61.8574 202.57 61.8574C199.743 61.8574 197.493 60.9467 195.815 59.1254C194.136 57.3041 193.297 55.0051 193.297 52.2341C193.297 49.3345 194.161 46.9594 195.893 45.1127C197.621 43.2641 199.954 42.3398 202.887 42.3398C205.713 42.3398 207.988 43.2505 209.704 45.0737C211.346 46.8424 212.165 49.1258 212.165 51.9241ZM207.725 52.0586C207.725 50.3329 207.345 48.8528 206.576 47.6185C205.679 46.1248 204.396 45.3799 202.734 45.3799C201.014 45.3799 199.707 46.1267 198.81 47.6185C198.041 48.8548 197.661 50.3582 197.661 52.1366C197.661 53.8624 198.041 55.3424 198.81 56.5748C199.735 58.0685 201.028 58.8134 202.696 58.8134C204.33 58.8134 205.613 58.0529 206.538 56.5358C207.327 55.2781 207.725 53.7824 207.725 52.0586Z" fill="black"/>
<path d="M226.077 46.3763C225.653 46.3003 225.201 46.2613 224.728 46.2613C223.222 46.2613 222.058 46.8131 221.239 47.9188C220.526 48.8938 220.169 50.1262 220.169 51.614V61.4323H215.891L215.931 48.613C215.931 46.4563 215.877 44.4926 215.771 42.722H219.498L219.655 46.3022H219.773C220.225 45.0718 220.938 44.0812 221.913 43.3382C222.867 42.6694 223.897 42.3359 225.007 42.3359C225.402 42.3359 225.759 42.3632 226.077 42.412V46.3763Z" fill="black"/>
<path d="M245.217 51.1908C245.217 51.9357 245.167 52.5636 245.06 53.0765H232.221C232.271 54.9251 232.891 56.3388 234.084 57.3138C235.166 58.1855 236.565 58.6223 238.283 58.6223C240.184 58.6223 241.919 58.3278 243.478 57.737L244.149 60.623C242.326 61.3952 240.174 61.7793 237.691 61.7793C234.704 61.7793 232.359 60.9252 230.653 59.219C228.951 57.5127 228.098 55.2215 228.098 52.3472C228.098 49.5255 228.891 47.1758 230.478 45.3018C232.141 43.3011 234.387 42.3008 237.213 42.3008C239.99 42.3008 242.091 43.3011 243.519 45.3018C244.649 46.8911 245.217 48.8567 245.217 51.1908ZM241.136 50.1125C241.164 48.8801 240.885 47.8154 240.305 46.9164C239.564 45.7601 238.426 45.1829 236.894 45.1829C235.495 45.1829 234.357 45.7464 233.488 46.8774C232.775 47.7764 232.351 48.8547 232.221 50.1105H241.136V50.1125Z" fill="black"/>
</svg>
