<svg width="21" height="23" viewBox="0 0 21 23" fill="none" xmlns="http://www.w3.org/2000/svg">
<path d="M16.0053 7.99858C16.0053 6.40672 15.3729 4.88006 14.2473 3.75444C13.1217 2.62882 11.595 1.99646 10.0032 1.99646C8.41132 1.99646 6.88466 2.62882 5.75904 3.75444C4.63343 4.88006 4.00106 6.40672 4.00106 7.99858C4.00106 15.0011 1 17.0018 1 17.0018H19.0064C19.0064 17.0018 16.0053 15.0011 16.0053 7.99858Z" stroke="#727272" stroke-width="2" stroke-linecap="round" stroke-linejoin="round"/>
<path d="M11.7337 21.0032C11.5578 21.3064 11.3054 21.558 11.0017 21.733C10.6979 21.9079 10.3536 22 10.0031 22C9.65257 22 9.30822 21.9079 9.00449 21.733C8.70077 21.558 8.44833 21.3064 8.27246 21.0032" stroke="#727272" stroke-width="2" stroke-linecap="round" stroke-linejoin="round"/>
</svg>
