<svg width="36" height="28" viewBox="0 0 36 28" fill="none" xmlns="http://www.w3.org/2000/svg">
<path d="M6.83468 23.0179H1V5.51382V4.68029H14.3364L17.6705 1.34619H31.0069C31.0069 1.34619 34.341 3.01324 34.341 6.34734C34.341 7.59763 33.5908 8.26445 32.924 8.68121C31.6737 9.51474 30.1734 9.68145 30.1734 9.68145L33.5075 14.6826L35.1745 17.1832V23.0179H31.3403" stroke="#A87C51" stroke-width="1.4" stroke-miterlimit="10"/>
<path d="M13.502 23.018H22.6707H24.6712" stroke="#A87C51" stroke-width="1.4" stroke-miterlimit="10"/>
<path d="M11.0026 8.84783H5.16797V13.0155H11.0026V8.84783Z" stroke="#A87C51" stroke-width="1.4" stroke-miterlimit="10"/>
<path d="M31.8396 9.26469H24.3379V14.6826H33.5067" stroke="#A87C51" stroke-width="1.4" stroke-miterlimit="10"/>
<path d="M10.1681 26.3519C12.0095 26.3519 13.5022 24.8592 13.5022 23.0178C13.5022 21.1765 12.0095 19.6837 10.1681 19.6837C8.32671 19.6837 6.83398 21.1765 6.83398 23.0178C6.83398 24.8592 8.32671 26.3519 10.1681 26.3519Z" stroke="#A87C51" stroke-width="1.4" stroke-miterlimit="10"/>
<path d="M28.006 26.3519C29.8474 26.3519 31.3401 24.8592 31.3401 23.0178C31.3401 21.1765 29.8474 19.6837 28.006 19.6837C26.1646 19.6837 24.6719 21.1765 24.6719 23.0178C24.6719 24.8592 26.1646 26.3519 28.006 26.3519Z" stroke="#A87C51" stroke-width="1.4" stroke-miterlimit="10"/>
</svg>
