<svg width="25" height="18" viewBox="0 0 25 18" fill="none" xmlns="http://www.w3.org/2000/svg">
<path d="M15.2222 17V15.2222C15.2222 14.2792 14.8476 13.3749 14.1808 12.7081C13.514 12.0413 12.6097 11.6667 11.6667 11.6667H4.55555C3.61256 11.6667 2.70819 12.0413 2.0414 12.7081C1.3746 13.3749 1 14.2792 1 15.2222V17" stroke="#06726A" stroke-width="2" stroke-linecap="round" stroke-linejoin="round"/>
<path d="M8.11024 8.11111C10.0739 8.11111 11.6658 6.51923 11.6658 4.55555C11.6658 2.59188 10.0739 1 8.11024 1C6.14656 1 4.55469 2.59188 4.55469 4.55555C4.55469 6.51923 6.14656 8.11111 8.11024 8.11111Z" stroke="#06726A" stroke-width="2" stroke-linecap="round" stroke-linejoin="round"/>
<path d="M20.5553 17V15.2222C20.5548 14.4344 20.2925 13.6691 19.8099 13.0465C19.3272 12.4239 18.6515 11.9792 17.8887 11.7822" stroke="#06726A" stroke-width="2" stroke-linecap="round" stroke-linejoin="round"/>
<path d="M24.1118 13.4445V12.233C24.1114 11.6962 23.9366 11.1747 23.6148 10.7504C23.293 10.3262 22.8425 10.0231 22.334 9.88892" stroke="#06726A" stroke-width="1.5" stroke-linecap="round" stroke-linejoin="round"/>
<path d="M14.334 1.11554C15.0988 1.31136 15.7767 1.75616 16.2608 2.37982C16.7449 3.00347 17.0076 3.7705 17.0076 4.55998C17.0076 5.34947 16.7449 6.1165 16.2608 6.74015C15.7767 7.3638 15.0988 7.8086 14.334 8.00443" stroke="#06726A" stroke-width="2" stroke-linecap="round" stroke-linejoin="round"/>
<path d="M19.666 1.88892C20.1746 2.04052 20.6253 2.38488 20.9472 2.86771C21.2691 3.35054 21.4438 3.94437 21.4438 4.55558C21.4438 5.1668 21.2691 5.76063 20.9472 6.24345C20.6253 6.72628 20.1746 7.07064 19.666 7.22225" stroke="#06726A" stroke-width="1.5" stroke-linecap="round" stroke-linejoin="round"/>
</svg>
