<svg width="26" height="26" viewBox="0 0 26 26" fill="none" xmlns="http://www.w3.org/2000/svg">
<path d="M22.3333 1H3.66667C2.19391 1 1 2.19391 1 3.66667V22.3333C1 23.8061 2.19391 25 3.66667 25H22.3333C23.8061 25 25 23.8061 25 22.3333V3.66667C25 2.19391 23.8061 1 22.3333 1Z" stroke="#06726A" stroke-width="2" stroke-linecap="round" stroke-linejoin="round"/>
<path d="M8.33594 10.3334C9.44051 10.3334 10.3359 9.43794 10.3359 8.33337C10.3359 7.2288 9.44051 6.33337 8.33594 6.33337C7.23137 6.33337 6.33594 7.2288 6.33594 8.33337C6.33594 9.43794 7.23137 10.3334 8.33594 10.3334Z" stroke="#06726A" stroke-width="2" stroke-linecap="round" stroke-linejoin="round"/>
<path d="M25.0013 17L18.3346 10.3334L3.66797 25" stroke="#06726A" stroke-width="2" stroke-linecap="round" stroke-linejoin="round"/>
</svg>
