<svg width="271" height="78" viewBox="0 0 271 78" fill="none" xmlns="http://www.w3.org/2000/svg">
<path d="M260.963 78H10.037C4.51918 78 0 73.6101 0 68.25V9.75001C0 4.38995 4.51918 7.62939e-06 10.037 7.62939e-06H260.963C266.481 7.62939e-06 271 4.38995 271 9.75001V68.25C271 73.6101 266.481 78 260.963 78Z" fill="white"/>
<path d="M260.963 1.56244C265.61 1.56244 269.392 5.23576 269.392 9.75001V68.25C269.392 72.7643 265.61 76.4376 260.963 76.4376H10.037C5.38989 76.4376 1.60843 72.7643 1.60843 68.25V9.75001C1.60843 5.23576 5.38989 1.56244 10.037 1.56244H260.963ZM260.963 7.62939e-06H10.037C4.51918 7.62939e-06 0 4.38995 0 9.75001V68.25C0 73.6101 4.51918 78 10.037 78H260.963C266.481 78 271 73.6101 271 68.25V9.75001C271 4.38995 266.481 7.62939e-06 260.963 7.62939e-06Z" fill="#A6A6A6"/>
<path d="M19.4417 14.7012C18.852 15.3008 18.5107 16.2343 18.5107 17.4433V60.5676C18.5107 61.7766 18.852 62.7102 19.4417 63.3098L19.5872 63.4414L44.464 39.2858V38.7154L19.5872 14.5598L19.4417 14.7012Z" fill="black"/>
<path d="M55.7582 47.3398L47.4751 39.2839V38.7135L55.7682 30.6576L55.9539 30.7624L65.7751 36.1907C68.578 37.7312 68.578 40.2662 65.7751 41.8165L55.9539 47.235L55.7582 47.3398Z" fill="black"/>
<path d="M54.4484 48.7363L45.9696 40.5L20.9473 64.8092C21.8782 65.7598 23.3963 65.8744 25.1227 64.9238L54.4484 48.7363Z" fill="black"/>
<path d="M54.4484 29.2637L25.1227 13.0763C23.3963 12.1354 21.8782 12.2499 20.9473 13.2006L45.9696 37.5L54.4484 29.2637Z" fill="black"/>
<path d="M95.1862 19.9753C95.1862 21.6035 94.6843 22.9076 93.6957 23.8802C92.559 25.0331 91.0785 25.6132 89.2643 25.6132C87.5304 25.6132 86.0499 25.0233 84.8355 23.8607C83.6185 22.6809 83.0112 21.233 83.0112 19.5C83.0112 17.7669 83.6185 16.319 84.8355 15.149C86.0499 13.9766 87.5304 13.3867 89.2643 13.3867C90.1275 13.3867 90.9505 13.5598 91.7359 13.8815C92.5188 14.2057 93.1562 14.6445 93.6179 15.1856L92.569 16.2142C91.7635 15.2904 90.667 14.8346 89.2643 14.8346C87.9996 14.8346 86.9031 15.2636 85.9722 16.1289C85.0513 16.9967 84.5896 18.1203 84.5896 19.5C84.5896 20.8796 85.0513 22.013 85.9722 22.8808C86.9031 23.7363 87.9996 24.1751 89.2643 24.1751C90.6068 24.1751 91.7359 23.7363 92.6267 22.871C93.2139 22.2982 93.5476 21.5085 93.6354 20.4993H89.2643V19.0905H95.0958C95.1661 19.3952 95.1862 19.6901 95.1862 19.9753Z" fill="black" stroke="black" stroke-width="0.16" stroke-miterlimit="10"/>
<path d="M104.438 15.0919H98.9599V18.7969H103.898V20.2058H98.9599V23.9108H104.438V25.3465H97.4092V13.6562H104.438V15.0919Z" fill="black" stroke="black" stroke-width="0.16" stroke-miterlimit="10"/>
<path d="M110.967 25.3465H109.416V15.0919H106.056V13.6562H114.329V15.0919H110.967V25.3465Z" fill="black" stroke="black" stroke-width="0.16" stroke-miterlimit="10"/>
<path d="M120.316 25.3465V13.6562H121.865V25.3465H120.316Z" fill="black" stroke="black" stroke-width="0.16" stroke-miterlimit="10"/>
<path d="M128.727 25.3465H127.189V15.0919H123.817V13.6562H132.1V15.0919H128.727V25.3465Z" fill="black" stroke="black" stroke-width="0.16" stroke-miterlimit="10"/>
<path d="M147.763 23.8412C146.576 25.0233 145.106 25.6132 143.352 25.6132C141.588 25.6132 140.117 25.0233 138.93 23.8412C137.746 22.6614 137.156 21.2135 137.156 19.5C137.156 17.7864 137.746 16.3385 138.93 15.1588C140.117 13.9766 141.588 13.3867 143.352 13.3867C145.096 13.3867 146.566 13.9766 147.753 15.1685C148.947 16.358 149.537 17.7962 149.537 19.5C149.537 21.2135 148.947 22.6614 147.763 23.8412ZM140.077 22.8613C140.97 23.7363 142.057 24.1751 143.352 24.1751C144.636 24.1751 145.733 23.7363 146.616 22.8613C147.507 21.9862 147.959 20.8625 147.959 19.5C147.959 18.1374 147.507 17.0137 146.616 16.1387C145.733 15.2636 144.636 14.8248 143.352 14.8248C142.057 14.8248 140.97 15.2636 140.077 16.1387C139.186 17.0137 138.735 18.1374 138.735 19.5C138.735 20.8625 139.186 21.9862 140.077 22.8613Z" fill="black" stroke="black" stroke-width="0.16" stroke-miterlimit="10"/>
<path d="M151.712 25.3465V13.6562H153.594L159.446 22.7481H159.514L159.446 20.5007V13.6562H160.994V25.3465H159.378L153.251 15.8061H153.183L153.251 18.0632V25.3465H151.712Z" fill="black" stroke="black" stroke-width="0.16" stroke-miterlimit="10"/>
<path d="M136.774 42.4155C132.06 42.4155 128.208 45.9011 128.208 50.7103C128.208 55.4805 132.06 59.0027 136.774 59.0027C141.499 59.0027 145.351 55.4805 145.351 50.7103C145.351 45.9011 141.499 42.4155 136.774 42.4155ZM136.774 55.7364C134.187 55.7364 131.962 53.6621 131.962 50.7103C131.962 47.7195 134.187 45.6817 136.774 45.6817C139.362 45.6817 141.597 47.7195 141.597 50.7103C141.597 53.6621 139.362 55.7364 136.774 55.7364ZM118.083 42.4155C113.358 42.4155 109.516 45.9011 109.516 50.7103C109.516 55.4805 113.358 59.0027 118.083 59.0027C122.805 59.0027 126.65 55.4805 126.65 50.7103C126.65 45.9011 122.805 42.4155 118.083 42.4155ZM118.083 55.7364C115.493 55.7364 113.26 53.6621 113.26 50.7103C113.26 47.7195 115.493 45.6817 118.083 45.6817C120.67 45.6817 122.896 47.7195 122.896 50.7103C122.896 53.6621 120.67 55.7364 118.083 55.7364ZM95.8409 44.9578V48.4824H104.505C104.252 50.4519 103.574 51.8998 102.536 52.9089C101.271 54.1277 99.3012 55.4805 95.8409 55.4805C90.5088 55.4805 86.3334 51.3002 86.3334 46.1205C86.3334 40.9408 90.5088 36.7605 95.8409 36.7605C98.7241 36.7605 100.822 37.8549 102.37 39.2735L104.927 36.7897C102.761 34.7812 99.8808 33.2383 95.8409 33.2383C88.529 33.2383 82.3838 39.0176 82.3838 46.1205C82.3838 53.2233 88.529 59.0027 95.8409 59.0027C99.793 59.0027 102.761 57.7449 105.095 55.3854C107.486 53.0625 108.232 49.7962 108.232 47.1588C108.232 46.3398 108.161 45.5867 108.036 44.9578H95.8409ZM186.792 47.6902C186.086 45.8353 183.911 42.4155 179.48 42.4155C175.088 42.4155 171.432 45.7768 171.432 50.7103C171.432 55.3562 175.051 59.0027 179.901 59.0027C183.823 59.0027 186.086 56.6797 187.017 55.3269L184.107 53.4427C183.136 54.8223 181.813 55.7364 179.901 55.7364C178.002 55.7364 176.639 54.8906 175.766 53.2233L187.185 48.6335L186.792 47.6902ZM175.149 50.4519C175.051 47.2539 177.706 45.6159 179.608 45.6159C181.098 45.6159 182.363 46.3399 182.784 47.3758L175.149 50.4519ZM165.867 58.4981H169.621V34.1231H165.867V58.4981ZM159.719 44.2631H159.594C158.751 43.293 157.142 42.4155 155.105 42.4155C150.829 42.4155 146.919 46.062 146.919 50.7371C146.919 55.3854 150.829 59.0027 155.105 59.0027C157.142 59.0027 158.751 58.1178 159.594 57.1185H159.719V58.308C159.719 61.4792 157.975 63.183 155.162 63.183C152.869 63.183 151.446 61.5742 150.859 60.2214L147.594 61.545C148.535 63.7436 151.027 66.4492 155.162 66.4492C159.564 66.4492 163.277 63.9337 163.277 57.8132V42.92H159.719V44.2631ZM155.426 55.7364C152.839 55.7364 150.673 53.6328 150.673 50.7371C150.673 47.8145 152.839 45.6817 155.426 45.6817C157.975 45.6817 159.985 47.8145 159.985 50.7371C159.985 53.6328 157.975 55.7364 155.426 55.7364ZM204.366 34.1231H195.388V58.4981H199.132V49.2624H204.366C208.524 49.2624 212.602 46.3398 212.602 41.6915C212.602 37.0457 208.514 34.1231 204.366 34.1231ZM204.464 45.8719H199.132V37.5137H204.464C207.26 37.5137 208.855 39.7684 208.855 41.6915C208.855 43.5782 207.26 45.8719 204.464 45.8719ZM227.607 42.3692C224.902 42.3692 222.089 43.5294 220.932 46.101L224.255 47.4538C224.97 46.101 226.285 45.6622 227.675 45.6622C229.617 45.6622 231.587 46.7957 231.617 48.7969V49.0528C230.939 48.6725 229.489 48.1095 227.705 48.1095C224.127 48.1095 220.481 50.0229 220.481 53.5938C220.481 56.8601 223.412 58.9637 226.706 58.9637C229.226 58.9637 230.616 57.8595 231.489 56.5749H231.617V58.4591H235.233V49.1089C235.233 44.7872 231.911 42.3692 227.607 42.3692ZM227.155 55.7267C225.931 55.7267 224.225 55.1368 224.225 53.6621C224.225 51.7755 226.353 51.0515 228.194 51.0515C229.843 51.0515 230.616 51.405 231.617 51.8705C231.323 54.1277 229.323 55.7267 227.155 55.7267ZM248.406 42.903L244.103 53.4695H243.975L239.526 42.903H235.489L242.173 57.6693L238.359 65.8862H242.271L252.572 42.903H248.406ZM214.659 58.4981H218.413V34.1231H214.659V58.4981Z" fill="black"/>
</svg>
