<svg width="37" height="35" viewBox="0 0 37 35" fill="none" xmlns="http://www.w3.org/2000/svg">
<rect y="0.444153" width="36.2888" height="34.3788" rx="17.1894" fill="white"/>
<g clip-path="url(#clip0_137_10141)">
<path d="M23.6845 16.5904L18.7898 16.5901C18.5736 16.5901 18.3984 16.7653 18.3984 16.9814V18.5451C18.3984 18.7612 18.5736 18.9364 18.7897 18.9364H21.5461C21.2443 19.7197 20.681 20.3757 19.9622 20.7925L21.1376 22.8271C23.0229 21.7367 24.1376 19.8235 24.1376 17.6818C24.1376 17.3769 24.1151 17.1589 24.0701 16.9134C24.036 16.7269 23.874 16.5904 23.6845 16.5904Z" fill="#167EE6"/>
<path d="M18.1388 21.2856C16.7899 21.2856 15.6123 20.5486 14.9798 19.458L12.9453 20.6307C13.9807 22.4251 15.9202 23.6335 18.1388 23.6335C19.2272 23.6335 20.2541 23.3404 21.1388 22.8298V22.827L19.9635 20.7924C19.4259 21.1042 18.8038 21.2856 18.1388 21.2856Z" fill="#12B347"/>
<path d="M21.1406 22.8298V22.8271L19.9653 20.7924C19.4277 21.1042 18.8056 21.2857 18.1406 21.2857V23.6336C19.229 23.6336 20.256 23.3405 21.1406 22.8298Z" fill="#0F993E"/>
<path d="M14.4885 17.6335C14.4885 16.9686 14.6699 16.3465 14.9816 15.8089L12.9471 14.6363C12.4336 15.5181 12.1406 16.5423 12.1406 17.6335C12.1406 18.7246 12.4336 19.7488 12.9471 20.6307L14.9816 19.458C14.6699 18.9204 14.4885 18.2984 14.4885 17.6335Z" fill="#FFD500"/>
<path d="M18.1388 13.9814C19.0184 13.9814 19.8264 14.2939 20.4575 14.8138C20.6132 14.9421 20.8395 14.9328 20.9821 14.7902L22.09 13.6823C22.2518 13.5205 22.2403 13.2557 22.0674 13.1057C21.0101 12.1884 19.6343 11.6335 18.1388 11.6335C15.9202 11.6335 13.9807 12.8419 12.9453 14.6363L14.9798 15.809C15.6123 14.7184 16.7899 13.9814 18.1388 13.9814Z" fill="#FF4B26"/>
<path d="M20.4593 14.8138C20.615 14.9421 20.8414 14.9328 20.9839 14.7902L22.0918 13.6823C22.2536 13.5205 22.2421 13.2557 22.0693 13.1057C21.0119 12.1884 19.6361 11.6335 18.1406 11.6335V13.9814C19.0202 13.9814 19.8282 14.2939 20.4593 14.8138Z" fill="#D93F21"/>
</g>
<defs>
<clipPath id="clip0_137_10141">
<rect width="12" height="12" fill="white" transform="translate(12.1406 11.6335)"/>
</clipPath>
</defs>
</svg>
