<svg width="22" height="16" viewBox="0 0 22 16" fill="none" xmlns="http://www.w3.org/2000/svg">
<path d="M13.4445 14.9997V13.4441C13.4445 12.619 13.1167 11.8277 12.5332 11.2442C11.9498 10.6608 11.1585 10.333 10.3334 10.333H4.11112C3.286 10.333 2.49467 10.6608 1.91123 11.2442C1.32778 11.8277 1 12.619 1 13.4441V14.9997" stroke="#06726A" stroke-width="1.5" stroke-linecap="round" stroke-linejoin="round"/>
<path d="M7.22245 7.22223C8.94067 7.22223 10.3336 5.82934 10.3336 4.11112C10.3336 2.39289 8.94067 1 7.22245 1C5.50422 1 4.11133 2.39289 4.11133 4.11112C4.11133 5.82934 5.50422 7.22223 7.22245 7.22223Z" stroke="#06726A" stroke-width="1.5" stroke-linecap="round" stroke-linejoin="round"/>
<path d="M18.1107 15.0001V13.4446C18.1102 12.7553 17.8807 12.0856 17.4584 11.5408C17.0361 10.996 16.4448 10.6069 15.7773 10.4346" stroke="#06726A" stroke-width="1.5" stroke-linecap="round" stroke-linejoin="round"/>
<path d="M21.2235 11.8885V10.8285C21.2232 10.3587 21.0702 9.90242 20.7887 9.53117C20.5071 9.15993 20.1129 8.89478 19.668 8.77734" stroke="#06726A" stroke-width="1.5" stroke-linecap="round" stroke-linejoin="round"/>
<path d="M12.666 1.10156C13.3352 1.27291 13.9284 1.66211 14.352 2.20781C14.7755 2.7535 15.0055 3.42466 15.0055 4.11546C15.0055 4.80626 14.7755 5.47741 14.352 6.02311C13.9284 6.5688 13.3352 6.95801 12.666 7.12935" stroke="#06726A" stroke-width="1.5" stroke-linecap="round" stroke-linejoin="round"/>
<path d="M17.334 1.77734C17.779 1.91 18.1734 2.21132 18.455 2.63379C18.7367 3.05627 18.8895 3.57587 18.8895 4.11068C18.8895 4.64549 18.7367 5.1651 18.455 5.58757C18.1734 6.01005 17.779 6.31136 17.334 6.44402" stroke="#06726A" stroke-width="1.5" stroke-linecap="round" stroke-linejoin="round"/>
</svg>
