<svg width="40" height="40" viewBox="0 0 40 40" fill="none" xmlns="http://www.w3.org/2000/svg">
<circle cx="20" cy="20" r="19.2" stroke="#A87C51" stroke-width="1.6"/>
<path d="M28.3807 15.5029C27.8676 15.0265 27.2583 14.6485 26.5878 14.3906C25.9172 14.1327 25.1985 14 24.4727 14C23.7468 14 23.0281 14.1327 22.3576 14.3906C21.687 14.6485 21.0778 15.0265 20.5646 15.5029L19.4997 16.4913L18.4348 15.5029C17.3983 14.5409 15.9926 14.0005 14.5268 14.0005C13.061 14.0005 11.6552 14.5409 10.6188 15.5029C9.58229 16.4649 9 17.7696 9 19.1301C9 20.4906 9.58229 21.7953 10.6188 22.7573L11.6837 23.7457L19.4997 31L27.3158 23.7457L28.3807 22.7573C28.8941 22.281 29.3013 21.7156 29.5791 21.0932C29.857 20.4708 30 19.8038 30 19.1301C30 18.4564 29.857 17.7894 29.5791 17.167C29.3013 16.5446 28.8941 15.9792 28.3807 15.5029V15.5029Z" stroke="#A87C51" stroke-width="1.6" stroke-linecap="round" stroke-linejoin="round"/>
</svg>
