<svg width="385" height="266" viewBox="0 0 385 266" fill="none" xmlns="http://www.w3.org/2000/svg">
<path d="M89.3478 0C61.5706 4.87066 53.8518 10.0683 49 22.1411L65 232H360.652C379.037 225.206 384.678 215.085 385 183.867C375.873 121.223 364.735 85.5141 348.13 22.1411C339.758 13.3556 337.938 7.48938 305 6.73859L89.3478 0Z" fill="#333333"/>
<path d="M0 207.452L33.2707 34.1144C41.2326 21.0383 48.3272 15.0466 71.8647 8.29809C146.248 3.46353 206.498 2.43181 307.421 0C333.432 5.41288 349.032 8.31056 361.985 34.1144C365.074 104.032 368.325 153.932 367.974 199.615C366.911 219.913 360.39 227.99 337.365 236.035C197.831 253.769 121.473 263.331 55.8948 266C16.349 257.47 0.290143 245.704 0 207.452Z" fill="white"/>
</svg>
