<svg width="50" height="54" viewBox="0 0 50 54" fill="none" xmlns="http://www.w3.org/2000/svg">
<path d="M1.44168 2.70116C0.852 3.30078 0.510742 4.23434 0.510742 5.44334V48.5676C0.510742 49.7766 0.852 50.7102 1.44168 51.3098L1.58721 51.4414L26.464 27.2858V26.7154L1.58721 2.55978L1.44168 2.70116Z" fill="black"/>
<path d="M37.7582 35.3398L29.4751 27.2839V26.7135L37.7682 18.6576L37.9539 18.7624L47.7751 24.1907C50.578 25.7312 50.578 28.2662 47.7751 29.8165L37.9539 35.235L37.7582 35.3398Z" fill="black"/>
<path d="M36.4484 36.7363L27.9696 28.5L2.94727 52.8092C3.8782 53.7598 5.3963 53.8744 7.12267 52.9238L36.4484 36.7363Z" fill="black"/>
<path d="M36.4484 17.2637L7.12267 1.07626C5.3963 0.135379 3.8782 0.249939 2.94727 1.20056L27.9696 25.5L36.4484 17.2637Z" fill="black"/>
</svg>
