<svg width="17" height="14" viewBox="0 0 17 14" fill="none" xmlns="http://www.w3.org/2000/svg">
<path d="M16.25 7H11.75L10.25 9.25H7.25L5.75 7H1.25" stroke="#A87C51" stroke-width="1.4" stroke-linecap="round" stroke-linejoin="round"/>
<path d="M3.8375 1.8325L1.25 7V11.5C1.25 11.8978 1.40804 12.2794 1.68934 12.5607C1.97064 12.842 2.35218 13 2.75 13H14.75C15.1478 13 15.5294 12.842 15.8107 12.5607C16.092 12.2794 16.25 11.8978 16.25 11.5V7L13.6625 1.8325C13.5383 1.58259 13.3469 1.37228 13.1097 1.22521C12.8726 1.07814 12.5991 1.00015 12.32 1H5.18C4.90094 1.00015 4.62745 1.07814 4.39028 1.22521C4.15312 1.37228 3.96168 1.58259 3.8375 1.8325V1.8325Z" stroke="#A87C51" stroke-width="1.4" stroke-linecap="round" stroke-linejoin="round"/>
</svg>
