<svg width="54" height="43" viewBox="0 0 54 43" fill="none" xmlns="http://www.w3.org/2000/svg">
<path d="M0.861702 42.2329C2.48974 42.2329 4.0562 41.586 5.21939 40.4652C5.87612 41.0981 6.66107 41.5797 7.51266 41.8792C7.55403 41.8968 7.59734 41.9103 7.64169 41.9213C8.26016 42.124 8.91138 42.2329 9.57317 42.2329C10.236 42.2329 10.888 42.1244 11.5072 41.922C11.55 41.9112 11.592 41.8983 11.6319 41.8814C12.4873 41.5822 13.2754 41.1002 13.934 40.466C15.0946 41.5863 16.6598 42.2329 18.2888 42.2329C19.9404 42.2329 21.4813 41.5998 22.6469 40.4675C23.3025 41.0999 24.0872 41.581 24.9395 41.8801C24.9813 41.8979 25.0251 41.9116 25.07 41.9227C25.6879 42.1246 26.3386 42.2329 27.0003 42.2329C27.661 42.2329 28.3109 42.1247 28.9285 41.9232C28.9743 41.9119 29.0191 41.8979 29.0618 41.8796C29.9137 41.5805 30.6988 41.0996 31.3555 40.4674C32.5186 41.5998 34.0587 42.2329 35.7117 42.2329C37.3396 42.2329 38.9061 41.586 40.0693 40.4652C41.2324 41.586 42.7988 42.2329 44.4269 42.2329C46.0559 42.2329 47.621 41.5864 48.7816 40.4661C49.9448 41.5863 51.5108 42.2329 53.1383 42.2329C53.6142 42.2329 54 41.8472 54 41.3712C54 40.8952 53.6142 40.5095 53.1383 40.5095C51.6821 40.5095 50.3464 39.8321 49.4737 38.6512C49.3112 38.4313 49.0541 38.3016 48.7806 38.3016C48.5061 38.3019 48.2489 38.4321 48.0867 38.6525C47.2308 39.8153 45.8627 40.5095 44.4269 40.5095C42.992 40.5095 41.6222 39.8149 40.7623 38.6512C40.5998 38.4313 40.3427 38.3016 40.0693 38.3016C39.7958 38.3016 39.5387 38.4313 39.3762 38.6512C38.5164 39.8148 37.1465 40.5095 35.7117 40.5095C34.2583 40.5095 32.9239 39.8321 32.0508 38.6511C31.8883 38.4313 31.6311 38.3016 31.3578 38.3016C31.0845 38.3016 30.8273 38.4313 30.6649 38.6512C30.3621 39.061 29.9952 39.411 29.5853 39.6946V11.6851C29.5853 8.30611 32.3344 5.55693 35.7135 5.55693C39.0927 5.55693 41.8417 8.30611 41.8417 11.6851C41.8417 13.1105 43.0014 14.2702 44.4268 14.2702C45.8523 14.2702 47.0119 13.1105 47.0119 11.6851C47.0119 5.45514 41.9435 0.386719 35.7135 0.386719C29.4835 0.386719 24.4151 5.45514 24.4151 11.6851V21.0676H12.1583V11.6851C12.1583 8.30611 14.9073 5.55693 18.2865 5.55693C19.7611 5.55693 21.188 6.09234 22.3043 7.06457C22.6631 7.37742 23.2075 7.33985 23.5201 6.98081C23.8326 6.622 23.7952 6.07763 23.4362 5.76512C22.0061 4.51956 20.1773 3.83353 18.2866 3.83353C13.9572 3.83353 10.435 7.35571 10.435 11.6851V21.0676H8.71158V11.6851C8.71158 6.40542 13.0069 2.11012 18.2866 2.11012C20.3946 2.11012 22.396 2.7857 24.0741 4.06366C24.4525 4.35204 24.9933 4.27874 25.2818 3.90017C25.57 3.52159 25.497 2.9809 25.1183 2.69252C23.1375 1.18397 20.7751 0.386719 18.2866 0.386719C12.0566 0.386719 6.98817 5.45514 6.98817 11.6851V39.6921C6.58007 39.4089 6.21437 39.0597 5.91231 38.651C5.74974 38.4312 5.49272 38.3016 5.21927 38.3016C4.94583 38.3016 4.68881 38.4315 4.52635 38.6512C3.65362 39.8321 2.31798 40.5095 0.861702 40.5095C0.385813 40.5095 0 40.8952 0 41.3712C0 41.8472 0.385813 42.2329 0.861702 42.2329ZM23.3403 38.6525C23.1782 38.4324 22.9214 38.3022 22.6481 38.3016C22.3736 38.3016 22.1169 38.4308 21.9543 38.6498C21.0773 39.8318 19.7412 40.5095 18.2888 40.5095C16.8531 40.5095 15.4848 39.8153 14.6289 38.6525C14.4667 38.4321 14.2095 38.3019 13.9358 38.3016C13.6617 38.3016 13.4044 38.4313 13.2419 38.6512C12.9383 39.0622 12.5699 39.4132 12.1583 39.6972V34.8549H24.4151V39.6943C24.0067 39.4109 23.6413 39.0614 23.3403 38.6525ZM24.4151 26.2378V29.6846H12.1583V26.2378H24.4151ZM10.4349 29.6846H8.71146V26.2378H10.4349V29.6846ZM8.71146 31.408H24.4151V33.1314H8.71146V31.408ZM26.1385 11.6851C26.1385 6.40542 30.4338 2.11012 35.7135 2.11012C40.9932 2.11012 45.2885 6.40542 45.2885 11.6851C45.2885 12.1603 44.9019 12.5468 44.4268 12.5468C43.9516 12.5468 43.5651 12.1603 43.5651 11.6851C43.5651 7.35571 40.043 3.83353 35.7135 3.83353C31.3841 3.83353 27.8619 7.35571 27.8619 11.6851V40.4242C27.5798 40.4794 27.2915 40.5095 27.0002 40.5095C26.7089 40.5095 26.4206 40.4795 26.1385 40.4242V11.6851ZM24.4151 22.791V24.5144H8.71146V22.791H24.4151ZM8.71146 34.8548H10.4349V40.4244C10.1527 40.4795 9.86442 40.5095 9.57317 40.5095C9.28191 40.5095 8.99364 40.4793 8.71146 40.4238V34.8548Z" fill="#DFDFDF"/>
</svg>
