<svg width="18" height="18" viewBox="0 0 18 18" fill="none" xmlns="http://www.w3.org/2000/svg">
<path fill-rule="evenodd" clip-rule="evenodd" d="M0.533077 5.89817L6.20525 5.88145C6.86607 7.00099 9.01684 7.70558 10.6745 6.82603C11.0976 6.60147 11.6108 6.19964 11.7894 5.88372L17.4619 5.88094C17.4758 6.77257 17.5062 16.8532 17.4447 17.1109C17.3489 17.5123 16.9772 17.4546 16.5352 17.4538H1.5066C1.0679 17.4543 0.675282 17.5224 0.559701 17.147C0.480174 16.8886 0.518157 6.79036 0.533162 5.89817H0.533077ZM0.532948 5.33621C0.523645 4.74018 0.515157 4.10186 0.529304 3.50762C0.546539 2.78644 1.14785 2.95617 1.78741 2.95617C2.99385 2.95617 4.20029 2.95617 5.40673 2.95617C5.44514 3.4182 5.34156 3.78736 5.44257 4.30212C5.52767 4.7358 5.68719 4.98313 5.7921 5.35349L0.532906 5.33621H0.532948ZM17.4653 3.50724C17.4808 4.09976 17.4711 4.74155 17.4619 5.35225L12.2027 5.35088C12.3106 4.97078 12.4768 4.71827 12.5589 4.26495C12.6466 3.78144 12.5848 3.43762 12.5719 2.96732C13.0195 2.92342 15.5428 2.95617 16.2074 2.95617C16.8505 2.95617 17.4464 2.78691 17.4654 3.50728L17.4653 3.50724ZM7.24779 0.492058C7.12398 1.19142 7.88229 0.707744 8.2193 0.624102C8.74332 0.494116 9.17237 0.489185 9.70042 0.607467C10.5764 0.803732 11.2631 1.38622 11.6324 1.99873C12.7461 3.84622 11.7071 5.76849 10.2812 6.43055C8.30457 7.34829 6.49656 6.00342 6.03295 4.5061C5.42829 2.55331 6.89063 1.7012 6.66371 1.30464C6.32122 0.706115 5.66541 2.20082 5.57594 2.4268C4.37379 2.49123 3.00757 2.43361 1.78741 2.43361C0.00580283 2.43361 0.00863278 2.60484 0.00863278 4.39909V15.729C0.00863278 17.3638 -0.20611 17.9769 1.50647 17.976H16.535C17.251 17.9766 17.6552 17.9311 17.8938 17.4171C18.0529 17.0745 17.9861 16.0731 17.9861 15.6354V4.35223C17.9861 2.52819 17.9233 2.43357 16.1605 2.43357C14.9599 2.43357 13.6005 2.49299 12.4194 2.42641C11.0653 -0.803513 7.73057 -0.0681411 7.24779 0.492015V0.492058Z" fill="white"/>
<path fill-rule="evenodd" clip-rule="evenodd" d="M3.11952 13.2951C3.5018 13.1689 12.6711 13.2452 14.3817 13.247C15.9473 13.2487 15.7605 14.8993 14.9011 15.1726C14.5412 15.2871 4.86824 15.2198 3.61288 15.2217C2.99772 15.2227 2.5979 15.0225 2.47988 14.4794C2.34642 13.8651 2.66534 13.445 3.11947 13.2951L3.11952 13.2951ZM1.98686 14.6053C2.2957 16.013 3.69031 15.7438 5.11153 15.7438H13.6324C14.3135 15.7438 15.0559 15.8205 15.5036 15.4458C15.8862 15.1257 16.1494 14.5499 16.0078 13.8675C15.714 12.4524 14.2988 12.7177 12.8833 12.7177H4.36244C3.66861 12.7177 2.96342 12.6447 2.4954 13.0195C2.10634 13.3312 1.83891 13.931 1.98686 14.6053Z" fill="white"/>
<path fill-rule="evenodd" clip-rule="evenodd" d="M12.4669 11.7105C12.6236 11.3001 12.4413 11.2421 12.0428 11.2441L3.5186 11.2466C2.9304 11.2394 2.53247 10.9601 2.46551 10.4246C2.2842 8.97447 3.90667 9.2723 5.01789 9.2723C7.54601 9.2723 10.0742 9.2723 12.6024 9.2723C13.239 9.2723 13.8892 9.25914 14.524 9.27161C15.0993 9.28297 15.475 9.57823 15.5319 10.1199C15.593 10.7009 15.2665 11.1371 14.7937 11.2241C14.2605 11.3221 13.2063 10.9811 13.4819 11.7145C13.931 11.8636 15.0003 11.7933 15.368 11.5664C15.7617 11.3234 16.0783 10.8285 16.0419 10.156C15.951 8.47969 14.3144 8.74995 13.3047 8.74995C10.5424 8.74995 7.78013 8.74995 5.01789 8.74995C3.59212 8.74995 2.27764 8.52205 1.98792 9.88866C1.83941 10.5891 2.1092 11.1315 2.46516 11.4465C2.92247 11.851 3.52747 11.7692 4.22198 11.7692C5.26457 11.7692 12.0839 11.8556 12.467 11.7105L12.4669 11.7105Z" fill="white"/>
<path fill-rule="evenodd" clip-rule="evenodd" d="M9.89662 5.07104C9.75467 5.1134 8.40183 5.13329 8.19849 5.0996C7.99922 5.06654 8.04106 5.08103 8.03553 4.82672C8.03266 4.69232 8.04081 4.53725 8.04098 4.39912C8.04128 4.13178 8.00192 3.82872 8.07523 3.55987L9.91964 3.57376C9.95857 3.70881 10.0095 4.88755 9.89662 5.07104ZM8.58656 2.57323C8.58656 2.23922 8.66591 2.02834 8.99765 2.02474C9.48124 2.01942 9.43798 2.57272 9.39516 3.02214L8.59633 3.01927L8.58656 2.57323ZM8.06404 2.9478C7.94057 3.19255 7.56164 3.07954 7.51576 3.60832C7.48614 3.94953 7.51268 4.41923 7.51186 4.77476C7.50955 5.79351 8.10447 5.61817 8.99752 5.61817C9.94416 5.61817 10.4867 5.79518 10.4829 4.72743C10.4817 4.40015 10.5143 3.86653 10.4746 3.56455C10.4113 3.08413 10.0486 3.18102 9.93096 2.9478C9.93096 2.53409 9.98176 2.20651 9.77259 1.89119C9.63652 1.68606 9.37989 1.47869 8.99748 1.47852C8.00377 1.47813 8.064 2.4682 8.064 2.9478H8.06404Z" fill="white"/>
<path fill-rule="evenodd" clip-rule="evenodd" d="M13.8924 10.4612C14.0576 10.323 14.0142 10.076 13.8143 10.0164C13.7051 9.98389 13.303 10.0002 13.1641 10.0003C11.5943 10.0017 4.47004 9.92748 4.0673 10.0497C3.85145 10.6245 4.39403 10.5237 4.83045 10.5234C6.19878 10.5223 13.7458 10.5838 13.8924 10.4612V10.4612Z" fill="white"/>
<path fill-rule="evenodd" clip-rule="evenodd" d="M4.0309 14.3856C4.30318 14.5663 4.58608 14.4879 4.49961 14.1475C4.44714 13.9407 3.96316 13.782 4.0309 14.3856Z" fill="white"/>
<path fill-rule="evenodd" clip-rule="evenodd" d="M7.12513 14.4583C7.32508 14.1367 7.11128 13.8411 6.82473 14.0184C6.64694 14.1284 6.63086 14.5632 7.12513 14.4583Z" fill="white"/>
<path fill-rule="evenodd" clip-rule="evenodd" d="M9.51297 14.4566C10.0247 14.5705 9.97752 14.1125 9.81483 14.016C9.52544 13.8443 9.31919 14.1409 9.51297 14.4566Z" fill="white"/>
<path fill-rule="evenodd" clip-rule="evenodd" d="M8.48131 14.4563C8.67401 14.1414 8.4699 13.8443 8.17992 14.0159C8.01722 14.1122 7.96899 14.5719 8.48131 14.4563Z" fill="white"/>
<path fill-rule="evenodd" clip-rule="evenodd" d="M5.76735 14.0003C5.27836 13.9147 5.28865 14.3404 5.49306 14.4597C5.74501 14.6067 5.98689 14.3277 5.76735 14.0003Z" fill="white"/>
<path fill-rule="evenodd" clip-rule="evenodd" d="M12.2272 14.0003C12.0067 14.3285 12.2501 14.607 12.5014 14.4594C12.7059 14.3393 12.7151 13.9148 12.2272 14.0003Z" fill="white"/>
<path fill-rule="evenodd" clip-rule="evenodd" d="M13.9635 14.385L13.9457 14.0244C13.2608 13.7859 13.369 14.7825 13.9635 14.385Z" fill="white"/>
<path fill-rule="evenodd" clip-rule="evenodd" d="M10.869 14.4584C11.4373 14.577 11.4245 13.8879 10.8751 14.004C10.7548 14.1868 10.7518 14.2701 10.869 14.4584Z" fill="white"/>
<path fill-rule="evenodd" clip-rule="evenodd" d="M8.7818 4.47957C8.95911 4.61629 9.03585 4.61556 9.2124 4.47888C9.34251 3.91088 8.65245 3.90895 8.7818 4.47957Z" fill="white"/>
</svg>
