<svg width="14" height="16" viewBox="0 0 14 16" fill="none" xmlns="http://www.w3.org/2000/svg">
<path d="M7.77875 15.2C7.77875 15.6424 7.43026 16 7.00088 16H3.88938C1.74477 16 0 14.2056 0 12V4C0 1.7944 1.74477 0 3.88938 0H7.00088C7.43026 0 7.77875 0.3576 7.77875 0.8C7.77875 1.2424 7.43026 1.6 7.00088 1.6H3.88938C2.60277 1.6 1.55575 2.6768 1.55575 4V12C1.55575 13.3232 2.60277 14.4 3.88938 14.4H7.00088C7.43026 14.4 7.77875 14.7576 7.77875 15.2ZM13.9411 8.30557C14.0196 8.11037 14.0196 7.88963 13.9411 7.69443C13.9014 7.59603 13.8446 7.50799 13.7723 7.43359L10.6616 4.23438C10.3574 3.92158 9.86578 3.92158 9.56164 4.23438C9.25749 4.54717 9.25749 5.05283 9.56164 5.36562L11.3453 7.2H5.44434C5.01496 7.2 4.66647 7.5576 4.66647 8C4.66647 8.4424 5.01496 8.8 5.44434 8.8H11.3453L9.56164 10.6344C9.25749 10.9472 9.25749 11.4528 9.56164 11.7656C9.71332 11.9216 9.91246 12 10.1116 12C10.3107 12 10.5099 11.9216 10.6616 11.7656L13.7723 8.56641C13.8446 8.49201 13.9022 8.40397 13.9411 8.30557Z" fill="white"/>
</svg>
