<svg width="179" height="56" viewBox="0 0 179 56" fill="none" xmlns="http://www.w3.org/2000/svg">
<path d="M69.9475 15.8811C68.8368 15.8811 67.9008 15.5217 67.1394 14.8027C66.7731 14.4715 66.4817 14.0665 66.2846 13.6147C66.0875 13.163 65.9893 12.6747 65.9965 12.1822C65.9965 11.1041 66.3775 10.2118 67.1394 9.50519C67.9014 8.7986 68.8375 8.44531 69.9475 8.44531C71.0582 8.44531 71.988 8.7986 72.7369 9.50519C73.4859 10.2118 73.8588 11.1041 73.8557 12.1822C73.8638 12.6726 73.7685 13.1591 73.5758 13.6105C73.383 14.0619 73.0973 14.468 72.7369 14.8027C71.9874 15.5223 71.0576 15.8818 69.9475 15.8811ZM66.4225 38.8831V19.0023H66.4486C68.3013 19.0023 70.0782 19.7344 71.3882 21.0374C72.6983 22.3404 73.4343 24.1077 73.4343 25.9504V38.8831H66.4225Z" fill="white"/>
<path d="M78.1602 38.883V19.0022H84.978L85.0554 21.4298C85.5818 20.469 86.3824 19.6846 87.3563 19.1756C88.3507 18.6489 89.4937 18.3856 90.7853 18.3856C93.5479 18.3856 95.4977 19.4773 96.6345 21.6607C97.2067 20.6271 98.0769 19.7875 99.133 19.2498C100.231 18.6724 101.477 18.3834 102.871 18.3828C105.171 18.3828 106.914 19.0956 108.101 20.5211C109.287 21.9466 109.881 24.0336 109.882 26.7821V38.883H109.592C107.82 38.883 106.12 38.1827 104.867 36.9362C103.614 35.6897 102.91 33.9991 102.91 32.2363V28.0951C102.91 25.7584 102.045 24.5897 100.314 24.5891C98.4291 24.5891 97.4866 25.8477 97.4866 28.3649V38.883H90.5177V28.0951C90.5177 25.7584 89.6525 24.5897 87.9222 24.5891C86.062 24.5891 85.1321 25.8477 85.1328 28.3649V38.883H78.1602Z" fill="white"/>
<path d="M114.418 48.3238V19.0034H120.965L121.042 21.6229C122.333 19.4648 124.399 18.3861 127.24 18.3867C128.97 18.3867 130.493 18.8296 131.808 19.7155C133.123 20.6014 134.163 21.8346 134.927 23.4153C135.687 24.9942 136.068 26.8113 136.07 28.8668C136.07 30.8709 135.669 32.6754 134.868 34.2802C134.067 35.885 132.991 37.1563 131.64 38.0941C130.283 39.0325 128.739 39.5017 127.008 39.5017C124.58 39.5017 122.721 38.6282 121.43 36.8812V41.8143C121.43 42.6693 121.261 43.516 120.932 44.3059C120.603 45.0958 120.121 45.8136 119.513 46.4181C118.905 47.0227 118.183 47.5023 117.389 47.8294C116.595 48.1565 115.744 48.3249 114.884 48.3247L114.418 48.3238ZM125.071 33.3019C126.259 33.3019 127.227 32.8912 127.976 32.0696C128.725 31.248 129.098 30.2076 129.095 28.9484C129.095 27.6644 128.722 26.6178 127.976 25.8086C127.23 24.9994 126.262 24.5948 125.071 24.5948C123.883 24.5948 122.914 24.9994 122.165 25.8086C121.416 26.6178 121.043 27.6644 121.047 28.9484C121.047 30.2076 121.419 31.248 122.165 32.0696C122.911 32.8912 123.88 33.3004 125.071 33.2973V33.3019Z" fill="white"/>
<path d="M139.867 38.8842V7.67578C140.788 7.67578 141.7 7.8562 142.551 8.20674C143.401 8.55727 144.174 9.07106 144.826 9.71876C145.477 10.3665 145.993 11.1354 146.345 11.9816C146.698 12.8278 146.879 13.7348 146.879 14.6507V38.8842H139.867Z" fill="white"/>
<path d="M162.723 39.5026C160.217 39.5026 158.068 39.0789 156.273 38.2313C154.479 37.3838 153.097 36.1694 152.128 34.5881C151.16 33.0092 150.676 31.1278 150.676 28.9437C150.676 26.8629 151.115 25.0263 151.993 23.4339C152.84 21.8723 154.116 20.5826 155.673 19.7155C157.248 18.8296 159.069 18.3867 161.135 18.3867C163.149 18.3867 164.892 18.7913 166.364 19.6005C167.811 20.3845 168.991 21.5788 169.754 23.0314C170.542 24.5083 170.936 26.2741 170.935 28.329C170.935 28.6887 170.923 29.0485 170.897 29.4083V29.4185C170.872 29.7209 170.734 30.0028 170.509 30.208C170.284 30.4133 169.99 30.5267 169.685 30.5257H157.494C157.804 31.861 158.469 32.8306 159.489 33.4345C160.508 34.0385 161.896 34.3402 163.653 34.3396C164.78 34.3351 165.903 34.2127 167.004 33.9742L167.038 33.9668C167.421 33.8807 167.819 33.8753 168.205 33.9509C168.59 34.0265 168.956 34.1814 169.278 34.4058C169.601 34.6301 169.872 34.9189 170.076 35.2537C170.279 35.5885 170.41 35.9619 170.46 36.3499L170.664 37.9986C169.481 38.5176 168.239 38.8928 166.965 39.116C165.566 39.3748 164.146 39.5043 162.723 39.5026ZM161.019 23.1269C159.004 23.1269 157.79 24.3343 157.377 26.7489H164.428C164.432 26.5024 164.406 26.2564 164.35 26.0163C164.169 25.1175 163.796 24.4112 163.231 23.8975C162.666 23.3838 161.929 23.1269 161.019 23.1269Z" fill="white"/>
<path d="M23.2809 16.1253C23.3247 16.1754 23.363 16.2283 23.404 16.2802C24.0722 16.0456 24.6959 15.7008 25.249 15.2602C26.5216 14.2708 27.0203 13.2795 27.3317 12.419C27.2581 12.3263 27.1882 12.2336 27.1117 12.1501C26.1986 11.067 25.0776 10.1758 23.8143 9.5285C22.551 8.88122 21.1706 8.49088 19.7538 8.38027C18.3371 8.26967 16.9124 8.44102 15.5629 8.88432C14.2135 9.32762 12.9665 10.034 11.8947 10.9621C10.8229 11.8903 9.94779 13.0216 9.32058 14.2899C8.69338 15.5583 8.32662 16.9382 8.24175 18.3492C8.15687 19.7601 8.35558 21.1737 8.82626 22.5074C9.29695 23.8411 10.0302 25.0681 10.9831 26.1167C11.0959 26.2456 11.2143 26.368 11.3317 26.4876C12.0244 26.3235 12.7982 26.0045 13.6625 25.335C14.7122 24.519 15.2231 23.7021 15.542 22.9603C15.5196 22.9362 15.4954 22.9148 15.4739 22.8898C15.0245 22.3799 14.6807 21.7867 14.4622 21.1444C14.2437 20.502 14.1549 19.823 14.2009 19.1465C14.2468 18.4699 14.4266 17.809 14.7299 17.2017C15.0332 16.5943 15.4541 16.0526 15.9684 15.6074C16.4827 15.1622 17.0803 14.8224 17.7269 14.6074C18.3735 14.3924 19.0564 14.3065 19.7365 14.3546C20.4166 14.4028 21.0804 14.584 21.6899 14.8878C22.2994 15.1917 22.8426 15.6122 23.2884 16.1253H23.2809Z" fill="white"/>
<path d="M24.0741 20.0307L24.0247 19.9844L23.9492 20.0502L24.0741 20.0307Z" fill="white"/>
<path d="M25.7246 21.8828C25.1324 22.0494 24.527 22.1654 23.915 22.2296C22.9566 22.2982 22.2005 22.352 21.1181 23.1912C20.0357 24.0304 19.8036 24.7472 19.5053 25.655C19.1762 26.6574 18.766 27.9055 17.1652 29.1508C15.5645 30.3961 14.2471 30.4889 13.189 30.5649C12.2315 30.6326 11.4754 30.6873 10.3921 31.5255C9.3088 32.3638 9.07666 33.0824 8.77926 33.9902C8.60431 34.5829 8.36255 35.1541 8.05859 35.6927C9.95204 37.8617 12.6117 39.2232 15.4868 39.4952C18.3618 39.7672 21.2319 38.9289 23.5025 37.1538C25.7731 35.3788 27.2703 32.8032 27.684 29.9603C28.0977 27.1175 27.3961 24.2253 25.7246 21.8828Z" fill="white"/>
<path d="M36.7883 38.8847L30.3555 19.0039H37.715L40.3496 31.179L43.9129 19.0039H49.6465L53.4427 31.218L54.8654 24.422C55.1858 22.8909 56.0266 21.5163 57.2464 20.5295C58.4663 19.5427 59.9906 19.0039 61.563 19.0039H63.3595L58.6412 33.5881C58.1437 35.1264 57.1682 36.4681 55.8553 37.4199C54.5423 38.3717 52.9595 38.8846 51.3348 38.8847H50.6524L46.6668 27.4032L44.4825 34.0081C44.0133 35.4268 43.1059 36.662 41.8895 37.5376C40.6732 38.4133 39.21 38.8847 37.7085 38.8847H36.7883Z" fill="white"/>
</svg>
