<svg width="60" height="52" viewBox="0 0 60 52" fill="none" xmlns="http://www.w3.org/2000/svg">
<path d="M48.2292 51.654C47.9471 51.654 47.668 51.5556 47.4441 51.3658L35.2831 41.0563H8.34061C3.74155 41.0562 0 37.2938 0 32.6692V8.73077C0 4.10612 3.74155 0.34375 8.34061 0.34375H51.6594C56.2584 0.34375 60 4.10624 60 8.73077V32.6692C60 37.2938 56.2584 41.0562 51.6594 41.0562H49.4466V50.4296C49.4466 50.906 49.172 51.3391 48.7423 51.5398C48.5783 51.6164 48.4032 51.654 48.2292 51.654ZM8.34061 2.79273C5.08445 2.79273 2.43539 5.45648 2.43539 8.73077V32.6692C2.43539 35.9433 5.08445 38.6072 8.34061 38.6072H35.7278C36.0151 38.6072 36.293 38.7093 36.5128 38.8955L47.0112 47.7957V39.8317C47.0112 39.1554 47.5565 38.6072 48.229 38.6072H51.6594C54.9156 38.6072 57.5646 35.9433 57.5646 32.6692V8.73077C57.5646 5.45648 54.9156 2.79273 51.6594 2.79273H8.34061Z" fill="#DFDFDF"/>
<path d="M49.6124 14.0544H10.3876C9.71506 14.0544 9.16992 13.5061 9.16992 12.83C9.16992 12.1537 9.71506 11.6055 10.3876 11.6055H49.6122C50.2847 11.6055 50.8299 12.1537 50.8299 12.83C50.8299 13.5061 50.2849 14.0544 49.6124 14.0544Z" fill="#DFDFDF"/>
<path d="M49.6124 21.8943H10.3876C9.71506 21.8943 9.16992 21.346 9.16992 20.6698C9.16992 19.9935 9.71506 19.4453 10.3876 19.4453H49.6122C50.2847 19.4453 50.8299 19.9935 50.8299 20.6698C50.8299 21.346 50.2849 21.8943 49.6124 21.8943Z" fill="#DFDFDF"/>
<path d="M49.6124 29.7381H10.3876C9.71506 29.7381 9.16992 29.1897 9.16992 28.5136C9.16992 27.8373 9.71506 27.2891 10.3876 27.2891H49.6122C50.2847 27.2891 50.8299 27.8371 50.8299 28.5136C50.8299 29.1897 50.2849 29.7381 49.6124 29.7381Z" fill="#DFDFDF"/>
</svg>
