<svg width="50" height="51" viewBox="0 0 50 51" fill="none" xmlns="http://www.w3.org/2000/svg">
<path d="M19.7977 9.36921L18.8692 9.7406L19.7977 9.36921ZM21.9941 14.8602L22.9225 14.4888L21.9941 14.8602ZM21.3263 19.0751L22.0946 19.7152L21.3263 19.0751ZM20.1443 20.4935L20.9125 21.1337L20.1443 20.4935ZM20.3989 26.1073L19.6918 26.8144L20.3989 26.1073ZM24.3928 30.1011L25.0999 29.394L24.3928 30.1011ZM30.0065 30.3557L29.3663 29.5875L30.0065 30.3557ZM31.4249 29.1737L32.0651 29.9419H32.0651L31.4249 29.1737ZM35.6398 28.5059L35.2684 29.4344L35.6398 28.5059ZM41.1308 30.7023L41.5022 29.7738L41.1308 30.7023ZM10.1974 7.75H15.929V5.75H10.1974V7.75ZM18.8692 9.7406L21.0656 15.2316L22.9225 14.4888L20.7262 8.99781L18.8692 9.7406ZM20.5581 18.4349L19.376 19.8534L20.9125 21.1337L22.0946 19.7152L20.5581 18.4349ZM19.6918 26.8144L23.6856 30.8082L25.0999 29.394L21.106 25.4001L19.6918 26.8144ZM30.6466 31.1239L32.0651 29.9419L30.7848 28.4054L29.3663 29.5875L30.6466 31.1239ZM35.2684 29.4344L40.7594 31.6308L41.5022 29.7738L36.0112 27.5775L35.2684 29.4344ZM42.75 34.571V40.3026H44.75V34.571H42.75ZM39.8026 43.25C21.8243 43.25 7.25 28.6757 7.25 10.6974H5.25C5.25 29.7803 20.7197 45.25 39.8026 45.25V43.25ZM42.75 40.3026C42.75 41.9304 41.4304 43.25 39.8026 43.25V45.25C42.535 45.25 44.75 43.035 44.75 40.3026H42.75ZM40.7594 31.6308C41.9617 32.1117 42.75 33.2761 42.75 34.571H44.75C44.75 32.4583 43.4638 30.5585 41.5022 29.7738L40.7594 31.6308ZM32.0651 29.9419C32.9587 29.1973 34.1885 29.0024 35.2684 29.4344L36.0112 27.5775C34.2492 26.8727 32.2426 27.1905 30.7848 28.4054L32.0651 29.9419ZM23.6856 30.8082C25.5752 32.6977 28.5938 32.8347 30.6466 31.1239L29.3663 29.5875C28.1081 30.636 26.258 30.5521 25.0999 29.394L23.6856 30.8082ZM19.376 19.8534C17.6653 21.9062 17.8023 24.9248 19.6918 26.8144L21.106 25.4001C19.9479 24.242 19.864 22.3919 20.9125 21.1337L19.376 19.8534ZM21.0656 15.2316C21.4976 16.3115 21.3027 17.5413 20.5581 18.4349L22.0946 19.7152C23.3095 18.2574 23.6273 16.2508 22.9225 14.4888L21.0656 15.2316ZM15.929 7.75C17.2239 7.75 18.3883 8.53834 18.8692 9.7406L20.7262 8.99781C19.9415 7.03625 18.0417 5.75 15.929 5.75V7.75ZM10.1974 5.75C7.46501 5.75 5.25 7.96501 5.25 10.6974H7.25C7.25 9.06958 8.56958 7.75 10.1974 7.75V5.75Z" fill="#2D6FF4"/>
</svg>
