<svg width="19" height="19" viewBox="0 0 19 19" fill="none" xmlns="http://www.w3.org/2000/svg">
<path d="M11.875 6.82812H11.2812V8.3125H11.875V6.82812Z" fill="white"/>
<path d="M13.0625 6.82812H12.4688V8.3125H13.0625V6.82812Z" fill="white"/>
<path d="M11.875 8.90625H11.2812V9.5H11.875V8.90625Z" fill="white"/>
<path d="M13.0625 8.90625H12.4688V9.5H13.0625V8.90625Z" fill="white"/>
<path d="M9.79688 10.0938H9.20312V10.6875H9.79688V10.0938Z" fill="white"/>
<path d="M8.3125 16.0312H7.71875V16.625H8.3125V16.0312Z" fill="white"/>
<path d="M13.0625 10.0938H12.4688V10.6875H13.0625V10.0938Z" fill="white"/>
<path d="M11.875 11.2812H11.2812V11.875H11.875V11.2812Z" fill="white"/>
<path d="M13.0625 11.2812H12.4688V11.875H13.0625V11.2812Z" fill="white"/>
<path d="M0.59375 0.59375H1.48438V0H0.296875C0.133 0 0 0.133 0 0.296875V1.48438H0.59375V0.59375Z" fill="white"/>
<path d="M18.7031 0H17.5156V0.59375H18.4062V1.48438H19V0.296875C19 0.133 18.867 0 18.7031 0Z" fill="white"/>
<path d="M0.59375 17.5156H0V18.7031C0 18.867 0.133 19 0.296875 19H1.48438V18.4062H0.59375V17.5156Z" fill="white"/>
<path d="M18.4062 18.4062H17.5156V19H18.7031C18.867 19 19 18.867 19 18.7031V17.5156H18.4062V18.4062Z" fill="white"/>
<path d="M1.1875 1.48438V5.04688C1.1875 5.21075 1.3205 5.34375 1.48438 5.34375H5.04688C5.21075 5.34375 5.34375 5.21075 5.34375 5.04688V1.48438C5.34375 1.3205 5.21075 1.1875 5.04688 1.1875H1.48438C1.3205 1.1875 1.1875 1.3205 1.1875 1.48438ZM1.78125 1.78125H4.75V4.75H1.78125V1.78125Z" fill="white"/>
<path d="M3.85938 2.375H2.67188C2.508 2.375 2.375 2.508 2.375 2.67188V3.85938C2.375 4.02325 2.508 4.15625 2.67188 4.15625H3.85938C4.02325 4.15625 4.15625 4.02325 4.15625 3.85938V2.67188C4.15625 2.508 4.02325 2.375 3.85938 2.375ZM3.5625 3.5625H2.96875V2.96875H3.5625V3.5625Z" fill="white"/>
<path d="M13.9531 5.34375H17.5156C17.6795 5.34375 17.8125 5.21075 17.8125 5.04688V1.48438C17.8125 1.3205 17.6795 1.1875 17.5156 1.1875H13.9531C13.7893 1.1875 13.6562 1.3205 13.6562 1.48438V5.04688C13.6562 5.21075 13.7893 5.34375 13.9531 5.34375ZM14.25 1.78125H17.2188V4.75H14.25V1.78125Z" fill="white"/>
<path d="M16.3281 2.375H15.1406C14.9768 2.375 14.8438 2.508 14.8438 2.67188V3.85938C14.8438 4.02325 14.9768 4.15625 15.1406 4.15625H16.3281C16.492 4.15625 16.625 4.02325 16.625 3.85938V2.67188C16.625 2.508 16.492 2.375 16.3281 2.375ZM16.0312 3.5625H15.4375V2.96875H16.0312V3.5625Z" fill="white"/>
<path d="M5.04688 13.6562H1.48438C1.3205 13.6562 1.1875 13.7893 1.1875 13.9531V17.5156C1.1875 17.6795 1.3205 17.8125 1.48438 17.8125H5.04688C5.21075 17.8125 5.34375 17.6795 5.34375 17.5156V13.9531C5.34375 13.7893 5.21075 13.6562 5.04688 13.6562ZM4.75 17.2188H1.78125V14.25H4.75V17.2188Z" fill="white"/>
<path d="M2.67188 16.625H3.85938C4.02325 16.625 4.15625 16.492 4.15625 16.3281V15.1406C4.15625 14.9768 4.02325 14.8438 3.85938 14.8438H2.67188C2.508 14.8438 2.375 14.9768 2.375 15.1406V16.3281C2.375 16.492 2.508 16.625 2.67188 16.625ZM2.96875 15.4375H3.5625V16.0312H2.96875V15.4375Z" fill="white"/>
<path d="M13.0625 5.64062H10.9844V2.07812H10.3906V5.9375C10.3906 6.10138 10.5236 6.23438 10.6875 6.23438H13.0625V5.64062Z" fill="white"/>
<path d="M8.60938 3.5625H6.53125V4.15625H8.60938V3.5625Z" fill="white"/>
<path d="M9.79688 2.375H7.71875V2.96875H9.79688V2.375Z" fill="white"/>
<path d="M1.78125 5.64062H1.1875V8.3125H1.78125V5.64062Z" fill="white"/>
<path d="M5.34375 7.42188H2.375V8.01562H5.04688V9.20312H5.64062V7.71875C5.64062 7.55488 5.50763 7.42188 5.34375 7.42188Z" fill="white"/>
<path d="M3.26562 5.9375H2.67188V6.53125H3.26562V5.9375Z" fill="white"/>
<path d="M6.82812 5.34375H6.23438V7.71875H6.82812V5.34375Z" fill="white"/>
<path d="M8.90625 8.3125H6.23438V8.90625H8.90625V8.3125Z" fill="white"/>
<path d="M18.1094 8.60938H17.5156V11.5781H16.625V12.1719H17.8125C17.9764 12.1719 18.1094 12.0389 18.1094 11.875V8.60938Z" fill="white"/>
<path d="M8.3125 5.34375H7.71875V5.9375H8.3125V5.34375Z" fill="white"/>
<path d="M1.78125 9.79688H1.1875V12.1719H1.78125V9.79688Z" fill="white"/>
<path d="M3.85938 12.4688H1.1875V13.0625H3.85938V12.4688Z" fill="white"/>
<path d="M14.8438 8.3125H15.4375V7.125C15.4375 6.96113 15.3045 6.82812 15.1406 6.82812H13.6562V7.42188H14.8438V8.3125Z" fill="white"/>
<path d="M3.26562 9.79688H2.67188V10.3906H3.26562V9.79688Z" fill="white"/>
<path d="M6.53125 9.5H5.9375V11.875H6.53125V9.5Z" fill="white"/>
<path d="M8.60938 12.4688H5.9375V13.0625H8.60938V12.4688Z" fill="white"/>
<path d="M5.04688 11.2812H2.375V11.875H5.04688V11.2812Z" fill="white"/>
<path d="M6.82812 15.4375H6.23438V16.625H6.82812V15.4375Z" fill="white"/>
<path d="M8.60938 14.25H5.9375V14.8438H8.60938V14.25Z" fill="white"/>
<path d="M10.6875 13.0625V11.5781C10.6875 11.4143 10.5545 11.2812 10.3906 11.2812H7.42188V11.875H10.0938V13.0625H10.6875Z" fill="white"/>
<path d="M8.3125 9.5H7.71875V10.0938H8.3125V9.5Z" fill="white"/>
<path d="M5.04688 10.0938H4.45312V10.6875H5.04688V10.0938Z" fill="white"/>
<path d="M18.1094 15.7344H17.5156V17.8125H18.1094V15.7344Z" fill="white"/>
<path d="M16.9219 17.2188H16.0312V17.8125H16.9219V17.2188Z" fill="white"/>
<path d="M16.625 15.4375H16.0312V16.625H16.625V15.4375Z" fill="white"/>
<path d="M18.1094 13.0625C18.1094 12.8986 17.9764 12.7656 17.8125 12.7656H14.5469V13.3594H17.5156V15.1406H18.1094V13.0625Z" fill="white"/>
<path d="M14.25 16.625V15.1406C14.25 14.9768 14.117 14.8438 13.9531 14.8438H10.6875V15.4375H13.6562V16.625H14.25Z" fill="white"/>
<path d="M16.9219 13.9531H14.8438V14.5469H16.9219V13.9531Z" fill="white"/>
<path d="M8.01562 17.2188H5.9375V17.8125H8.01562V17.2188Z" fill="white"/>
<path d="M9.5 15.1406H8.90625V17.8125H9.5V15.1406Z" fill="white"/>
<path d="M10.6875 13.6562H9.5V14.25H10.6875V13.6562Z" fill="white"/>
<path d="M13.9531 10.6875H15.4375V10.0938H14.25V8.3125H13.6562V10.3906C13.6562 10.5545 13.7893 10.6875 13.9531 10.6875Z" fill="white"/>
<path d="M16.3281 8.90625H14.8438V9.5H16.3281V8.90625Z" fill="white"/>
<path d="M16.9219 5.9375H16.0312V6.53125H16.9219V5.9375Z" fill="white"/>
<path d="M18.1094 5.9375H17.5156V7.42188H18.1094V5.9375Z" fill="white"/>
<path d="M16.625 7.42188H16.0312V8.01562H16.625V7.42188Z" fill="white"/>
<path d="M11.5781 5.04688H12.7656C12.9295 5.04688 13.0625 4.91388 13.0625 4.75V0.890625H12.4688V4.45312H11.5781V5.04688Z" fill="white"/>
<path d="M7.125 1.48438H11.5781V0.890625H6.82812C6.66425 0.890625 6.53125 1.02363 6.53125 1.1875V2.67188H7.125V1.48438Z" fill="white"/>
<path d="M7.42188 7.125H9.5C9.66388 7.125 9.79688 6.992 9.79688 6.82812V4.45312H9.20312V6.53125H7.42188V7.125Z" fill="white"/>
<path d="M10.6875 6.82812H10.0938V8.01562H10.6875V6.82812Z" fill="white"/>
<path d="M12.7656 16.0312H10.6875V16.625H12.7656V16.0312Z" fill="white"/>
<path d="M13.3594 17.2188H10.6875V17.8125H13.3594V17.2188Z" fill="white"/>
<path d="M14.8438 17.2188H14.25V17.8125H15.1406C15.3045 17.8125 15.4375 17.6795 15.4375 17.5156V15.1406H14.8438V17.2188Z" fill="white"/>
<path d="M5.34375 12.4688H4.75V13.0625H5.34375V12.4688Z" fill="white"/>
<path d="M12.7656 12.4688H11.5781V13.0625H12.7656V12.4688Z" fill="white"/>
<path d="M14.25 11.2812H13.6562V12.1719H14.25V11.2812Z" fill="white"/>
<path d="M13.9531 12.7656H13.3594V13.3594H13.9531V12.7656Z" fill="white"/>
<path d="M12.4688 13.6562H11.5781V14.25H12.4688V13.6562Z" fill="white"/>
<path d="M15.4375 11.2812H14.8438V11.875H15.4375V11.2812Z" fill="white"/>
<path d="M16.9219 10.0938H16.0312V10.6875H16.9219V10.0938Z" fill="white"/>
<path d="M11.875 10.0938H10.3906V10.6875H11.875V10.0938Z" fill="white"/>
<path d="M10.6875 8.60938H10.0938V9.5H10.6875V8.60938Z" fill="white"/>
</svg>
