<svg width="37" height="36" viewBox="0 0 37 36" fill="none" xmlns="http://www.w3.org/2000/svg">
<path d="M12.4881 16.5513C11.7484 16.5538 11.0217 16.7466 10.3781 17.1113C11.2843 14.7658 12.7872 12.6976 14.7381 11.1113C14.8497 11.0194 14.9422 10.9064 15.0101 10.7787C15.0781 10.6511 15.1202 10.5113 15.1341 10.3674C15.1481 10.2234 15.1335 10.0782 15.0913 9.93986C15.0491 9.80155 14.98 9.67292 14.8881 9.56129C14.7962 9.44967 14.6832 9.35724 14.5555 9.2893C14.4279 9.22135 14.2881 9.17921 14.1442 9.16528C14.0002 9.15135 13.855 9.16591 13.7167 9.20812C13.5784 9.25033 13.4497 9.31937 13.3381 9.41129C9.33811 12.6613 7.55811 17.1613 7.55811 19.9513C7.565 20.9378 7.85898 21.9009 8.40415 22.7231C8.94931 23.5453 9.72209 24.191 10.6281 24.5813C11.2145 24.8653 11.8566 25.0156 12.5081 25.0213C13.0816 25.0492 13.6547 24.9603 14.1928 24.76C14.7309 24.5598 15.2227 24.2523 15.6384 23.8563C16.0541 23.4603 16.3851 22.984 16.6112 22.4563C16.8374 21.9286 16.954 21.3604 16.954 20.7863C16.954 20.2122 16.8374 19.644 16.6112 19.1163C16.3851 18.5885 16.0541 18.1122 15.6384 17.7162C15.2227 17.3202 14.7309 17.0128 14.1928 16.8125C13.6547 16.6123 13.0816 16.5234 12.5081 16.5513H12.4881Z" fill="#333333"/>
<path d="M23.6278 16.5495C22.8879 16.5511 22.161 16.744 21.5178 17.1095C22.4235 14.7665 23.9225 12.699 25.8678 11.1095C25.9895 11.0218 26.092 10.91 26.169 10.7812C26.2459 10.6523 26.2957 10.5091 26.3152 10.3602C26.3347 10.2114 26.3236 10.0602 26.2825 9.91584C26.2413 9.7715 26.1711 9.63709 26.0761 9.5209C25.9811 9.40471 25.8633 9.30918 25.73 9.24021C25.5967 9.17124 25.4507 9.13028 25.301 9.11985C25.1513 9.10942 25.001 9.12973 24.8594 9.17955C24.7178 9.22937 24.588 9.30764 24.4778 9.40953C20.4778 12.6595 18.6978 17.1595 18.6978 19.9495C18.7025 20.9249 18.9879 21.8782 19.5199 22.6957C20.0519 23.5131 20.8079 24.1602 21.6978 24.5595C22.299 24.8519 22.9592 25.0024 23.6278 24.9995C24.2012 25.0274 24.7744 24.9385 25.3124 24.7383C25.8505 24.538 26.3423 24.2306 26.7581 23.8346C27.1738 23.4386 27.5047 22.9623 27.7309 22.4346C27.957 21.9068 28.0736 21.3387 28.0736 20.7645C28.0736 20.1904 27.957 19.6222 27.7309 19.0945C27.5047 18.5668 27.1738 18.0905 26.7581 17.6945C26.3423 17.2985 25.8505 16.991 25.3124 16.7908C24.7744 16.5905 24.2012 16.5017 23.6278 16.5295V16.5495Z" fill="#333333"/>
</svg>
