<svg width="18" height="16" viewBox="0 0 18 16" fill="none" xmlns="http://www.w3.org/2000/svg">
<path d="M1.33203 1H5.93206C6.7454 1 7.52542 1.3231 8.10054 1.89821C8.67566 2.47333 8.99875 3.25335 8.99875 4.06669V14.8001C8.99875 14.1901 8.75643 13.6051 8.32509 13.1737C7.89376 12.7424 7.30874 12.5001 6.69874 12.5001H1.33203V1Z" stroke="#9D9799" stroke-width="1.4" stroke-linecap="round" stroke-linejoin="round"/>
<path d="M16.6667 1H12.0667C11.2534 1 10.4733 1.3231 9.89821 1.89821C9.3231 2.47333 9 3.25335 9 4.06669V14.8001C9 14.1901 9.24232 13.6051 9.67366 13.1737C10.105 12.7424 10.69 12.5001 11.3 12.5001H16.6667V1Z" stroke="#9D9799" stroke-width="1.4" stroke-linecap="round" stroke-linejoin="round"/>
</svg>
