<svg width="7" height="15" viewBox="0 0 7 15" fill="none" xmlns="http://www.w3.org/2000/svg">
<path d="M1.16251 0.499725C1.31191 0.499217 1.45952 0.532189 1.5945 0.596218C1.72947 0.660246 1.84839 0.753705 1.94251 0.869726L6.77251 6.86972C6.91959 7.04866 7 7.2731 7 7.50472C7 7.73635 6.91959 7.96079 6.77251 8.13972L1.77251 14.1397C1.60277 14.3439 1.35886 14.4724 1.09444 14.4967C0.83001 14.5211 0.566729 14.4395 0.362512 14.2697C0.158296 14.1 0.0298714 13.8561 0.00549165 13.5916C-0.0188881 13.3272 0.0627731 13.0639 0.232512 12.8597L4.70251 7.49972L0.382511 2.13972C0.260228 1.99294 0.182551 1.8142 0.158672 1.62465C0.134792 1.4351 0.165709 1.24268 0.247765 1.07015C0.329821 0.897623 0.459581 0.752211 0.621691 0.651121C0.783801 0.55003 0.971477 0.497493 1.16251 0.499725Z" fill="#2D6FF4"/>
</svg>
