<svg width="40" height="40" viewBox="0 0 40 40" fill="none" xmlns="http://www.w3.org/2000/svg">
<circle cx="20" cy="20" r="19.2" stroke="#A87C51" stroke-width="1.6"/>
<path d="M24.6217 17.0872C26.0373 17.0872 27.1848 15.9396 27.1848 14.524C27.1848 13.1085 26.0373 11.9609 24.6217 11.9609C23.2061 11.9609 22.0586 13.1085 22.0586 14.524C22.0586 15.9396 23.2061 17.0872 24.6217 17.0872Z" stroke="#A87C51" stroke-width="1.6" stroke-linecap="round" stroke-linejoin="round"/>
<path d="M14.3678 23.0677C15.7834 23.0677 16.9309 21.9202 16.9309 20.5046C16.9309 19.0891 15.7834 17.9415 14.3678 17.9415C12.9522 17.9415 11.8047 19.0891 11.8047 20.5046C11.8047 21.9202 12.9522 23.0677 14.3678 23.0677Z" stroke="#A87C51" stroke-width="1.6" stroke-linecap="round" stroke-linejoin="round"/>
<path d="M24.6217 29.0483C26.0373 29.0483 27.1848 27.9008 27.1848 26.4852C27.1848 25.0696 26.0373 23.9221 24.6217 23.9221C23.2061 23.9221 22.0586 25.0696 22.0586 26.4852C22.0586 27.9008 23.2061 29.0483 24.6217 29.0483Z" stroke="#A87C51" stroke-width="1.6" stroke-linecap="round" stroke-linejoin="round"/>
<path d="M16.582 21.7947L22.4174 25.1951" stroke="#A87C51" stroke-width="1.6" stroke-linecap="round" stroke-linejoin="round"/>
<path d="M22.4088 15.8141L16.582 19.2145" stroke="#A87C51" stroke-width="1.6" stroke-linecap="round" stroke-linejoin="round"/>
</svg>
