<svg width="62" height="62" viewBox="0 0 62 62" fill="none" xmlns="http://www.w3.org/2000/svg">
<path d="M3.875 42.6255L8.9125 40.8817C16.4688 38.363 24.9938 40.1067 31 45.5317C37.0062 50.9567 45.3375 52.7005 53.0875 50.1817L58.125 48.438" stroke="#DFDFDF" stroke-width="2" stroke-miterlimit="10" stroke-linecap="round" stroke-linejoin="round"/>
<path d="M44.5625 31C48.8427 31 52.3125 27.5302 52.3125 23.25C52.3125 18.9698 48.8427 15.5 44.5625 15.5C40.2823 15.5 36.8125 18.9698 36.8125 23.25C36.8125 27.5302 40.2823 31 44.5625 31Z" stroke="#DFDFDF" stroke-width="2" stroke-miterlimit="10" stroke-linecap="round" stroke-linejoin="round"/>
<path d="M34.8749 48.4367L36.8124 46.4992C40.1062 43.2055 40.1062 37.9742 36.8124 34.8742L22.2812 20.343C19.5687 17.6305 15.3062 17.6305 12.5937 20.343L4.06865 28.868C2.90615 30.0305 2.90615 31.968 4.06865 33.1305C5.0374 34.0992 6.5874 34.293 7.94365 33.518L17.4374 27.1242L23.2499 32.9367L16.4687 39.718" stroke="#DFDFDF" stroke-width="2" stroke-miterlimit="10" stroke-linecap="round" stroke-linejoin="round"/>
</svg>
