<svg width="12" height="12" viewBox="0 0 12 12" fill="none" xmlns="http://www.w3.org/2000/svg">
<path d="M11.4 1.8H9.26459C9.00599 1.8 8.7774 1.63561 8.6952 1.39021L8.50562 0.820166C8.34182 0.329966 7.884 0 7.3674 0H4.63198C4.11478 0 3.657 0.330025 3.4938 0.820825L3.30421 1.38962C3.22261 1.63502 2.99339 1.8 2.73479 1.8H0.6C0.2688 1.8 0 2.0682 0 2.4C0 2.7318 0.2688 3 0.6 3H1.239L1.68959 9.75959C1.77299 11.016 2.8248 12 4.0842 12H7.91638C9.17578 12 10.2276 11.0154 10.311 9.75959L10.7616 3H11.4C11.7312 3 12 2.7318 12 2.4C12 2.0682 11.7312 1.8 11.4 1.8ZM4.63261 1.2L7.36802 1.19941L7.55761 1.76938C7.5612 1.78018 7.56659 1.7892 7.57079 1.8H4.43038C4.43398 1.7892 4.44 1.7796 4.4436 1.7688L4.63261 1.2ZM9.11342 9.67983C9.07142 10.308 8.5458 10.8 7.9158 10.8H4.08362C3.45422 10.8 2.928 10.308 2.886 9.67983L2.44138 3H2.73541C2.79961 3 2.86259 2.99159 2.92559 2.98499C2.95139 2.98859 2.97359 3 3.00059 3H9.00059C9.02699 3 9.04979 2.98799 9.07559 2.98499C9.13859 2.99159 9.201 3 9.2658 3H9.55979L9.11342 9.67983ZM7.8 5.4V8.4C7.8 8.7318 7.5312 9 7.2 9C6.8688 9 6.6 8.7318 6.6 8.4V5.4C6.6 5.0682 6.8688 4.8 7.2 4.8C7.5312 4.8 7.8 5.0682 7.8 5.4ZM5.4 5.4V8.4C5.4 8.7318 5.1312 9 4.8 9C4.4688 9 4.2 8.7318 4.2 8.4V5.4C4.2 5.0682 4.4688 4.8 4.8 4.8C5.1312 4.8 5.4 5.0682 5.4 5.4Z" fill="#08446B"/>
</svg>
