<svg width="21" height="20" viewBox="0 0 21 20" fill="none" xmlns="http://www.w3.org/2000/svg">
<g clip-path="url(#clip0_605_17115)">
<path d="M9.39178 14.1003C9.44512 14.0553 9.49928 14.0087 9.54928 13.9595C6.76512 16.6912 2.22512 15.4162 1.16095 11.5637V11.5578C-0.266549 6.31618 5.75262 2.33451 9.54762 6.00118C9.62678 6.08534 14.8693 11.6762 14.536 11.3203H14.551C15.3335 12.127 16.4651 12.0387 17.1385 11.3337C17.8626 10.577 17.8885 9.34201 17.1776 8.57284C16.0551 7.28034 13.851 8.24618 14.0618 10.162L12.8001 8.87701L11.3368 7.47784C11.6385 6.87868 12.0343 6.35451 12.5301 5.90118C12.4768 5.94701 12.4226 5.99451 12.3726 6.04201C15.1676 3.30034 19.7043 4.60534 20.761 8.44118V8.44618C22.1918 13.687 16.166 17.6687 12.3743 14.002C12.2968 13.9187 7.05762 8.29284 7.38928 8.64951L7.38595 8.63701C7.37262 8.63701 7.37262 8.62451 7.37262 8.62451C6.55095 7.77701 5.43678 7.90451 4.78512 8.59868C4.06012 9.35534 4.03512 10.5903 4.74762 11.3478C5.82095 12.6103 8.07262 11.6745 7.86095 9.72034C7.94262 9.80451 10.7685 12.7053 10.5885 12.5212C10.131 13.4337 9.61928 13.8528 9.39178 14.1003Z" fill="black"/>
</g>
<defs>
<clipPath id="clip0_605_17115">
<rect width="20" height="20" fill="white" transform="translate(0.960938)"/>
</clipPath>
</defs>
</svg>
