<svg width="18" height="12" viewBox="0 0 18 12" fill="none" xmlns="http://www.w3.org/2000/svg">
<path fill-rule="evenodd" clip-rule="evenodd" d="M4.56954 8.80193C4.37679 9.38222 3.67705 10.6752 3.95022 11.4666C4.02026 11.6695 4.26549 11.8172 4.53133 11.6632C4.72399 11.5515 4.69483 11.2794 4.71638 10.9925C5.04968 6.55658 11.2314 5.50874 12.9708 9.69283C13.4695 10.8923 13.1199 11.5356 13.5194 11.6875C13.7964 11.7929 13.9869 11.648 14.0492 11.4665C14.3231 10.669 13.6222 9.38702 13.4297 8.8017C14.6887 8.37775 15.6515 8.61968 16.5485 9.55496C17.5262 10.5743 16.888 11.771 17.6368 11.7086C18.4184 11.6435 17.9171 9.3254 16.3384 8.36014C14.6847 7.34897 13.6594 8.05555 12.9346 8.11423C11.8448 7.0365 10.8553 6.2558 8.99987 6.25562C7.14918 6.25548 6.15666 7.03555 5.06517 8.11355C4.31091 8.05192 3.30576 7.33869 1.61731 8.38667C0.04798 9.36067 -0.480969 11.8841 0.484017 11.7024C0.830266 11.6371 0.774935 11.2881 0.816909 10.9583C1.02352 9.33368 2.65868 8.15362 4.56963 8.80188L4.56954 8.80193Z" fill="white"/>
<path fill-rule="evenodd" clip-rule="evenodd" d="M8.55473 0.835992C9.76359 0.540138 10.7169 1.39845 10.9141 2.33876C11.4438 4.86496 7.61904 5.64603 7.08778 3.13517C6.83843 1.95692 7.64281 1.05922 8.55473 0.835992ZM8.38004 0.0813265C4.83107 0.933614 6.14426 6.24982 9.65696 5.39133C10.9014 5.08719 12.0425 3.76219 11.6692 2.13862C11.372 0.846179 10.0638 -0.32306 8.38004 0.0813265Z" fill="white"/>
<path fill-rule="evenodd" clip-rule="evenodd" d="M3.32964 3.94965C4.81987 3.5473 5.32097 5.89048 3.86136 6.21695C2.37747 6.54889 1.75801 4.374 3.32964 3.94965ZM3.19607 3.18008C2.24856 3.3957 1.39197 4.28344 1.68276 5.52753C1.89588 6.43936 2.85032 7.24709 4.01136 6.98434C6.53784 6.41246 5.62823 2.62664 3.19607 3.18008Z" fill="white"/>
<path fill-rule="evenodd" clip-rule="evenodd" d="M15.6107 5.37149C15.2259 6.85664 12.8759 6.27543 13.3579 4.74016C13.8119 3.29386 15.9898 3.90816 15.6107 5.37149ZM14.0884 3.18098C11.4561 3.78436 12.4397 7.5231 14.905 6.98767C15.8164 6.78976 16.6381 5.81001 16.3816 4.66586C16.1744 3.74226 15.2469 2.91546 14.0885 3.18098H14.0884Z" fill="white"/>
</svg>
