<svg width="58" height="58" viewBox="0 0 58 58" fill="none" xmlns="http://www.w3.org/2000/svg">
<path d="M29.0085 0.294817C45.6488 0.314853 57.6835 13.4584 57.6635 28.7659C57.6234 44.0734 46.4498 57.0767 29.7494 57.5175C13.0891 57.9583 0.29348 44.7346 0.29348 28.6858C0.273455 12.4967 13.4896 0.174602 29.0085 0.294817ZM1.99556 28.6457C1.89543 43.3521 13.83 55.3336 28.6881 55.4137C42.7853 55.4939 55.3406 44.2337 55.3406 28.8461C55.3406 14.4202 44.9079 2.13813 29.4691 1.79751C13.9101 1.4569 2.07565 13.6388 1.99556 28.6457Z" fill="#202020"/>
<path d="M39.6817 14.7206C39.902 14.7206 40.1222 14.7206 40.3425 14.7206C45.5489 14.6404 48.7327 18.7478 49.4737 23.2359C50.0343 26.662 49.6138 29.9679 47.5914 32.9132C46.1296 35.037 44.0871 36.3394 41.4839 36.6399C34.7757 37.4213 31.3716 32.793 30.6106 28.0645C30.1501 25.1793 30.4905 22.4344 31.752 19.7897C32.9735 17.2251 35.8971 14.6204 39.6817 14.7206ZM48.152 27.8041C48.3923 26.6219 48.3723 25.3797 48.132 24.1976C47.9117 23.1757 47.6915 22.1539 47.331 21.1922C46.2697 18.4072 44.2072 16.604 41.2236 16.2032C37.9396 15.7624 35.2763 16.9846 33.4541 19.8097C31.2314 23.2559 31.3515 28.7057 33.7345 32.0517C36.638 36.119 42.4251 36.4796 45.7892 32.773C47.0907 31.3304 47.7716 29.6474 48.152 27.8041Z" fill="#202020"/>
<path d="M17.4343 36.6997C12.8688 36.7197 10.0453 34.8764 8.40332 31.29C6.64117 27.4631 6.68122 23.5361 8.56352 19.7693C10.3457 16.1629 13.3694 14.4999 17.4343 14.7002C21.1789 14.8806 23.8021 16.784 25.2839 20.1099C27.1262 24.2173 27.006 28.3848 24.7433 32.3118C23.0011 35.2972 20.3379 36.7598 17.4343 36.6997ZM24.4229 29.3265C25.1237 26.9823 25.1638 24.4778 24.4629 22.1336C24.3628 21.833 24.2627 21.5325 24.1425 21.2319C22.881 18.1464 20.5782 16.263 17.134 16.1629C13.5296 16.0426 11.0465 17.8058 9.60479 21.0316C8.32323 23.8767 8.28318 26.822 9.32445 29.7272C10.586 33.2736 13.1291 35.0768 16.1928 35.2972C19.7972 35.5376 22.6207 33.8346 24.0224 30.4685C24.1826 30.0878 24.3027 29.7072 24.4229 29.3265Z" fill="#202020"/>
<path d="M28.7282 50.2841C28.6882 50.2841 28.6481 50.2841 28.6081 50.2841C20.4782 50.0436 13.9702 46.5373 8.66376 40.5466C8.32334 40.1659 8.06302 39.645 7.94288 39.1441C7.92285 39.084 7.92285 39.0439 7.92285 38.9838C7.94288 38.4228 8.56363 38.1222 9.06424 38.3426C9.10429 38.3627 9.14434 38.3827 9.18439 38.4027C9.36461 38.5029 9.48476 38.7434 9.62493 38.9237C15.4921 46.5774 23.2415 49.6429 32.7331 48.2805C37.9995 47.5191 42.4049 45.0146 46.0694 41.1877C46.57 40.6668 46.9505 40.0257 47.431 39.4647C47.7314 39.124 48.0718 38.7834 48.4723 38.563C48.6525 38.4629 49.0931 38.523 49.2533 38.6832C49.4135 38.8435 49.4535 39.2242 49.4135 39.4847C49.3934 39.685 49.1932 39.8854 49.053 40.0858C45.0882 45.1348 40.022 48.4207 33.7143 49.6429C32.0723 49.9435 30.3903 50.0637 28.7282 50.2841Z" fill="#202020"/>
<path d="M39.8618 28.766C39.9018 31.6311 37.6191 33.2941 35.4965 32.0919C34.1548 31.3506 33.8344 30.0483 33.9145 28.6658C33.9946 27.2032 34.6154 26.021 36.1372 25.5602C37.4989 25.1394 39.1409 26.001 39.5814 27.4035C39.7617 27.9044 39.8017 28.4454 39.8618 28.766Z" fill="#202020"/>
<path d="M22.9614 28.9461C22.9614 30.9898 21.86 32.3923 20.178 32.4524C18.0354 32.5326 16.4735 30.2485 17.1142 27.9844C17.6349 26.1812 18.8764 25.2395 20.4383 25.4799C22.0202 25.7404 22.9614 27.0427 22.9614 28.9461Z" fill="#202020"/>
</svg>
