<svg width="58" height="58" viewBox="0 0 58 58" fill="none" xmlns="http://www.w3.org/2000/svg">
<path d="M29.2396 0.294324C45.4381 0.434219 57.8218 13.2047 57.662 28.9129C57.5022 46.0201 44.4794 57.2917 29.4992 57.5315C12.9811 57.7914 0.0182672 44.4413 0.297897 28.1135C0.577527 12.805 13.5004 0.214384 29.2396 0.294324ZM1.93573 28.873C1.83586 43.3022 13.8 55.3132 28.3607 55.4331C41.8828 55.553 55.0454 45.2607 55.0654 28.9529C55.0854 13.3046 43.6006 2.51267 29.4593 2.07299C14.0797 1.59335 2.05557 13.4045 1.93573 28.873Z" fill="#202020"/>
<path d="M29.1198 52.2955C24.1664 52.3755 19.7522 50.8966 15.6776 48.3385C14.9586 47.8788 14.2795 47.2992 13.7202 46.6597C12.8014 45.5805 13.1609 44.4014 14.5391 44.0816C16.3168 43.662 18.1144 43.3622 19.932 43.1224C25.5845 42.3429 31.0173 40.6642 36.4301 38.9655C40.4448 37.6864 44.2797 35.9677 48.0348 34.0691C48.0548 34.0491 48.0947 34.0292 48.1147 34.0092C49.0335 33.6694 49.9922 33.0499 50.891 33.9093C51.7698 34.7486 51.4303 35.7679 51.0907 36.7072C48.9136 42.7027 44.879 47.0394 39.2664 49.9772C36.4301 51.4761 32.6352 52.4154 29.1198 52.2955ZM15.6776 45.3407C15.2582 45.4606 15.0984 46.0002 15.4379 46.3C15.5578 46.4199 15.6776 46.4998 15.7975 46.5998C19.932 49.4576 24.5059 50.9365 29.5393 50.9165C30.3182 50.9165 30.8176 50.6168 31.3169 50.0572C35.2916 45.6605 39.9655 42.4828 46.0774 41.9832C46.357 41.9632 46.7365 41.8233 46.8364 41.6235C47.875 39.7049 48.8936 37.7664 49.8723 35.8078C50.112 35.3282 49.8124 34.9485 49.2931 35.1883C48.654 35.4881 48.0348 35.8678 47.5354 36.3474C46.4369 37.4466 45.578 38.8056 44.3397 39.7249C40.0054 42.9625 34.9721 44.7212 29.719 45.8203C26.0639 46.5998 22.3688 46.6997 18.8135 45.2808C17.7549 44.8411 16.7961 45.0409 15.6776 45.3407Z" fill="#202020"/>
<path d="M25.3447 28.7334C25.4046 31.1516 24.6856 33.6897 22.908 35.8081C19.4925 39.9051 13.5004 40.3448 9.46574 36.8474C4.99167 32.9703 3.71336 26.575 6.36984 21.3589C9.6455 14.9437 17.7148 14.0844 22.2888 19.6602C24.366 22.1983 25.4046 25.1161 25.3447 28.7334ZM23.9066 28.6335C23.8867 24.8563 22.6283 21.9185 20.0517 19.5803C16.3766 16.2628 11.4032 16.7624 8.48704 20.7194C5.15146 25.296 5.97037 31.6712 10.2447 35.5284C13.2008 38.2064 16.6962 38.3063 19.5524 36.6475C22.7282 34.8489 23.8667 31.8711 23.9066 28.6335Z" fill="#202020"/>
<path d="M44.6792 22.3179C40.4048 22.138 37.0493 23.9367 34.3129 27.1143C33.8335 27.6739 33.3542 28.2335 32.8349 28.7331C32.7949 28.7731 32.755 28.793 32.735 28.833C32.3954 29.0728 31.8761 28.873 31.8362 28.4733C31.8362 28.4533 31.8362 28.4133 31.8362 28.3933C32.0958 24.9159 33.3941 21.5984 37.269 19.8797C40.305 18.5207 43.321 18.5807 46.1572 20.5392C46.3969 20.6991 46.6765 20.879 46.8363 21.0988C47.0161 21.3386 47.2158 21.7183 47.1359 21.9582C47.096 22.138 46.6366 22.2779 46.3569 22.2979C45.7977 22.3579 45.2384 22.3179 44.6792 22.3179Z" fill="#202020"/>
<path d="M19.9318 28.8729C19.9318 28.8929 19.9318 28.9129 19.9318 28.9129C19.9318 30.9114 18.8932 32.1505 17.2354 32.2304C15.5776 32.3104 14.2194 31.0513 14.0196 29.1927C13.8998 28.1735 13.9797 27.1742 14.6588 26.3548C15.4178 25.4555 16.3765 25.1157 17.515 25.4155C18.9132 25.7753 19.5323 26.8545 19.8519 28.1335C19.9318 28.4333 19.9318 28.7131 19.9318 28.8729Z" fill="#202020"/>
</svg>
