<svg width="58" height="58" viewBox="0 0 58 58" fill="none" xmlns="http://www.w3.org/2000/svg">
<path d="M28.4396 57.7622C11.7431 57.2602 -0.117086 44.0881 0.30434 28.0646C0.725767 11.4388 14.7934 -0.267567 30.0852 0.314739C46.2198 0.917124 57.9395 14.0893 57.6585 29.2292C57.2973 46.5177 44.3736 57.963 28.4396 57.7622ZM2.29107 29.0084C2.23086 43.7066 14.2917 55.7141 29.3025 55.6739C42.6879 55.6539 55.9528 45.6141 55.9327 28.8678C55.9126 13.6676 44.6746 2.20221 29.744 2.00142C14.3118 1.80062 2.35127 13.6475 2.29107 29.0084Z" fill="#202020"/>
<path d="M30.6672 28.2861C30.2859 25.5151 30.8277 22.6839 32.2927 20.3145C34.0386 17.4833 36.7478 15.4954 39.176 14.8127C44.6345 13.2465 49.9525 16.6199 51.0763 22.2221C52.2402 28.0853 49.2501 33.7477 44.7348 36.1974C38.8951 39.3499 32.2726 36.3179 30.908 29.8121C30.8077 29.3101 30.7274 28.8081 30.6672 28.2861ZM32.9549 22.5433C31.9315 25.1537 31.8913 28.0853 32.7743 30.7358C32.7944 30.7759 32.7944 30.796 32.8145 30.8362C34.1189 34.6111 38.0121 36.6592 41.9052 35.6753C47.9457 34.1493 51.5579 26.6396 49.0294 20.8366C46.9824 16.1781 42.1862 14.5115 37.8114 17.0215C35.4634 18.3869 33.8781 20.2141 32.9549 22.5433Z" fill="#202020"/>
<path d="M28.5601 15.9167C28.4999 22.9244 24.2254 28.4463 18.5061 30.0326C13.168 31.4984 8.11085 28.125 8.37173 21.6996C8.61255 15.9167 11.5224 11.7602 16.6598 9.16997C20.2319 7.3829 23.9645 8.08567 26.3526 10.5153C27.9982 12.2421 28.52 14.3706 28.5601 15.9167ZM10.6193 17.6034C9.71629 19.792 9.57581 22.2417 10.2381 24.5107C10.3183 24.7918 10.4187 25.0529 10.519 25.3139C11.9438 28.5467 15.8571 29.8318 19.3088 28.1853C23.9043 25.9966 26.5533 22.302 27.0751 17.2219C27.5968 12.1417 23.3023 8.50735 18.5863 10.0334C15.1547 11.1378 12.0843 13.9891 10.6193 17.6034Z" fill="#202020"/>
<path d="M31.1487 47.2407C29.6235 47.2407 28.0783 47.3411 26.5531 47.2206C24.3256 47.0198 23.0814 44.9516 24.145 43.1646C24.5263 42.522 25.3491 41.9799 26.0715 41.7791C27.115 41.498 28.2388 41.5582 29.3426 41.518C30.4463 41.4779 31.5501 41.4578 32.6337 41.498C33.7977 41.5381 34.9616 41.5582 36.1055 41.7188C37.8113 41.9598 38.614 42.9236 38.614 44.53C38.5939 46.0359 37.6306 47.1202 35.965 47.2407C34.3596 47.321 32.7341 47.2206 31.1487 47.2407Z" fill="#202020"/>
<path d="M46.0594 26.3573C45.8788 28.8471 44.9958 30.9756 42.989 32.5217C39.9587 34.8509 36.1659 33.4252 35.5036 29.6905C35.0421 27.1002 35.624 24.771 37.4904 22.8634C39.2563 21.0563 41.3434 20.4338 43.1897 21.2771C45.3369 22.261 45.939 24.1887 46.0594 26.3573Z" fill="#202020"/>
<path d="M24.3658 20.6146C24.3859 23.5863 22.3189 26.2971 19.5495 26.7991C17.9842 27.0802 16.6397 26.5581 15.6564 25.2931C13.3887 22.3615 15.0142 17.0003 18.506 15.7553C21.0747 14.8317 23.8842 16.1569 24.3458 19.8315C24.3859 20.0925 24.3658 20.3535 24.3658 20.6146Z" fill="#202020"/>
</svg>
