<svg width="58" height="58" viewBox="0 0 58 58" fill="none" xmlns="http://www.w3.org/2000/svg">
<path d="M0.319079 28.8735C0.138197 16.0636 8.67988 4.94295 20.8794 1.60474C32.3554 -1.51226 42.3643 1.20255 50.4035 10.0709C54.5035 14.5956 56.7545 20.0654 57.4982 26.1385C58.2619 32.3323 56.6138 38.0032 53.78 43.3926C53.4785 43.9557 53.3982 44.4383 53.5388 45.1623C54.0614 47.7765 53.7197 50.0691 50.705 51.1952C49.9212 51.4767 48.9967 51.3158 48.1525 51.4365C47.5697 51.5371 46.9065 51.6577 46.4442 51.9996C39.4903 57.1275 31.7726 58.9374 23.3113 57.208C14.3677 55.378 7.69508 50.3506 3.45438 42.2263C1.26369 38.0837 0.238687 33.5992 0.319079 28.8735ZM37.4604 43.3926C41.2388 48.4804 38.5658 49.5663 36.9579 49.3451C35.5108 49.144 34.0638 48.8021 32.6167 48.5608C30.3255 48.1989 28.0745 47.9374 25.7633 48.6413C24.3363 49.0837 22.8289 49.3451 21.3417 49.4658C19.4726 49.6266 18.749 48.7619 19.0304 46.9118C19.3721 44.6797 20.7186 43.091 22.6481 42.1056C26.7481 39.9941 30.9285 39.9941 35.129 41.9447C35.4104 42.0654 35.6917 42.1659 36.0334 42.3067C35.9329 40.2756 36.5358 39.4511 38.4251 39.2903C43.2687 38.9283 47.8712 39.7126 52.1521 42.367C52.2928 42.1861 52.5138 41.985 52.6545 41.7235C54.8251 37.6212 56.031 33.2171 55.9305 28.6321C55.83 23.3433 54.2624 18.3561 51.3481 13.8918C44.4746 3.37439 31.4108 -0.727981 19.8142 3.53527C10.2073 7.05446 4.2784 14.0325 2.54996 24.1075C0.640644 35.1678 4.2985 44.2775 13.4833 50.8533C22.5074 57.3085 34.3251 57.4694 43.5501 51.4968C45.0976 50.4914 45.0976 50.4914 43.9319 49.1239C43.6506 48.8021 43.4295 48.3999 43.1079 48.1184C41.7011 46.8113 40.254 45.5042 38.8069 44.2372C38.5658 44.016 37.8221 43.5736 37.4604 43.3926ZM40.6761 40.7382C40.1334 40.7382 39.0682 40.6175 38.1839 40.899C37.8422 40.9996 37.7015 41.442 37.9226 41.7235C38.0432 41.8844 38.204 42.0453 38.3648 42.166C40.1133 43.5535 41.902 44.8808 43.5903 46.3287C44.3741 46.9923 44.8967 47.9374 45.6001 48.6815C46.5045 49.6669 47.6702 50.0892 48.9967 50.0489C51.5491 49.9685 52.8957 47.9374 52.0717 45.5243C51.5692 44.0361 50.6045 43.0106 49.1574 42.4274C46.4442 41.3415 43.6104 40.7382 40.6761 40.7382ZM32.0339 46.3488C33.1996 46.5297 33.8025 46.208 33.9633 45.8661C34.305 45.1422 33.5814 44.6797 33.0187 44.3177C32.677 44.1166 32.2952 43.9557 31.9133 43.8552C29.6422 43.272 27.3912 43.4128 25.2005 44.2372C24.5373 44.4987 23.6731 44.8808 23.8941 45.7656C24.1152 46.6705 25.0397 46.4493 25.6829 46.3488C27.8133 46.0873 29.9236 45.7656 32.0339 46.3488Z" fill="#202020"/>
<path d="M16.4176 14.2132C20.4573 14.3741 23.2308 16.4655 25.0598 19.9243C27.4916 24.5295 26.8284 30.3814 23.472 34.3229C19.573 38.9079 12.7396 38.8073 8.96119 34.0816C4.6602 28.6922 5.32343 20.4271 10.3882 16.3448C12.1568 14.9372 14.1264 14.1529 16.4176 14.2132ZM7.59453 25.3741C7.57443 28.1693 8.25776 30.2406 9.46365 32.151C12.3377 36.736 18.0053 37.5605 21.7436 33.9207C26.1049 29.6775 26.1049 22.237 21.7637 17.9938C18.7892 15.0779 14.6088 14.8768 11.4333 17.5715C8.8406 19.7233 7.71511 22.5788 7.59453 25.3741Z" fill="#202020"/>
<path d="M51.0466 26.299C50.7653 30.4617 49.1775 34.2825 45.0574 36.6153C41.5 38.6463 36.6564 37.7414 33.9833 34.6445C29.5618 29.5568 29.4412 22.7798 33.6417 17.5915C37.199 13.2076 43.8917 13.0467 47.6701 17.2496C49.9211 19.7231 50.9461 22.639 51.0466 26.299ZM49.5996 25.9772C49.4187 23.001 48.4942 20.3465 46.404 18.1747C43.329 14.9772 38.9275 14.8164 35.6515 17.8328C30.7274 22.3374 30.9485 30.2807 36.1338 34.5239C38.9074 36.7962 42.6657 36.7962 45.4794 34.5641C48.1927 32.352 49.3584 29.3758 49.5996 25.9772Z" fill="#202020"/>
<path d="M21.5427 11.9013C16.1765 10.0914 12.3579 12.5448 9.04169 16.2651C7.8559 17.5923 6.97158 19.2011 5.94658 20.6892C5.76569 20.9506 5.62501 21.2322 5.44412 21.5137C5.34363 21.4936 5.22305 21.4534 5.12256 21.4333C5.32354 20.287 5.48432 19.1206 5.74559 17.9945C6.26815 15.7422 7.29315 13.7312 8.76031 11.9616C11.3329 8.90493 14.7897 8.12065 18.3873 9.87019C19.2515 10.2925 20.0554 10.8556 20.8795 11.3583C21.1206 11.4991 21.3216 11.7203 21.5427 11.9013Z" fill="#202020"/>
<path d="M52.1118 20.9509C50.9461 17.5322 48.7956 14.9582 45.5799 13.3293C42.4245 11.7205 39.0882 11.3787 35.6112 12.364C35.571 12.2836 35.5308 12.183 35.5107 12.1026C35.8122 11.8613 36.1137 11.5999 36.4353 11.3586C37.9426 10.1922 39.6309 9.3878 41.5 9.04594C44.3137 8.52309 46.6652 9.48835 48.5142 11.5999C50.8456 14.2543 51.9912 17.4116 52.1118 20.9509Z" fill="#202020"/>
<path d="M23.0901 29.3152C23.07 31.9496 20.8793 33.4779 18.7288 32.3719C17.1813 31.5675 16.6386 29.0337 17.6033 27.2037C18.367 25.796 20.0352 25.2933 21.4822 26.0776C22.5273 26.6205 23.1102 27.7869 23.0901 29.3152Z" fill="#202020"/>
<path d="M39.3496 31.5277C38.1437 33.3376 35.4505 33.0762 34.4858 31.1054C33.8628 29.8184 33.9231 28.4912 34.526 27.2243C35.0687 26.1182 36.2545 25.5552 37.4603 25.716C38.6662 25.8769 39.7515 26.9025 39.9324 28.1694C40.1334 29.5972 39.7716 30.8842 39.3496 31.5277Z" fill="#202020"/>
</svg>
