<svg width="173" height="192" viewBox="0 0 173 192" fill="none" xmlns="http://www.w3.org/2000/svg">
<path d="M16.2007 191.709C13.0797 191.865 10.4268 191.396 8.16407 190.304C5.97936 189.212 4.18477 187.807 2.85834 185.935C1.53191 184.062 0.673634 181.955 0.283508 179.537C-0.106619 177.118 -0.106619 174.621 0.361533 172.046C0.673634 170.486 1.21981 168.847 2.07809 167.131C2.93637 165.414 4.02872 163.775 5.43318 162.215C6.83764 160.732 8.55419 159.406 10.5048 158.314C12.5335 157.221 14.7962 156.597 17.3711 156.441C19.0876 156.285 20.6481 156.441 22.1306 156.753C23.6131 157.065 24.9395 157.533 26.1099 158.314C27.2803 159.016 28.2166 159.952 28.9968 161.045C29.7771 162.137 30.3233 163.463 30.6354 164.868L26.1879 167.833C26.0319 166.818 25.7198 165.882 25.2516 165.102C24.7835 164.322 24.0812 163.619 23.379 163.151C22.5988 162.683 21.7405 162.371 20.8042 162.215C19.7898 162.059 18.7755 162.137 17.6832 162.371C16.2007 162.683 14.9523 163.307 14.016 164.244C13.0797 165.18 12.2994 166.194 11.6752 167.209C11.051 168.223 10.6609 169.237 10.3488 170.174C10.0367 171.11 9.88062 171.812 9.8026 172.124C9.33445 174.231 9.1784 176.182 9.41247 177.82C9.64655 179.537 10.0367 180.941 10.7389 182.111C11.4411 183.282 12.2214 184.218 13.2357 184.842C14.25 185.467 15.2644 185.857 16.2787 185.857C17.3711 185.857 18.3854 185.701 19.2437 185.31C20.18 184.92 20.9602 184.452 21.5844 183.828C22.2867 183.204 22.7548 182.58 23.223 181.799C23.6131 181.097 23.9252 180.395 24.0032 179.693L29.0749 182.033C28.5287 183.204 27.9045 184.296 27.1242 185.389C26.344 186.481 25.4077 187.495 24.3933 188.353C23.379 189.212 22.1306 189.914 20.8042 190.538C19.3997 191.24 17.9172 191.631 16.2007 191.709Z" fill="white"/>
<path d="M56.1494 185.935L53.8867 191.162H32.4297L35.5507 157.065H44.9137L42.3389 185.935H56.1494Z" fill="white"/>
<path d="M70.8183 185.935H84.7068L82.444 191.162H60.9871L64.1081 157.065H85.565L86.8915 162.293H73.003L72.0667 172.67H82.444L81.9759 177.898H71.5205L70.8183 185.935Z" fill="white"/>
<path d="M108.192 191.162L106.788 185.233H95.9425L93.5237 191.162H87.0476L101.014 157.065H109.987L117.946 191.162H108.192ZM98.1272 180.083H105.54L102.887 168.535L98.1272 180.083Z" fill="white"/>
<path d="M150.404 191.162H144.864L129.103 171.032L127.309 191.162H121.769L124.89 157.065H130.43L146.191 177.196L148.063 157.065H153.603L150.404 191.162Z" fill="white"/>
<path d="M161.718 169.159L161.094 176.884H156.022L157.661 157.065H165.853C167.024 157.065 168.038 157.221 168.896 157.612C169.754 157.924 170.457 158.47 170.925 159.094C171.471 159.718 171.783 160.499 172.017 161.357C172.173 162.215 172.251 163.151 172.017 164.166C171.939 164.556 171.783 165.024 171.627 165.492C171.393 165.96 171.159 166.428 170.769 166.819C170.379 167.287 169.91 167.677 169.364 167.989C168.818 168.379 168.116 168.613 167.336 168.847L171.237 176.884H165.385L161.718 169.159ZM162.498 160.108L161.952 166.116H164.215C164.449 166.116 164.683 166.116 165.073 166.038C165.385 165.96 165.697 165.882 166.087 165.648C166.399 165.492 166.711 165.18 166.946 164.79C167.18 164.4 167.336 163.854 167.414 163.073C167.492 162.449 167.414 161.981 167.258 161.591C167.102 161.201 166.867 160.889 166.555 160.655C166.243 160.421 165.931 160.264 165.541 160.186C165.151 160.108 164.839 160.03 164.449 160.03H162.498V160.108Z" fill="white"/>
<path d="M86.1114 143.567C126.316 143.567 158.909 111.428 158.909 71.7833C158.909 32.1385 126.316 0 86.1114 0C45.9063 0 13.3137 32.1385 13.3137 71.7833C13.3137 111.428 45.9063 143.567 86.1114 143.567Z" fill="#A8A8A8"/>
<path d="M121.535 99.4827C121.535 103.774 118.024 107.285 113.732 107.285H53.8868C49.5954 107.285 46.0842 103.774 46.0842 99.4827V50.1707C46.0842 45.8793 49.5954 42.3682 53.8868 42.3682H113.732C118.024 42.3682 121.535 45.8793 121.535 50.1707V99.4827Z" fill="white"/>
<path d="M46.0063 48.1416V35.2674C46.0063 30.976 49.5175 27.4648 53.8089 27.4648H54.277V37.9983L66.371 37.9202L66.2929 27.4648H101.404V37.7642L113.186 37.8422V27.5429L113.654 27.4648C117.946 27.4648 121.457 30.976 121.457 35.2674V48.0635L46.0063 48.1416Z" fill="#06726A"/>
<path d="M81.5859 65.1515C81.5859 66.0097 80.9618 66.712 80.2595 66.712H70.1162C69.414 66.712 68.7898 66.0097 68.7898 65.1515V55.3203C68.7898 54.462 69.414 53.7598 70.1162 53.7598H80.2595C80.9618 53.7598 81.5859 54.462 81.5859 55.3203V65.1515Z" fill="#BCBEC0"/>
<path d="M98.9075 65.3067C98.9075 66.165 98.2833 66.8672 97.581 66.8672H87.4378C86.7355 66.8672 86.1113 66.165 86.1113 65.3067V55.4755C86.1113 54.6173 86.7355 53.915 87.4378 53.915H97.581C98.2833 53.915 98.9075 54.6173 98.9075 55.4755V65.3067Z" fill="#BCBEC0"/>
<path d="M116.619 65.1515C116.619 66.0097 115.995 66.712 115.293 66.712H105.15C104.447 66.712 103.823 66.0097 103.823 65.1515V55.3203C103.823 54.462 104.447 53.7598 105.15 53.7598H115.293C115.995 53.7598 116.619 54.462 116.619 55.3203V65.1515Z" fill="#BCBEC0"/>
<path d="M64.0303 83.0968C64.0303 83.9551 63.4061 84.6573 62.7039 84.6573H52.5606C51.8583 84.6573 51.2341 83.9551 51.2341 83.0968V73.2656C51.2341 72.4073 51.8583 71.7051 52.5606 71.7051H62.7039C63.4061 71.7051 64.0303 72.4073 64.0303 73.2656V83.0968Z" fill="#BCBEC0"/>
<path d="M98.9075 83.0968C98.9075 83.9551 98.2833 84.6573 97.581 84.6573H87.4378C86.7355 84.6573 86.1113 83.9551 86.1113 83.0968V73.2656C86.1113 72.4073 86.7355 71.7051 87.4378 71.7051H97.581C98.2833 71.7051 98.9075 72.4073 98.9075 73.2656V83.0968Z" fill="#BCBEC0"/>
<path d="M116.697 82.9405C116.697 83.7988 116.073 84.501 115.371 84.501H105.228C104.525 84.501 103.901 83.7988 103.901 82.9405V73.1093C103.901 72.2511 104.525 71.5488 105.228 71.5488H115.371C116.073 71.5488 116.697 72.2511 116.697 73.1093V82.9405Z" fill="#BCBEC0"/>
<path d="M64.0303 101.276C64.0303 102.135 63.4061 102.837 62.7039 102.837H52.5606C51.8583 102.837 51.2341 102.135 51.2341 101.276V91.4453C51.2341 90.587 51.8583 89.8848 52.5606 89.8848H62.7039C63.4061 89.8848 64.0303 90.587 64.0303 91.4453V101.276Z" fill="#BCBEC0"/>
<path d="M81.5859 101.276C81.5859 102.135 80.9618 102.837 80.2595 102.837H70.1162C69.414 102.837 68.7898 102.135 68.7898 101.276V91.4453C68.7898 90.587 69.414 89.8848 70.1162 89.8848H80.2595C80.9618 89.8848 81.5859 90.587 81.5859 91.4453V101.276Z" fill="#BCBEC0"/>
<path d="M99.0637 101.198C99.0637 102.057 98.4395 102.759 97.7373 102.759H87.594C86.8918 102.759 86.2676 102.057 86.2676 101.198V91.3671C86.2676 90.5089 86.8918 89.8066 87.594 89.8066H97.7373C98.4395 89.8066 99.0637 90.5089 99.0637 91.3671V101.198Z" fill="#BCBEC0"/>
<path d="M81.3518 82.9405C81.3518 83.7988 80.7276 84.501 80.0254 84.501H69.8821C69.1799 84.501 68.5557 83.7988 68.5557 82.9405V73.1093C68.5557 72.2511 69.1799 71.5488 69.8821 71.5488H80.0254C80.7276 71.5488 81.3518 72.2511 81.3518 73.1093V82.9405Z" fill="#06726A"/>
<path d="M63.9522 34.0975C63.9522 35.1898 63.6401 36.1261 63.25 36.1261H57.6322C57.242 36.1261 56.9299 35.2679 56.9299 34.0975V21.4574C56.9299 20.365 57.242 19.4287 57.6322 19.4287H63.25C63.6401 19.4287 63.9522 20.287 63.9522 21.4574V34.0975Z" fill="#4E4E4E"/>
<path d="M110.924 33.7851C110.924 34.8774 110.611 35.8137 110.221 35.8137H104.525C104.135 35.8137 103.823 34.9555 103.823 33.7851V21.223C103.823 20.1306 104.135 19.1943 104.525 19.1943H110.143C110.533 19.1943 110.846 20.0526 110.846 21.223V33.7851H110.924Z" fill="#4E4E4E"/>
<path fill-rule="evenodd" clip-rule="evenodd" d="M115.137 67.1797C115.605 67.8039 115.995 68.272 116.385 68.8962C119.272 73.0316 122.159 77.0889 124.968 81.2242C127.231 84.5793 129.337 88.0905 131.444 91.5236C132.848 93.8644 134.019 96.2831 134.643 98.936C135.111 100.887 135.189 102.837 134.955 104.788C134.175 112.512 127.933 118.754 119.428 120.471C117.868 120.783 116.229 121.017 114.591 120.939C109.753 120.705 105.462 119.223 101.794 116.258C98.5953 113.683 96.5667 110.406 95.7084 106.582C95.2402 104.632 95.2402 102.603 95.4743 100.653C95.8644 97.3755 97.2689 94.4105 98.9074 91.6016C102.575 85.4376 106.476 79.3516 110.767 73.4217C112.094 71.315 113.576 69.2864 115.137 67.1797Z" fill="white"/>
<path fill-rule="evenodd" clip-rule="evenodd" d="M115.293 72.876C115.683 73.3441 115.995 73.8123 116.307 74.2804C118.648 77.7135 120.989 81.0686 123.251 84.5798C125.124 87.3887 126.841 90.2756 128.479 93.1626C129.649 95.1132 130.586 97.1419 131.054 99.3266C131.444 100.965 131.522 102.604 131.366 104.242C130.742 110.718 125.67 115.868 118.804 117.35C117.477 117.663 116.229 117.819 114.825 117.741C110.923 117.506 107.412 116.258 104.447 113.839C101.872 111.655 100.156 109.002 99.4536 105.725C99.0635 104.086 99.0635 102.448 99.2196 100.731C99.5317 98.0001 100.624 95.5033 102.028 93.1626C104.993 88.0129 108.192 82.9412 111.626 78.0256C112.796 76.3871 114.044 74.6706 115.293 72.876Z" fill="#06726A"/>
<path d="M115.605 112.747C113.732 112.825 112.094 112.591 110.767 111.889C109.441 111.264 108.348 110.328 107.568 109.158C106.788 107.987 106.242 106.661 106.008 105.178C105.774 103.696 105.774 102.135 106.086 100.575C106.242 99.6386 106.632 98.6243 107.1 97.5319C107.646 96.4395 108.27 95.4252 109.129 94.4889C109.987 93.5526 111.001 92.7724 112.25 92.0701C113.498 91.4459 114.825 91.0558 116.385 90.8998C117.399 90.8217 118.414 90.8997 119.272 91.0558C120.208 91.2118 120.989 91.524 121.691 91.9921C122.393 92.4603 123.017 93.0064 123.485 93.7087C123.954 94.4109 124.266 95.1911 124.5 96.0494L121.847 97.922C121.769 97.2978 121.613 96.7517 121.301 96.2055C120.989 95.7373 120.598 95.3472 120.13 95.0351C119.662 94.723 119.116 94.5669 118.57 94.4889C117.946 94.4109 117.321 94.4109 116.697 94.5669C115.761 94.801 115.059 95.1911 114.434 95.7373C113.81 96.2835 113.342 96.9077 113.03 97.5319C112.64 98.1561 112.406 98.7803 112.25 99.4045C112.094 100.029 111.938 100.419 111.938 100.653C111.625 101.979 111.547 103.15 111.704 104.164C111.86 105.178 112.094 106.115 112.484 106.817C112.874 107.519 113.42 108.143 113.966 108.533C114.59 108.924 115.215 109.158 115.839 109.158C116.463 109.158 117.087 109.08 117.633 108.768C118.18 108.533 118.648 108.221 119.038 107.831C119.428 107.441 119.74 107.051 120.052 106.583C120.286 106.115 120.442 105.725 120.52 105.256L123.641 106.661C123.329 107.363 122.939 108.065 122.471 108.768C122.003 109.47 121.457 110.016 120.832 110.562C120.208 111.108 119.506 111.576 118.648 111.889C117.633 112.435 116.697 112.669 115.605 112.747Z" fill="white"/>
</svg>
