<svg width="78" height="78" viewBox="0 0 78 78" fill="none" xmlns="http://www.w3.org/2000/svg">
<g filter="url(#filter0_d_350_1021)">
<path d="M37.0611 6.36152C53.0106 6.38149 65.0674 18.8448 65.7062 34.8234C64.788 50.8219 53.7092 63.2053 37.121 63.3052C20.3132 63.425 8.35614 50.1828 8.33618 34.5837C8.33618 18.6451 21.4311 6.22171 37.0611 6.36152ZM36.8016 61.4077C51.9725 61.3478 63.1112 49.2041 63.0513 34.5437C62.9714 19.404 51.8328 7.61983 36.1429 7.87949C21.6706 8.11917 9.67361 19.6437 9.85327 35.2828C10.0329 50.1029 22.6687 61.6274 36.8016 61.4077Z" fill="#202020"/>
<path d="M38.7579 32.9261C38.6181 31.8275 38.6181 30.729 38.7579 29.6305C38.9176 28.472 39.0373 27.3336 39.3567 26.2151C40.3149 22.7597 42.5306 22.1006 45.6646 22.9195C47.6408 23.4388 49.4773 24.3975 51.4336 25.0566C52.7111 25.496 54.0685 25.6958 55.366 26.0553C57.6816 26.7144 58.8993 28.3322 59.0789 30.709C59.3983 34.9833 56.9031 40.8554 52.0125 42.7329C48.619 44.0312 45.5449 43.392 42.87 41.0152C40.4945 38.938 39.197 36.2616 38.7579 32.9261ZM40.3149 29.0712C39.9755 31.1085 40.0953 33.2257 40.774 35.183C41.1932 36.3615 41.7721 37.4999 42.5506 38.5585C45.1856 42.1537 49.657 43.0325 53.0505 40.4959C56.1845 38.1391 57.6616 34.9034 57.5618 30.9887C57.5019 29.0712 56.5438 27.9527 54.6674 27.4334C52.751 26.8941 50.8347 26.3748 48.9583 25.7757C47.581 25.3362 46.2435 24.7171 44.8662 24.2577C43.0496 23.6585 41.5725 24.2976 40.9736 26.1152C40.6542 27.0539 40.4945 28.0726 40.3149 29.0712Z" fill="#202020"/>
<path d="M34.3263 30.3891C34.4261 31.228 34.4461 32.0668 34.3463 32.8857C34.0469 35.7219 32.949 38.2186 30.9328 40.3557C27.1002 44.3903 21.7105 44.4303 17.8379 40.4756C15.2229 37.7992 13.7658 34.6034 14.0053 30.7886C14.1849 27.9723 15.3028 26.3345 18.0775 26.015C20.6925 25.7154 23.008 24.5569 25.4434 23.6581C26.2618 23.3585 27.1601 23.1787 28.0384 23.0589C31.4918 22.6594 33.1885 24.5769 33.8872 27.453C34.1068 28.4117 34.2066 29.4104 34.3263 30.3891ZM32.8092 32.9457C32.949 32.0469 32.949 31.1281 32.8691 30.2293C32.7893 29.4703 32.7094 28.6314 32.4499 27.8725C32.1106 26.8738 31.5117 25.8552 30.7532 25.1561C29.3559 23.8778 27.6791 24.4171 26.162 24.9763C23.4671 25.995 20.8721 27.2533 17.9377 27.5329C16.9596 27.6328 16.0214 28.192 15.8218 29.2506C15.5823 30.4091 15.3826 31.6274 15.5224 32.7859C15.8418 35.4024 17.0994 37.6194 18.9558 39.4969C21.6107 42.1733 25.104 42.7325 27.9985 40.8551C30.8929 38.9776 32.3102 36.2812 32.8092 32.9457Z" fill="#202020"/>
<path d="M35.8435 44.8495C35.8235 44.8495 35.8035 44.8495 35.7836 44.8495C31.3521 45.0892 26.7409 46.9467 23.3274 51.3008C23.0679 51.6404 22.7685 51.9999 22.4292 52.2196C22.1697 52.3794 21.6507 52.4992 21.491 52.3594C21.2914 52.1996 21.2315 51.7003 21.3113 51.4007C21.4311 51.0012 21.6706 50.6018 21.9701 50.3022C26.0622 45.9081 30.9329 43.0918 37.0811 43.2117C41.9717 43.2916 46.1637 45.229 49.7169 48.5445C50.4155 49.2037 51.0942 49.9027 51.753 50.6018C51.9725 50.8415 52.252 51.1211 52.3119 51.4207C52.3319 51.5405 52.3319 51.6803 52.3319 51.8002C52.3319 52.3994 51.6132 52.7589 51.1741 52.3594C51.1541 52.3395 51.1342 52.3195 51.1142 52.2995C49.4374 50.2023 47.561 48.3648 45.1856 47.0665C42.5506 45.6284 39.7759 44.8695 35.8435 44.8495Z" fill="#202020"/>
<path d="M48.7988 36.3816C48.7788 38.6985 47.5412 40.1366 45.6648 39.9368C45.0061 39.8569 44.2475 39.4774 43.7684 38.9981C42.5508 37.7997 42.6106 35.2032 43.7884 33.9449C44.5469 33.1259 45.4851 32.7664 46.583 33.066C47.7608 33.3656 48.3995 34.2245 48.679 35.363C48.7788 35.7624 48.7788 36.1619 48.7988 36.3816Z" fill="#202020"/>
<path d="M29.8949 36.6608C29.9149 38.0589 29.3959 39.1774 28.1383 39.7766C27.24 40.216 26.2419 40.1561 25.3836 39.5569C24.106 38.6781 23.8665 37.3399 24.0262 35.9218C24.1859 34.6235 24.7647 33.5849 26.1221 33.1655C27.7191 32.6662 29.4158 33.6848 29.7352 35.3426C29.835 35.802 29.855 36.2414 29.8949 36.6608Z" fill="#202020"/>
</g>
<defs>
<filter id="filter0_d_350_1021" x="0.336182" y="0.360352" width="77.3701" height="76.9458" filterUnits="userSpaceOnUse" color-interpolation-filters="sRGB">
<feFlood flood-opacity="0" result="BackgroundImageFix"/>
<feColorMatrix in="SourceAlpha" type="matrix" values="0 0 0 0 0 0 0 0 0 0 0 0 0 0 0 0 0 0 127 0" result="hardAlpha"/>
<feOffset dx="2" dy="4"/>
<feGaussianBlur stdDeviation="5"/>
<feComposite in2="hardAlpha" operator="out"/>
<feColorMatrix type="matrix" values="0 0 0 0 0 0 0 0 0 0 0 0 0 0 0 0 0 0 0.12 0"/>
<feBlend mode="normal" in2="BackgroundImageFix" result="effect1_dropShadow_350_1021"/>
<feBlend mode="normal" in="SourceGraphic" in2="effect1_dropShadow_350_1021" result="shape"/>
</filter>
</defs>
</svg>
