<svg width="58" height="58" viewBox="0 0 58 58" fill="none" xmlns="http://www.w3.org/2000/svg">
<path d="M29.0981 0.361557C45.438 0.381544 57.7628 13.5729 57.6629 28.8828C57.563 44.6325 45.8974 57.4241 29.3578 57.584C12.998 57.7439 0.353581 45.1921 0.293655 28.8828C0.233728 12.0339 13.817 0.301596 29.0981 0.361557ZM28.8584 55.2055C43.0609 55.1456 55.3457 44.3127 55.3657 28.8029C55.3857 14.2125 44.9186 2.36024 29.7973 1.88056C14.4562 1.38089 2.47097 13.4929 2.23127 28.4031C1.99156 43.1734 14.0167 55.1256 28.8584 55.2055Z" fill="#202020"/>
<path d="M16.8334 37.497C16.7335 37.497 16.6137 37.497 16.5138 37.497C12.259 37.6369 8.52364 34.2991 7.06544 30.4017C6.34632 28.483 6.06667 26.5042 6.42623 24.4256C6.80576 22.267 8.10416 21.0079 10.1217 20.6281C12.4788 20.1884 14.5362 19.0491 16.6936 18.1298C17.7523 17.6701 18.8509 17.2703 19.9895 17.0705C22.6262 16.6108 24.5039 17.5501 25.5826 19.9685C27.8398 25.0852 26.901 32.6002 21.3278 36.1579C19.9096 37.0573 18.4114 37.557 16.8334 37.497ZM25.283 26.0845C25.3029 25.7847 25.283 25.4649 25.243 25.1651C25.0832 24.1058 24.9634 23.0265 24.7436 21.9872C24.1244 19.209 22.2068 17.9499 19.6499 18.6094C18.8909 18.8093 18.1318 19.1091 17.4127 19.4489C15.2154 20.4682 13.098 21.6075 10.661 22.0472C8.94312 22.367 7.98431 23.4463 7.82451 25.285C7.52487 28.9227 8.8832 31.8807 11.5599 34.1992C14.7959 36.9974 19.1505 36.7575 22.1269 33.6396C24.1444 31.501 25.1032 28.9626 25.283 26.0845Z" fill="#202020"/>
<path d="M43.3407 37.2371C40.2645 37.9966 36.9885 37.1571 34.7513 34.9186C34.2918 34.4589 33.8723 33.9592 33.4728 33.3996C30.6363 29.4022 30.2968 24.9851 31.9547 20.4881C33.1532 17.2702 35.9098 16.1509 39.1658 17.3901C41.1434 18.1496 43.041 19.109 44.9986 19.8885C46.0973 20.3282 47.2758 20.548 48.4144 20.9078C50.0124 21.4275 50.8714 22.5667 51.2309 24.2056C52.3496 29.3023 49.0536 35.1185 44.6391 36.8174C44.2196 36.9972 43.7801 37.1171 43.3407 37.2371ZM32.5939 24.0857C32.3742 25.125 32.3542 26.2043 32.514 27.2636C32.8336 29.3623 33.6326 31.261 34.991 32.9399C36.8487 35.2184 39.2457 36.4976 42.242 36.0379C47.1959 35.2584 51.0112 29.2223 49.7328 24.3855C49.4531 23.3062 48.8339 22.5667 47.7153 22.2669C46.6566 21.9871 45.5779 21.7672 44.5592 21.3475C42.5017 20.528 40.5241 19.5287 38.4467 18.7492C36.0696 17.8698 34.2719 18.6493 33.373 20.9877C33.0134 21.9671 32.8137 23.0264 32.5939 24.0857Z" fill="#202020"/>
<path d="M34.1918 41.414C36.5888 41.6139 37.7674 44.0523 36.3491 45.8311C35.9097 46.3907 35.0308 46.8704 34.3316 46.9104C31.1555 47.0303 27.9794 47.0503 24.8034 46.9304C23.1055 46.8704 22.1666 45.6712 22.1866 44.1122C22.2066 42.6132 23.1254 41.6338 24.8433 41.414C25.6224 41.3141 26.4413 41.3141 27.2204 41.3141C28.0194 41.2941 28.8184 41.3141 29.6174 41.3141C29.6174 41.354 32.6737 41.2941 34.1918 41.414Z" fill="#202020"/>
<path d="M5.72705 21.6078C6.06663 19.0894 7.40498 17.6304 9.30264 16.731C11.5798 15.6517 13.9569 14.8122 16.2541 13.7529C17.7522 13.0534 19.1505 12.154 20.5887 11.3545C20.6886 11.3945 20.7885 11.4344 20.8684 11.4744C20.5088 12.3538 20.2491 13.2732 19.7897 14.0727C18.5712 16.1713 16.5337 17.0507 14.3364 17.7703C11.9594 18.5698 9.64222 19.5091 7.3051 20.4485C6.80572 20.6684 6.40621 21.1081 5.72705 21.6078Z" fill="#202020"/>
<path d="M37.1082 11.2344C38.2268 11.9339 39.2655 12.7134 40.4041 13.273C42.7013 14.3723 45.0584 15.3517 47.3955 16.391C49.3531 17.2704 50.8512 18.6095 51.4106 20.7681C51.4705 20.968 51.4505 21.1878 51.4705 21.6275C48.4542 19.0093 44.6789 18.5296 41.3829 16.9706C39.2456 15.9713 37.5876 14.5322 37.1082 12.0738C37.0682 11.9139 37.0283 11.754 37.0083 11.5941C36.9883 11.5342 37.0483 11.4342 37.1082 11.2344Z" fill="#202020"/>
<path d="M22.2466 30.7615C22.2666 33.2599 20.4089 34.8189 18.2715 34.0394C17.7921 33.8595 17.3127 33.5197 17.013 33.12C16.0942 31.8209 16.0942 30.3618 16.6934 28.9427C17.2328 27.6636 18.4513 27.1039 19.8096 27.3438C21.108 27.5636 22.0668 28.7029 22.2466 30.2619C22.2666 30.4418 22.2466 30.6017 22.2466 30.7615Z" fill="#202020"/>
<path d="M38.1469 34.1599C36.469 34.1599 35.2904 32.7808 35.2505 30.7821C35.2105 28.6835 36.3891 27.2844 38.2068 27.2844C40.0046 27.2644 41.2431 28.6835 41.2431 30.7421C41.2431 32.7808 39.9847 34.1599 38.1469 34.1599Z" fill="#202020"/>
</svg>
