<svg width="24" height="25" viewBox="0 0 24 25" fill="none" xmlns="http://www.w3.org/2000/svg">
<path d="M18.9292 11.5006L17.9393 11.6421C18.0106 12.1413 18.4424 12.5092 18.9465 12.5005L18.9292 11.5006ZM5.6685 9.51082L5.73382 10.5087C6.0962 10.485 6.41724 10.2666 6.5725 9.93836L5.6685 9.51082ZM19 20.5C21.7614 20.5 24 18.2614 24 15.5H22C22 17.1569 20.6569 18.5 19 18.5V20.5ZM24 15.5C24 12.7386 21.7614 10.5 19 10.5V12.5C20.6569 12.5 22 13.8431 22 15.5H24ZM19 10.5C18.9704 10.5 18.941 10.5003 18.9118 10.5008L18.9465 12.5005C18.9645 12.5002 18.9823 12.5 19 12.5V10.5ZM19.9191 11.3591C19.3648 7.48092 16.0314 4.5 12 4.5V6.5C15.022 6.5 17.5237 8.73512 17.9393 11.6421L19.9191 11.3591ZM12 4.5C8.80232 4.5 6.04484 6.37613 4.76451 9.08328L6.5725 9.93836C7.53466 7.90395 9.60438 6.5 12 6.5V4.5ZM5.60319 8.51295C2.47398 8.71777 0 11.3196 0 14.5H2C2 12.3804 3.64927 10.6451 5.73382 10.5087L5.60319 8.51295ZM0 14.5C0 17.8137 2.68629 20.5 6 20.5V18.5C3.79086 18.5 2 16.7091 2 14.5H0ZM19 18.5H6V20.5H19V18.5Z" fill="#2D6FF4"/>
<path d="M12 9.5V15.5" stroke="#2D6FF4" stroke-width="2" stroke-linecap="round" stroke-linejoin="round"/>
<path d="M15 13.5L12 15.5L9 13.5" stroke="#2D6FF4" stroke-width="2" stroke-linecap="round" stroke-linejoin="round"/>
</svg>
