<svg width="1200" height="438" viewBox="0 0 1200 438" fill="none" xmlns="http://www.w3.org/2000/svg">
<rect width="1200" height="438" rx="20" fill="black"/>
<g opacity="0.3">
<path d="M190 58H194V62H190V58Z" fill="#C4C4C4"/>
<path d="M214 58H218V62H214V58Z" fill="#C4C4C4"/>
<path d="M238 58H242V62H238V58Z" fill="#C4C4C4"/>
<path d="M262 58H266V62H262V58Z" fill="#C4C4C4"/>
<path d="M286 58H290V62H286V58Z" fill="#C4C4C4"/>
<path d="M310 58H314V62H310V58Z" fill="#C4C4C4"/>
<path d="M334 58H338V62H334V58Z" fill="#C4C4C4"/>
<path d="M190 82H194V86H190V82Z" fill="#C4C4C4"/>
<path d="M214 82H218V86H214V82Z" fill="#C4C4C4"/>
<path d="M238 82H242V86H238V82Z" fill="#C4C4C4"/>
<path d="M262 82H266V86H262V82Z" fill="#C4C4C4"/>
<path d="M286 82H290V86H286V82Z" fill="#C4C4C4"/>
<path d="M310 82H314V86H310V82Z" fill="#C4C4C4"/>
<path d="M334 82H338V86H334V82Z" fill="#C4C4C4"/>
<path d="M190 106H194V110H190V106Z" fill="#C4C4C4"/>
<path d="M214 106H218V110H214V106Z" fill="#C4C4C4"/>
<path d="M238 106H242V110H238V106Z" fill="#C4C4C4"/>
<path d="M262 106H266V110H262V106Z" fill="#C4C4C4"/>
<path d="M286 106H290V110H286V106Z" fill="#C4C4C4"/>
<path d="M310 106H314V110H310V106Z" fill="#C4C4C4"/>
<path d="M334 106H338V110H334V106Z" fill="#C4C4C4"/>
<path d="M190 130H194V134H190V130Z" fill="#C4C4C4"/>
<path d="M214 130H218V134H214V130Z" fill="#C4C4C4"/>
<path d="M238 130H242V134H238V130Z" fill="#C4C4C4"/>
<path d="M262 130H266V134H262V130Z" fill="#C4C4C4"/>
<path d="M286 130H290V134H286V130Z" fill="#C4C4C4"/>
<path d="M310 130H314V134H310V130Z" fill="#C4C4C4"/>
<path d="M334 130H338V134H334V130Z" fill="#C4C4C4"/>
<path d="M190 154H194V158H190V154Z" fill="#C4C4C4"/>
<path d="M214 154H218V158H214V154Z" fill="#C4C4C4"/>
<path d="M238 154H242V158H238V154Z" fill="#C4C4C4"/>
<path d="M262 154H266V158H262V154Z" fill="#C4C4C4"/>
<path d="M286 154H290V158H286V154Z" fill="#C4C4C4"/>
<path d="M310 154H314V158H310V154Z" fill="#C4C4C4"/>
<path d="M334 154H338V158H334V154Z" fill="#C4C4C4"/>
<path d="M190 178H194V182H190V178Z" fill="#C4C4C4"/>
<path d="M214 178H218V182H214V178Z" fill="#C4C4C4"/>
<path d="M238 178H242V182H238V178Z" fill="#C4C4C4"/>
<path d="M262 178H266V182H262V178Z" fill="#C4C4C4"/>
<path d="M286 178H290V182H286V178Z" fill="#C4C4C4"/>
<path d="M310 178H314V182H310V178Z" fill="#C4C4C4"/>
<path d="M334 178H338V182H334V178Z" fill="#C4C4C4"/>
<path d="M190 202H194V206H190V202Z" fill="#C4C4C4"/>
<path d="M214 202H218V206H214V202Z" fill="#C4C4C4"/>
<path d="M238 202H242V206H238V202Z" fill="#C4C4C4"/>
<path d="M262 202H266V206H262V202Z" fill="#C4C4C4"/>
<path d="M286 202H290V206H286V202Z" fill="#C4C4C4"/>
<path d="M310 202H314V206H310V202Z" fill="#C4C4C4"/>
<path d="M334 202H338V206H334V202Z" fill="#C4C4C4"/>
</g>
<path d="M981.582 60.6655L990.749 52.332L999.082 60.6655L1006.17 53.5821L1013.25 60.6655L1020.33 53.5821L1027.42 60.6655L1034.5 53.5821L1041.58 60.6655L1048.67 53.5821L1055.75 60.6655L1062.83 53.5821L1069.92 60.6655L1077 53.5821" stroke="#E6EFFF" stroke-width="2" stroke-linecap="round" stroke-linejoin="round"/>
<circle cx="1077" cy="54" r="4" fill="#002F86" stroke="white" stroke-width="2"/>
<circle cx="982" cy="60.668" r="4" fill="#002F86" stroke="white" stroke-width="2"/>
<path d="M119.199 390L111.199 381.2L119.199 373.2L112.399 366.4L119.199 359.6L112.399 352.8L119.199 346L112.399 339.2L119.199 332.4L112.399 325.6L119.199 318.8L112.399 312L119.199 305.2L112.399 298.4" stroke="#E6EFFF" stroke-width="2" stroke-linecap="round" stroke-linejoin="round"/>
<circle cx="112.8" cy="298.399" r="3.80001" transform="rotate(-90 112.8 298.399)" fill="#002F86" stroke="white" stroke-width="2"/>
<circle cx="119.198" cy="389.598" r="3.80001" transform="rotate(-90 119.198 389.598)" fill="#002F86" stroke="white" stroke-width="2"/>
<path d="M297.093 315.178C301.677 315.178 306.216 314.275 310.452 312.52C314.687 310.766 318.536 308.195 321.777 304.953C325.019 301.711 327.59 297.863 329.344 293.628C331.099 289.392 332.002 284.853 332.002 280.269L297.093 280.269L297.093 315.178Z" fill="#515151"/>
<path opacity="0.1" d="M276 287C279.546 287 283.057 286.302 286.332 284.945C289.608 283.588 292.585 281.599 295.092 279.092C297.599 276.585 299.588 273.608 300.945 270.332C302.302 267.057 303 263.546 303 260L276 260L276 287Z" fill="#E8F2FF"/>
<path opacity="0.4" d="M1096.29 384.344C1105.18 384.344 1113.98 382.593 1122.2 379.19C1130.41 375.787 1137.88 370.799 1144.17 364.511C1150.46 358.223 1155.44 350.758 1158.85 342.543C1162.25 334.327 1164 325.522 1164 316.629L1096.29 316.629L1096.29 384.344Z" fill="#646464"/>
<path opacity="0.3" d="M1055.37 329.677C1062.25 329.677 1069.06 328.322 1075.42 325.69C1081.77 323.058 1087.54 319.2 1092.41 314.337C1097.27 309.474 1101.13 303.7 1103.76 297.346C1106.39 290.991 1107.75 284.181 1107.75 277.303L1055.37 277.303L1055.37 329.677Z" fill="#E8F2FF"/>
</svg>
