<svg width="23" height="31" viewBox="0 0 23 31" fill="none" xmlns="http://www.w3.org/2000/svg">
<path d="M1 18.9748V11.7849C1 8.9089 2.13915 6.21268 4.06695 4.14559C5.99474 2.07849 8.71118 1 11.5152 1C14.3193 1 16.9481 2.16836 18.9635 4.14559C20.8913 6.21268 22.0305 8.9089 22.0305 11.7849V18.9748" stroke="#A87C51" stroke-width="1.4" stroke-linecap="round" stroke-linejoin="round"/>
<path d="M22.0305 20.1432C22.0305 20.7724 21.7676 21.4015 21.3295 21.8508C20.8913 22.3002 20.2779 22.5698 19.6646 22.5698H18.5254C17.912 22.5698 17.2986 22.3002 16.8605 21.8508C16.4224 21.4015 16.1595 20.7724 16.1595 20.1432V16.5483C16.1595 15.9192 16.4224 15.29 16.8605 14.8407C17.2986 14.3913 17.912 14.1217 18.5254 14.1217H22.0305V20.1432ZM1 20.1432C1 20.7724 1.26288 21.4015 1.70102 21.8508C2.13915 22.3002 2.75254 22.5698 3.36593 22.5698H4.50508C5.11847 22.5698 5.73186 22.3002 6.16999 21.8508C6.60813 21.4015 6.87101 20.7724 6.87101 20.1432V16.5483C6.87101 15.9192 6.60813 15.29 6.16999 14.8407C5.73186 14.3913 5.11847 14.1217 4.50508 14.1217H1V20.1432Z" stroke="#A87C51" stroke-width="1.4" stroke-linecap="round" stroke-linejoin="round"/>
<path d="M22.0311 18.9748V23.2887C22.0311 23.2887 22.2064 27.9622 17.825 27.9622C14.8457 27.9622 14.8457 27.9622 14.8457 27.9622" stroke="#A87C51" stroke-width="1.4" stroke-linecap="round" stroke-linejoin="round"/>
<path d="M13.1799 29.5798H10.3759C9.41195 29.5798 8.71094 28.7709 8.71094 27.8722C8.71094 26.8836 9.49958 26.1646 10.3759 26.1646H13.1799C14.1438 26.1646 14.8448 26.9735 14.8448 27.8722C14.9325 28.8608 14.1438 29.5798 13.1799 29.5798Z" stroke="#A87C51" stroke-width="1.4" stroke-linecap="round" stroke-linejoin="round"/>
</svg>
