<svg width="25" height="22" viewBox="0 0 25 22" fill="none" xmlns="http://www.w3.org/2000/svg">
<path d="M22.4998 3.15815C21.9268 2.61687 21.2464 2.18749 20.4976 1.89454C19.7488 1.60159 18.9462 1.45081 18.1357 1.45081C17.3251 1.45081 16.5225 1.60159 15.7737 1.89454C15.0249 2.18749 14.3446 2.61687 13.7716 3.15815L12.5824 4.28097L11.3932 3.15815C10.2358 2.06532 8.666 1.45137 7.02916 1.45137C5.39231 1.45137 3.82251 2.06532 2.66508 3.15815C1.50766 4.25098 0.857422 5.73318 0.857422 7.27867C0.857422 8.82417 1.50766 10.3064 2.66508 11.3992L3.85426 12.522L12.5824 20.7631L21.3106 12.522L22.4998 11.3992C23.073 10.8582 23.5278 10.2158 23.8381 9.50879C24.1483 8.80178 24.308 8.04397 24.308 7.27867C24.308 6.51337 24.1483 5.75557 23.8381 5.04855C23.5278 4.34154 23.073 3.69917 22.4998 3.15815V3.15815Z" stroke="white" stroke-linecap="round" stroke-linejoin="round"/>
</svg>
