<svg width="18" height="19" viewBox="0 0 18 19" fill="none" xmlns="http://www.w3.org/2000/svg">
<path d="M16.6585 7.70153L9.6585 1.57653C9.28148 1.24663 8.71852 1.24663 8.3415 1.57652L1.3415 7.70153C1.12448 7.89141 1 8.16574 1 8.4541V17.0003C1 17.5526 1.44772 18.0003 2 18.0003H6C6.55228 18.0003 7 17.5526 7 17.0003V13.0003C7 12.448 7.44772 12.0003 8 12.0003H10C10.5523 12.0003 11 12.448 11 13.0003V17.0003C11 17.5526 11.4477 18.0003 12 18.0003H16C16.5523 18.0003 17 17.5526 17 17.0003V8.4541C17 8.16574 16.8755 7.89141 16.6585 7.70153Z" stroke="#A3A3A3" stroke-width="2" stroke-linecap="round" stroke-linejoin="round"/>
</svg>
