<svg width="15" height="22" viewBox="0 0 15 22" fill="none" xmlns="http://www.w3.org/2000/svg">
<path fill-rule="evenodd" clip-rule="evenodd" d="M5.95521 0.279338C6.14317 0.0529895 6.4351 -0.0464958 6.71441 0.0206108C10.4477 0.917505 12.3347 5.19853 11.8909 9.0287C11.7184 10.5176 11.2922 11.6848 10.6647 12.6135C10.6609 12.6193 10.6569 12.6249 10.6531 12.6305C10.7957 12.5572 10.9271 12.4781 11.0502 12.3945C11.6626 11.9786 12.112 11.4298 12.6971 10.7151C12.7679 10.6287 12.8406 10.5399 12.9158 10.4487C13.0849 10.2435 13.3406 10.14 13.5974 10.1729C13.8544 10.2057 14.0788 10.3706 14.1957 10.6122C14.7103 11.6766 15 12.8799 15 14.1516C15 18.4862 11.6422 22 7.5 22C3.35787 22 0 18.4862 0 14.1516C0 11.4052 1.34867 8.98886 3.38722 7.58758L3.45711 7.51388C3.49301 7.47602 3.53239 7.44196 3.57468 7.41217C4.47039 6.78145 5.11357 6.26558 5.54659 5.65889C5.95562 5.08578 6.2069 4.38666 6.2069 3.32625C6.2069 2.54111 6.06838 1.79173 5.81617 1.10212C5.71376 0.822036 5.76714 0.505686 5.95521 0.279338ZM7.6771 2.16595C7.73079 2.54482 7.75862 2.93229 7.75862 3.32625C7.75862 4.69936 7.41962 5.74823 6.78983 6.6306C6.19831 7.45928 5.3796 8.09573 4.50482 8.71433L4.43003 8.79319C4.38995 8.83545 4.34556 8.87296 4.29765 8.90507C2.64463 10.0125 1.55172 11.9487 1.55172 14.1516C1.55172 17.5894 4.21485 20.3762 7.5 20.3762C10.7851 20.3762 13.4483 17.5894 13.4483 14.1516C13.4483 13.5889 13.3771 13.0443 13.2438 12.5268C12.8504 12.9725 12.4163 13.4026 11.895 13.7566C10.94 14.4052 9.74472 14.7756 8.01724 14.7756C7.66314 14.7756 7.35403 14.5247 7.26579 14.1659C7.17765 13.8071 7.33272 13.4313 7.64286 13.2525C8.34507 12.8477 8.94031 12.3528 9.39776 11.6759C9.85417 11.0005 10.2038 10.0987 10.3505 8.83324C10.6679 6.09361 9.58438 3.3895 7.6771 2.16595Z" fill="#4D4A4B"/>
</svg>
