<svg width="12" height="13" viewBox="0 0 12 13" fill="none" xmlns="http://www.w3.org/2000/svg">
<g clip-path="url(#clip0_120_1643)">
<path d="M9.50015 6H2.50015C1.94787 6 1.50015 6.44772 1.50015 7V10.5C1.50015 11.0523 1.94787 11.5 2.50015 11.5H9.50015C10.0524 11.5 10.5002 11.0523 10.5002 10.5V7C10.5002 6.44772 10.0524 6 9.50015 6Z" stroke="white" stroke-width="1.34301" stroke-linecap="round" stroke-linejoin="round"/>
<path d="M3.50015 6V4C3.50015 3.33696 3.76354 2.70107 4.23239 2.23223C4.70123 1.76339 5.33711 1.5 6.00015 1.5C6.66319 1.5 7.29908 1.76339 7.76792 2.23223C8.23676 2.70107 8.50015 3.33696 8.50015 4V6" stroke="white" stroke-width="1.34301" stroke-linecap="round" stroke-linejoin="round"/>
</g>
<defs>
<clipPath id="clip0_120_1643">
<rect width="12" height="12" fill="white" transform="translate(0 0.5)"/>
</clipPath>
</defs>
</svg>
