<svg width="105" height="22" viewBox="0 0 105 22" fill="none" xmlns="http://www.w3.org/2000/svg">
<path d="M9.88047 21.5463C7.97703 21.6414 6.3591 21.3559 4.9791 20.6897C3.64669 20.0235 2.55221 19.167 1.74325 18.0249C0.934283 16.8828 0.410836 15.598 0.172906 14.1228C-0.0650248 12.6477 -0.0650248 11.1249 0.220492 9.55456C0.410836 8.60284 0.743939 7.60353 1.26739 6.55663C1.79083 5.50974 2.45704 4.51043 3.31359 3.55871C4.17014 2.65457 5.21703 1.84561 6.40669 1.1794C7.64392 0.513195 9.02392 0.132509 10.5943 0.037337C11.6412 -0.0578352 12.5929 0.0373341 13.497 0.227679C14.4012 0.418023 15.2101 0.70354 15.9239 1.1794C16.6377 1.60768 17.2087 2.17871 17.6846 2.84491C18.1605 3.51112 18.4936 4.32009 18.6839 5.17664L15.9715 6.98491C15.8763 6.36629 15.686 5.79526 15.4005 5.3194C15.1149 4.84354 14.6867 4.41526 14.2584 4.12974C13.7825 3.84423 13.2591 3.65388 12.6881 3.55871C12.0694 3.46353 11.4508 3.51113 10.7846 3.65388C9.88047 3.84423 9.11909 4.22491 8.54806 4.79595C7.97703 5.36698 7.50117 5.9856 7.12048 6.60422C6.73979 7.22284 6.50186 7.84146 6.31151 8.41249C6.12117 8.98353 6.026 9.4118 5.97841 9.60215C5.69289 10.887 5.59772 12.0766 5.74048 13.0759C5.88324 14.1228 6.12117 14.9794 6.54944 15.6932C6.97772 16.407 7.45358 16.978 8.0722 17.3587C8.69082 17.7394 9.30944 17.9773 9.92806 17.9773C10.5943 17.9773 11.2129 17.8821 11.7363 17.6442C12.3074 17.4063 12.7832 17.1208 13.1639 16.7401C13.5922 16.3594 13.8777 15.9787 14.1632 15.5028C14.4012 15.0745 14.5915 14.6463 14.6391 14.218L17.7322 15.6456C17.3991 16.3594 17.0184 17.0256 16.5425 17.6918C16.0667 18.358 15.4956 18.9766 14.877 19.5C14.2584 20.0235 13.497 20.4518 12.6881 20.8325C11.8315 21.2607 10.9274 21.4987 9.88047 21.5463Z" fill="white"/>
<path d="M34.2445 18.0249L32.8645 21.2132H19.7783L21.6818 0.41803H27.3921L25.8218 18.0249H34.2445Z" fill="white"/>
<path d="M43.1907 18.0249H51.661L50.281 21.2132H37.1948L39.0983 0.41803H52.1844L52.9934 3.6063H44.5231L43.9521 9.93525H50.281L49.9955 13.1235H43.6189L43.1907 18.0249Z" fill="white"/>
<path d="M65.9842 21.2132L65.1277 17.5966H58.5132L57.038 21.2132H53.0884L61.6063 0.41803H67.0787L71.9325 21.2132H65.9842ZM59.8456 14.4559H64.3663L62.7484 7.41319L59.8456 14.4559Z" fill="white"/>
<path d="M91.7283 21.2132H88.3496L78.7373 8.93594L77.6428 21.2132H74.2642L76.1676 0.41803H79.5462L89.1586 12.6952L90.3007 0.41803H93.6793L91.7283 21.2132Z" fill="white"/>
<path d="M98.6286 7.79388L98.2479 12.5049H95.1548L96.1541 0.41803H101.151C101.864 0.41803 102.483 0.513201 103.006 0.751131C103.53 0.941476 103.958 1.27458 104.244 1.65526C104.577 2.03595 104.767 2.51182 104.91 3.03527C105.005 3.55871 105.053 4.12974 104.91 4.74836C104.862 4.98629 104.767 5.27181 104.672 5.55733C104.529 5.84285 104.386 6.12836 104.149 6.36629C103.911 6.65181 103.625 6.88974 103.292 7.08008C102.959 7.31802 102.531 7.46077 102.055 7.60353L104.434 12.5049H100.865L98.6286 7.79388ZM99.1044 2.27388L98.7713 5.93801H100.151C100.294 5.93801 100.437 5.93802 100.675 5.89043C100.865 5.84285 101.055 5.79526 101.293 5.6525C101.484 5.55733 101.674 5.36698 101.817 5.12905C101.96 4.89112 102.055 4.55802 102.102 4.08216C102.15 3.70147 102.102 3.41596 102.007 3.17803C101.912 2.94009 101.769 2.74974 101.579 2.60699C101.389 2.46423 101.198 2.36906 100.96 2.32147C100.722 2.27389 100.532 2.2263 100.294 2.2263H99.1044V2.27388Z" fill="white"/>
</svg>
