<svg width="24" height="24" viewBox="0 0 24 24" fill="none" xmlns="http://www.w3.org/2000/svg">
<path d="M20 20V19V20ZM4 20L4 21H4V20ZM3 19H4H3ZM3 6L3 5C2.73478 5 2.48043 5.10536 2.29289 5.29289C2.10536 5.48043 2 5.73478 2 6L3 6ZM21 7L22 7L21 7ZM21 19H20H21ZM20 6V5V6ZM20 19L4 19V21L20 21V19ZM4 19L4 6L2 6L2 19H4ZM20 7L20 19H22L22 7L20 7ZM3 7L20 7V5L3 5L3 7ZM22 7C22 5.89543 21.1046 5 20 5V7L22 7ZM4 19H4H2C2 20.1046 2.89543 21 4 21L4 19ZM20 21C21.1046 21 22 20.1046 22 19H20V21Z" fill="#A3A3A3"/>
<path d="M15.7071 11.7071C16.0976 11.3166 16.0976 10.6834 15.7071 10.2929C15.3166 9.90237 14.6834 9.90237 14.2929 10.2929L15.7071 11.7071ZM11 15L10.2929 15.7071C10.6834 16.0976 11.3166 16.0976 11.7071 15.7071L11 15ZM9.70711 12.2929C9.31658 11.9024 8.68342 11.9024 8.29289 12.2929C7.90237 12.6834 7.90237 13.3166 8.29289 13.7071L9.70711 12.2929ZM14.2929 10.2929L10.2929 14.2929L11.7071 15.7071L15.7071 11.7071L14.2929 10.2929ZM11.7071 14.2929L9.70711 12.2929L8.29289 13.7071L10.2929 15.7071L11.7071 14.2929Z" fill="#A3A3A3"/>
<path d="M12 6L10.2929 4.29289C10.1054 4.10536 9.851 4 9.58579 4H4C3.44772 4 3 4.44772 3 5V6" stroke="#A3A3A3" stroke-width="2" stroke-linecap="round" stroke-linejoin="round"/>
</svg>
