<svg width="19" height="19" viewBox="0 0 19 19" fill="none" xmlns="http://www.w3.org/2000/svg">
<g opacity="0.4">
<circle cx="9.5" cy="9.5" r="8.7" stroke="white" stroke-width="1.6"/>
<path d="M9.3418 3.45465V15.5456" stroke="white" stroke-width="1.4" stroke-linecap="round" stroke-linejoin="round"/>
<path d="M12.0904 5.65302H7.96848C7.45832 5.65302 6.96905 5.85567 6.60832 6.21641C6.24758 6.57715 6.04492 7.06641 6.04492 7.57657C6.04492 8.08673 6.24758 8.57599 6.60832 8.93673C6.96905 9.29746 7.45832 9.50012 7.96848 9.50012H10.7164C11.2266 9.50012 11.7158 9.70278 12.0766 10.0635C12.4373 10.4243 12.64 10.9135 12.64 11.4237C12.64 11.9338 12.4373 12.4231 12.0766 12.7838C11.7158 13.1446 11.2266 13.3472 10.7164 13.3472H6.04492" stroke="white" stroke-width="1.4" stroke-linecap="round" stroke-linejoin="round"/>
</g>
</svg>
