<svg width="30" height="25" viewBox="0 0 30 25" fill="none" xmlns="http://www.w3.org/2000/svg">
<path d="M21.2516 23.846V21.3146C21.2516 19.9718 20.7182 18.684 19.7687 17.7346C18.8192 16.7851 17.5314 16.2517 16.1887 16.2517H6.0629C4.72013 16.2517 3.43236 16.7851 2.48289 17.7346C1.53341 18.684 1 19.9718 1 21.3146V23.846" stroke="#A87C51" stroke-width="1.4" stroke-linecap="round" stroke-linejoin="round"/>
<path d="M11.1254 11.1888C13.9216 11.1888 16.1883 8.92204 16.1883 6.12588C16.1883 3.32972 13.9216 1.06299 11.1254 1.06299C8.32924 1.06299 6.0625 3.32972 6.0625 6.12588C6.0625 8.92204 8.32924 11.1888 11.1254 11.1888Z" stroke="#A87C51" stroke-width="1.4" stroke-linecap="round" stroke-linejoin="round"/>
<path d="M28.846 23.8459V21.3144C28.8452 20.1926 28.4718 19.1029 27.7845 18.2163C27.0972 17.3297 26.135 16.6965 25.0488 16.4161" stroke="#A87C51" stroke-width="1.4" stroke-linecap="round" stroke-linejoin="round"/>
<path d="M19.9863 1.22739C21.0754 1.50623 22.0406 2.13959 22.73 3.02764C23.4193 3.91568 23.7934 5.00789 23.7934 6.13207C23.7934 7.25624 23.4193 8.34845 22.73 9.23649C22.0406 10.1245 21.0754 10.7579 19.9863 11.0367" stroke="#A87C51" stroke-width="1.4" stroke-linecap="round" stroke-linejoin="round"/>
</svg>
