<svg width="24" height="24" viewBox="0 0 24 24" fill="none" xmlns="http://www.w3.org/2000/svg">
<path d="M21 21C21.5523 21 22 20.5523 22 20C22 19.4477 21.5523 19 21 19V21ZM4 20L4 21H4V20ZM3 19H4H3ZM3 6L3 5C2.73478 5 2.48043 5.10536 2.29289 5.29289C2.10536 5.48043 2 5.73478 2 6L3 6ZM20 6V5V6ZM21 7L20 7V7H21ZM20 13C20 13.5523 20.4477 14 21 14C21.5523 14 22 13.5523 22 13H20ZM21 19L4 19V21L21 21V19ZM4 19L4 6L2 6L2 19H4ZM3 7L20 7V5L3 5L3 7ZM20 7V13H22V7H20ZM20 7L22 7C22 5.89543 21.1046 5 20 5V7ZM4 19H4H2C2 20.1046 2.89543 21 4 21L4 19Z" fill="#A3A3A3"/>
<path d="M20.2458 20V21V20ZM4.3258 20L4.3258 19L4.3258 20ZM3.36428 18.7253L4.3258 19L4.3258 19L3.36428 18.7253ZM5.00007 13V12C4.55359 12 4.16121 12.296 4.03855 12.7253L5.00007 13ZM22.6359 14.2747L21.6743 14V14L22.6359 14.2747ZM21.2073 19.2747L22.1688 19.5494L21.2073 19.2747ZM21.6743 13V12V13ZM20.2458 19L4.3258 19L4.3258 21L20.2458 21V19ZM4.3258 19L5.9616 13.2747L4.03855 12.7253L2.40276 18.4506L4.3258 19ZM21.6743 14L20.2458 19L22.1688 19.5494L23.5974 14.5494L21.6743 14ZM5.00007 14H21.6743V12H5.00007V14ZM23.5974 14.5494C23.9624 13.2718 23.0031 12 21.6743 12V14V14L23.5974 14.5494ZM4.3258 19L4.3258 19L2.40276 18.4506C2.03772 19.7282 2.99705 21 4.3258 21L4.3258 19ZM20.2458 21C21.1387 21 21.9235 20.408 22.1688 19.5494L20.2458 19V19V21Z" fill="#A3A3A3"/>
<path d="M12 6L10.2929 4.29289C10.1054 4.10536 9.851 4 9.58579 4H4C3.44772 4 3 4.44772 3 5V6" stroke="#A3A3A3" stroke-width="2" stroke-linecap="round" stroke-linejoin="round"/>
</svg>
