<svg width="20" height="24" viewBox="0 0 20 24" fill="none" xmlns="http://www.w3.org/2000/svg">
<path d="M11.9988 1H3.19976C2.61635 1 2.05683 1.23176 1.6443 1.6443C1.23176 2.05683 1 2.61635 1 3.19976V20.7979C1 21.3813 1.23176 21.9408 1.6443 22.3533C2.05683 22.7659 2.61635 22.9976 3.19976 22.9976H16.3983C16.9818 22.9976 17.5413 22.7659 17.9538 22.3533C18.3663 21.9408 18.5981 21.3813 18.5981 20.7979V7.59929L11.9988 1Z" stroke="#06726A" stroke-width="2" stroke-linecap="round" stroke-linejoin="round"/>
<path d="M11.999 1V7.59929H18.5983" stroke="#06726A" stroke-width="2" stroke-linecap="round" stroke-linejoin="round"/>
<path d="M14.1985 13.0986H5.39941" stroke="#06726A" stroke-width="2" stroke-linecap="round" stroke-linejoin="round"/>
<path d="M14.1985 17.498H5.39941" stroke="#06726A" stroke-width="2" stroke-linecap="round" stroke-linejoin="round"/>
<path d="M7.59918 8.69922H6.4993H5.39941" stroke="#06726A" stroke-width="2" stroke-linecap="round" stroke-linejoin="round"/>
</svg>
