<svg width="69" height="27" viewBox="0 0 69 27" fill="none" xmlns="http://www.w3.org/2000/svg">
<path d="M33.9092 1.26562L37.8203 9.18906L46.5664 10.4674L40.2378 16.6315L41.7314 25.3397L33.9092 21.2261L26.087 25.3397L27.5806 16.6315L21.252 10.4674L29.9981 9.18906L33.9092 1.26562Z" stroke="#A87C51" stroke-width="1.4" stroke-linecap="round" stroke-linejoin="round"/>
<path d="M59.2233 8.85997L61.9611 14.2756L68.0834 15.1493L63.6534 19.3624L64.6989 25.3144L59.2233 22.5028L53.7478 25.3144L54.7933 19.3624L50.3633 15.1493L56.4856 14.2756L59.2233 8.85997Z" stroke="#A87C51" stroke-width="1.4" stroke-linecap="round" stroke-linejoin="round"/>
<path d="M9.86007 8.85997L12.5978 14.2756L18.7201 15.1493L14.2901 19.3624L15.3356 25.3144L9.86007 22.5028L4.38455 25.3144L5.43003 19.3624L1 15.1493L7.12231 14.2756L9.86007 8.85997Z" stroke="#A87C51" stroke-width="1.4" stroke-linecap="round" stroke-linejoin="round"/>
</svg>
