<svg width="12" height="9" viewBox="0 0 12 9" fill="none" xmlns="http://www.w3.org/2000/svg">
<path d="M10.7665 2.24296C10.7741 2.34139 10.7741 2.43985 10.7741 2.53828C10.7741 5.54061 8.29953 9 3.77666 9C2.38325 9 1.08884 8.62733 0 7.98048C0.197977 8.00156 0.388314 8.00859 0.593909 8.00859C1.74364 8.00859 2.80203 7.65001 3.64722 7.03829C2.56599 7.01719 1.6599 6.36329 1.34771 5.46328C1.50001 5.48436 1.65228 5.49843 1.81219 5.49843C2.033 5.49843 2.25383 5.47029 2.4594 5.4211C1.3325 5.21014 0.487291 4.29609 0.487291 3.19218V3.16407C0.814691 3.33282 1.19543 3.43829 1.59896 3.45233C0.936519 3.04451 0.502525 2.34843 0.502525 1.56092C0.502525 1.13905 0.624331 0.752336 0.837542 0.414833C2.04821 1.79296 3.86802 2.69294 5.90862 2.7914C5.87055 2.62265 5.8477 2.44688 5.8477 2.2711C5.8477 1.01952 6.94416 0 8.3071 0C9.01522 0 9.65481 0.274218 10.1041 0.717187C10.6599 0.618754 11.1929 0.428901 11.665 0.168751C11.4822 0.696107 11.0939 1.13908 10.5838 1.42031C11.0787 1.37111 11.5584 1.24452 12 1.06876C11.665 1.51874 11.2462 1.9195 10.7665 2.24296Z" fill="#666666"/>
</svg>
