<svg width="102" height="102" viewBox="0 0 102 102" fill="none" xmlns="http://www.w3.org/2000/svg">
<rect width="102" height="102" rx="10" fill="#E7E7E7"/>
<path d="M18.59 60.95V65.18C18.59 65.8733 18.7433 66.3867 19.05 66.72C19.3567 67.0467 19.78 67.21 20.32 67.21C20.8533 67.21 21.27 67.0433 21.57 66.71C21.87 66.3767 22.02 65.8667 22.02 65.18V60.95H22.93V65.18C22.93 66.14 22.69 66.8633 22.21 67.35C21.7367 67.83 21.1 68.07 20.3 68.07C19.5067 68.07 18.87 67.83 18.39 67.35C17.9167 66.8633 17.68 66.14 17.68 65.18V60.95H18.59ZM27.3713 62.44C27.858 62.44 28.2913 62.5533 28.6713 62.78C29.0513 63.0067 29.348 63.3333 29.5613 63.76C29.7813 64.1867 29.8913 64.6867 29.8913 65.26C29.8913 65.8333 29.7813 66.3333 29.5613 66.76C29.348 67.18 29.0513 67.5033 28.6713 67.73C28.2913 67.9567 27.858 68.07 27.3713 68.07C26.838 68.07 26.3847 67.9367 26.0113 67.67C25.6447 67.3967 25.3913 67.04 25.2513 66.6V70.6H24.3413V62.51H25.2513V63.91C25.3913 63.47 25.6447 63.1167 26.0113 62.85C26.3847 62.5767 26.838 62.44 27.3713 62.44ZM27.1113 63.25C26.758 63.25 26.438 63.3333 26.1513 63.5C25.8647 63.66 25.6413 63.8933 25.4813 64.2C25.3213 64.5067 25.2413 64.86 25.2413 65.26C25.2413 65.66 25.3213 66.0133 25.4813 66.32C25.6413 66.62 25.8647 66.8533 26.1513 67.02C26.438 67.1867 26.758 67.27 27.1113 67.27C27.678 67.27 28.128 67.0933 28.4613 66.74C28.8013 66.38 28.9713 65.8867 28.9713 65.26C28.9713 64.6333 28.8013 64.1433 28.4613 63.79C28.128 63.43 27.678 63.25 27.1113 63.25ZM31.9896 60.6V68H31.0796V60.6H31.9896ZM35.9427 62.44C36.4693 62.44 36.9393 62.5533 37.3527 62.78C37.7727 63.0067 38.0993 63.3333 38.3327 63.76C38.5727 64.1867 38.6927 64.6867 38.6927 65.26C38.6927 65.8333 38.5727 66.3333 38.3327 66.76C38.0993 67.18 37.7727 67.5033 37.3527 67.73C36.9393 67.9567 36.4693 68.07 35.9427 68.07C35.416 68.07 34.9427 67.9567 34.5227 67.73C34.1093 67.5033 33.7827 67.18 33.5427 66.76C33.3027 66.3333 33.1827 65.8333 33.1827 65.26C33.1827 64.6867 33.3027 64.1867 33.5427 63.76C33.7827 63.3333 34.1093 63.0067 34.5227 62.78C34.9427 62.5533 35.416 62.44 35.9427 62.44ZM35.9427 63.24C35.616 63.24 35.3127 63.3133 35.0327 63.46C34.7593 63.6067 34.536 63.8333 34.3627 64.14C34.196 64.44 34.1127 64.8133 34.1127 65.26C34.1127 65.7 34.196 66.0733 34.3627 66.38C34.536 66.68 34.7593 66.9033 35.0327 67.05C35.3127 67.1967 35.616 67.27 35.9427 67.27C36.2693 67.27 36.5693 67.1967 36.8427 67.05C37.1227 66.9033 37.346 66.68 37.5127 66.38C37.686 66.0733 37.7727 65.7 37.7727 65.26C37.7727 64.8133 37.686 64.44 37.5127 64.14C37.346 63.8333 37.1227 63.6067 36.8427 63.46C36.5693 63.3133 36.2693 63.24 35.9427 63.24ZM42.1284 62.44C42.6618 62.44 43.1118 62.5733 43.4784 62.84C43.8518 63.1067 44.1118 63.4633 44.2584 63.91V62.51H45.1684V68H44.2584V66.6C44.1118 67.0467 43.8518 67.4033 43.4784 67.67C43.1118 67.9367 42.6618 68.07 42.1284 68.07C41.6418 68.07 41.2084 67.9567 40.8284 67.73C40.4484 67.5033 40.1484 67.18 39.9284 66.76C39.7151 66.3333 39.6084 65.8333 39.6084 65.26C39.6084 64.6867 39.7151 64.1867 39.9284 63.76C40.1484 63.3333 40.4484 63.0067 40.8284 62.78C41.2084 62.5533 41.6418 62.44 42.1284 62.44ZM42.3884 63.25C41.8284 63.25 41.3784 63.43 41.0384 63.79C40.7051 64.1433 40.5384 64.6333 40.5384 65.26C40.5384 65.8867 40.7051 66.38 41.0384 66.74C41.3784 67.0933 41.8284 67.27 42.3884 67.27C42.7484 67.27 43.0684 67.1867 43.3484 67.02C43.6351 66.8533 43.8584 66.62 44.0184 66.32C44.1784 66.0133 44.2584 65.66 44.2584 65.26C44.2584 64.86 44.1784 64.5067 44.0184 64.2C43.8584 63.8933 43.6351 63.66 43.3484 63.5C43.0684 63.3333 42.7484 63.25 42.3884 63.25ZM48.8667 62.44C49.4001 62.44 49.8501 62.5733 50.2167 62.84C50.5901 63.1067 50.8501 63.4633 50.9967 63.91V60.6H51.9067V68H50.9967V66.6C50.8501 67.0467 50.5901 67.4033 50.2167 67.67C49.8501 67.9367 49.4001 68.07 48.8667 68.07C48.3801 68.07 47.9467 67.9567 47.5667 67.73C47.1867 67.5033 46.8867 67.18 46.6667 66.76C46.4534 66.3333 46.3467 65.8333 46.3467 65.26C46.3467 64.6867 46.4534 64.1867 46.6667 63.76C46.8867 63.3333 47.1867 63.0067 47.5667 62.78C47.9467 62.5533 48.3801 62.44 48.8667 62.44ZM49.1267 63.25C48.5667 63.25 48.1167 63.43 47.7767 63.79C47.4434 64.1433 47.2767 64.6333 47.2767 65.26C47.2767 65.8867 47.4434 66.38 47.7767 66.74C48.1167 67.0933 48.5667 67.27 49.1267 67.27C49.4867 67.27 49.8067 67.1867 50.0867 67.02C50.3734 66.8533 50.5967 66.62 50.7567 66.32C50.9167 66.0133 50.9967 65.66 50.9967 65.26C50.9967 64.86 50.9167 64.5067 50.7567 64.2C50.5967 63.8933 50.3734 63.66 50.0867 63.5C49.8067 63.3333 49.4867 63.25 49.1267 63.25ZM58.8557 62.44C59.3424 62.44 59.7757 62.5533 60.1557 62.78C60.5357 63.0067 60.8324 63.3333 61.0457 63.76C61.2657 64.1867 61.3757 64.6867 61.3757 65.26C61.3757 65.8333 61.2657 66.3333 61.0457 66.76C60.8324 67.18 60.5357 67.5033 60.1557 67.73C59.7757 67.9567 59.3424 68.07 58.8557 68.07C58.3224 68.07 57.869 67.9367 57.4957 67.67C57.129 67.3967 56.8757 67.04 56.7357 66.6V70.6H55.8257V62.51H56.7357V63.91C56.8757 63.47 57.129 63.1167 57.4957 62.85C57.869 62.5767 58.3224 62.44 58.8557 62.44ZM58.5957 63.25C58.2424 63.25 57.9224 63.3333 57.6357 63.5C57.349 63.66 57.1257 63.8933 56.9657 64.2C56.8057 64.5067 56.7257 64.86 56.7257 65.26C56.7257 65.66 56.8057 66.0133 56.9657 66.32C57.1257 66.62 57.349 66.8533 57.6357 67.02C57.9224 67.1867 58.2424 67.27 58.5957 67.27C59.1624 67.27 59.6124 67.0933 59.9457 66.74C60.2857 66.38 60.4557 65.8867 60.4557 65.26C60.4557 64.6333 60.2857 64.1433 59.9457 63.79C59.6124 63.43 59.1624 63.25 58.5957 63.25ZM65.454 62.42C66.094 62.42 66.6107 62.6267 67.004 63.04C67.3973 63.4467 67.594 64.0367 67.594 64.81V68H66.684V64.89C66.684 64.3433 66.544 63.9233 66.264 63.63C65.984 63.3367 65.604 63.19 65.124 63.19C64.624 63.19 64.224 63.3533 63.924 63.68C63.624 64 63.474 64.47 63.474 65.09V68H62.564V60.6H63.474V63.81C63.614 63.3633 63.8607 63.02 64.214 62.78C64.574 62.54 64.9873 62.42 65.454 62.42ZM71.4798 62.44C72.0064 62.44 72.4764 62.5533 72.8898 62.78C73.3098 63.0067 73.6364 63.3333 73.8698 63.76C74.1098 64.1867 74.2298 64.6867 74.2298 65.26C74.2298 65.8333 74.1098 66.3333 73.8698 66.76C73.6364 67.18 73.3098 67.5033 72.8898 67.73C72.4764 67.9567 72.0064 68.07 71.4798 68.07C70.9531 68.07 70.4798 67.9567 70.0598 67.73C69.6464 67.5033 69.3198 67.18 69.0798 66.76C68.8398 66.3333 68.7198 65.8333 68.7198 65.26C68.7198 64.6867 68.8398 64.1867 69.0798 63.76C69.3198 63.3333 69.6464 63.0067 70.0598 62.78C70.4798 62.5533 70.9531 62.44 71.4798 62.44ZM71.4798 63.24C71.1531 63.24 70.8498 63.3133 70.5698 63.46C70.2964 63.6067 70.0731 63.8333 69.8998 64.14C69.7331 64.44 69.6498 64.8133 69.6498 65.26C69.6498 65.7 69.7331 66.0733 69.8998 66.38C70.0731 66.68 70.2964 66.9033 70.5698 67.05C70.8498 67.1967 71.1531 67.27 71.4798 67.27C71.8064 67.27 72.1064 67.1967 72.3798 67.05C72.6598 66.9033 72.8831 66.68 73.0498 66.38C73.2231 66.0733 73.3098 65.7 73.3098 65.26C73.3098 64.8133 73.2231 64.44 73.0498 64.14C72.8831 63.8333 72.6598 63.6067 72.3798 63.46C72.1064 63.3133 71.8064 63.24 71.4798 63.24ZM78.0355 67.2V68H77.3555C76.7955 68 76.3755 67.8667 76.0955 67.6C75.8222 67.3333 75.6855 66.8867 75.6855 66.26V63.3H74.8655V62.51H75.6855V61.14H76.6055V62.51H78.0255V63.3H76.6055V66.28C76.6055 66.6333 76.6689 66.8767 76.7955 67.01C76.9289 67.1367 77.1555 67.2 77.4755 67.2H78.0355ZM81.636 62.44C82.1627 62.44 82.6327 62.5533 83.046 62.78C83.466 63.0067 83.7927 63.3333 84.026 63.76C84.266 64.1867 84.386 64.6867 84.386 65.26C84.386 65.8333 84.266 66.3333 84.026 66.76C83.7927 67.18 83.466 67.5033 83.046 67.73C82.6327 67.9567 82.1627 68.07 81.636 68.07C81.1093 68.07 80.636 67.9567 80.216 67.73C79.8027 67.5033 79.476 67.18 79.236 66.76C78.996 66.3333 78.876 65.8333 78.876 65.26C78.876 64.6867 78.996 64.1867 79.236 63.76C79.476 63.3333 79.8027 63.0067 80.216 62.78C80.636 62.5533 81.1093 62.44 81.636 62.44ZM81.636 63.24C81.3093 63.24 81.006 63.3133 80.726 63.46C80.4527 63.6067 80.2293 63.8333 80.056 64.14C79.8893 64.44 79.806 64.8133 79.806 65.26C79.806 65.7 79.8893 66.0733 80.056 66.38C80.2293 66.68 80.4527 66.9033 80.726 67.05C81.006 67.1967 81.3093 67.27 81.636 67.27C81.9627 67.27 82.2627 67.1967 82.536 67.05C82.816 66.9033 83.0393 66.68 83.206 66.38C83.3793 66.0733 83.466 65.7 83.466 65.26C83.466 64.8133 83.3793 64.44 83.206 64.14C83.0393 63.8333 82.816 63.6067 82.536 63.46C82.2627 63.3133 81.9627 63.24 81.636 63.24Z" fill="#06726A"/>
<path d="M62 46C62 46.5304 61.7893 47.0391 61.4142 47.4142C61.0391 47.7893 60.5304 48 60 48H42C41.4696 48 40.9609 47.7893 40.5858 47.4142C40.2107 47.0391 40 46.5304 40 46V35C40 34.4696 40.2107 33.9609 40.5858 33.5858C40.9609 33.2107 41.4696 33 42 33H46L48 30H54L56 33H60C60.5304 33 61.0391 33.2107 61.4142 33.5858C61.7893 33.9609 62 34.4696 62 35V46Z" stroke="#06726A" stroke-width="2" stroke-linecap="round" stroke-linejoin="round"/>
<path d="M51 44C53.2091 44 55 42.2091 55 40C55 37.7909 53.2091 36 51 36C48.7909 36 47 37.7909 47 40C47 42.2091 48.7909 44 51 44Z" stroke="#06726A" stroke-width="2" stroke-linecap="round" stroke-linejoin="round"/>
</svg>
