<svg width="50" height="42" viewBox="0 0 50 42" fill="none" xmlns="http://www.w3.org/2000/svg">
<path d="M48.9983 35.9078C48.9983 37.0651 48.5385 38.175 47.7202 38.9933C46.9019 39.8116 45.7921 40.2713 44.6348 40.2713H5.36348C4.20621 40.2713 3.09634 39.8116 2.27803 38.9933C1.45972 38.175 1 37.0651 1 35.9078V11.9087C1 10.7514 1.45972 9.64156 2.27803 8.82325C3.09634 8.00494 4.20621 7.54522 5.36348 7.54522H14.0904L18.4539 1H31.5444L35.9078 7.54522H44.6348C45.7921 7.54522 46.9019 8.00494 47.7202 8.82325C48.5385 9.64156 48.9983 10.7514 48.9983 11.9087V35.9078Z" stroke="#AFB3B8" stroke-width="2" stroke-linecap="round" stroke-linejoin="round"/>
<path d="M25.0004 31.5443C29.8202 31.5443 33.7274 27.6371 33.7274 22.8174C33.7274 17.9976 29.8202 14.0904 25.0004 14.0904C20.1806 14.0904 16.2734 17.9976 16.2734 22.8174C16.2734 27.6371 20.1806 31.5443 25.0004 31.5443Z" stroke="#AFB3B8" stroke-width="2" stroke-linecap="round" stroke-linejoin="round"/>
</svg>
