<svg width="50" height="51" viewBox="0 0 50 51" fill="none" xmlns="http://www.w3.org/2000/svg">
<path d="M25 4.66699L25.5547 3.83494C25.2188 3.61101 24.7812 3.61101 24.4453 3.83494L25 4.66699ZM43.75 17.167L44.3047 17.999C44.5829 17.8136 44.75 17.5013 44.75 17.167C44.75 16.8326 44.5829 16.5204 44.3047 16.3349L43.75 17.167ZM25 29.667L24.4453 30.499C24.7812 30.723 25.2188 30.723 25.5547 30.499L25 29.667ZM6.25 17.167L5.6953 16.3349C5.4171 16.5204 5.25 16.8326 5.25 17.167C5.25 17.5013 5.4171 17.8136 5.6953 17.999L6.25 17.167ZM24.4453 5.49904L43.1953 17.999L44.3047 16.3349L25.5547 3.83494L24.4453 5.49904ZM43.1953 16.3349L24.4453 28.8349L25.5547 30.499L44.3047 17.999L43.1953 16.3349ZM25.5547 28.8349L6.8047 16.3349L5.6953 17.999L24.4453 30.499L25.5547 28.8349ZM6.8047 17.999L25.5547 5.49904L24.4453 3.83494L5.6953 16.3349L6.8047 17.999Z" fill="#2D6FF4"/>
<path d="M44.3047 26.3321C44.7642 26.0257 44.8884 25.4048 44.5821 24.9453C44.2757 24.4858 43.6548 24.3616 43.1953 24.6679L44.3047 26.3321ZM25 38L24.4453 38.832C24.7812 39.056 25.2188 39.056 25.5547 38.832L25 38ZM6.8047 24.6679C6.34517 24.3616 5.7243 24.4858 5.41795 24.9453C5.1116 25.4048 5.23577 26.0257 5.6953 26.3321L6.8047 24.6679ZM43.1953 24.6679L24.4453 37.1679L25.5547 38.832L44.3047 26.3321L43.1953 24.6679ZM25.5547 37.1679L6.8047 24.6679L5.6953 26.3321L24.4453 38.832L25.5547 37.1679Z" fill="#2D6FF4"/>
<path d="M44.3047 34.6651C44.7642 34.3587 44.8884 33.7378 44.5821 33.2783C44.2757 32.8188 43.6548 32.6946 43.1953 33.001L44.3047 34.6651ZM25 46.333L24.4453 47.1651C24.7812 47.389 25.2188 47.389 25.5547 47.1651L25 46.333ZM6.8047 33.001C6.34517 32.6946 5.7243 32.8188 5.41795 33.2783C5.1116 33.7378 5.23577 34.3587 5.6953 34.6651L6.8047 33.001ZM43.1953 33.001L24.4453 45.501L25.5547 47.1651L44.3047 34.6651L43.1953 33.001ZM25.5547 45.501L6.8047 33.001L5.6953 34.6651L24.4453 47.1651L25.5547 45.501Z" fill="#2D6FF4"/>
</svg>
